<?xml version="1.0" encoding="UTF-8" standalone="no"?>
<!DOCTYPE svg PUBLIC "-//W3C//DTD SVG 1.1//EN"
 "http://www.w3.org/Graphics/SVG/1.1/DTD/svg11.dtd">
<!-- Generated by graphviz version 2.47.1 (20210417.1919)
 -->
<!-- Title: test Pages: 1 -->
<svg width="267pt" height="163pt"
 viewBox="0.00 0.00 267.28 163.00" xmlns="http://www.w3.org/2000/svg" xmlns:xlink="http://www.w3.org/1999/xlink">
<g id="graph0" class="graph" transform="scale(1 1) rotate(0) translate(4 159)">
<title>test</title>
<!-- a -->
<g id="node1" class="node">
<title>a</title>
<polygon fill="none" stroke="black" points="0.28,-118.5 0.28,-154.5 79.28,-154.5 79.28,-118.5 0.28,-118.5"/>
<text text-anchor="middle" x="39.78" y="-132.8" font-family="Times New Roman,serif" font-size="14.00">&lt;memory&gt;</text>
</g>
<!-- c -->
<g id="node3" class="node">
<title>c</title>
<polygon fill="none" stroke="black" points="115.28,-55.5 115.28,-91.5 169.28,-91.5 169.28,-55.5 115.28,-55.5"/>
<text text-anchor="middle" x="142.28" y="-69.8" font-family="Times New Roman,serif" font-size="14.00">c</text>
</g>
<!-- a&#45;&gt;c -->
<g id="edge1" class="edge">
<title>a:sw&#45;&gt;c:nw</title>
<path fill="none" stroke="black" stroke-dasharray="5,2" d="M0.78,-118.5C-5.43,-112.29 70.86,-112 79.28,-109.5 92.67,-105.52 99.39,-104.49 107.72,-98.2"/>
<polygon fill="black" stroke="black" points="110.12,-100.75 115.28,-91.5 105.47,-95.52 110.12,-100.75"/>
</g>
<!-- b -->
<g id="node2" class="node">
<title>b</title>
<polygon fill="none" stroke="black" points="12.78,-63.5 12.78,-99.5 66.78,-99.5 66.78,-63.5 12.78,-63.5"/>
<text text-anchor="middle" x="39.78" y="-77.8" font-family="Times New Roman,serif" font-size="14.00">b</text>
</g>
<!-- b&#45;&gt;c -->
<g id="edge2" class="edge">
<title>b:se&#45;&gt;c:ne</title>
<path fill="none" stroke="black" stroke-dasharray="5,2" d="M67.78,-63.5C74.02,-57.26 133.82,-81.53 158.34,-89.82"/>
<polygon fill="black" stroke="black" points="157.83,-93.29 168.28,-91.5 159,-86.39 157.83,-93.29"/>
</g>
<!-- e -->
<g id="node5" class="node">
<title>e</title>
<polygon fill="none" stroke="black" points="205.28,-27.5 205.28,-63.5 259.28,-63.5 259.28,-27.5 205.28,-27.5"/>
<text text-anchor="middle" x="232.28" y="-41.8" font-family="Times New Roman,serif" font-size="14.00">e</text>
</g>
<!-- c&#45;&gt;e -->
<g id="edge3" class="edge">
<title>c&#45;&gt;e</title>
<path fill="none" stroke="black" stroke-dasharray="5,2" d="M169.68,-65.1C177.84,-62.5 186.98,-59.59 195.66,-56.83"/>
<polygon fill="black" stroke="black" points="196.73,-60.17 205.19,-53.8 194.6,-53.5 196.73,-60.17"/>
</g>
<!-- d -->
<g id="node4" class="node">
<title>d</title>
<polygon fill="none" stroke="black" points="115.28,-0.5 115.28,-36.5 169.28,-36.5 169.28,-0.5 115.28,-0.5"/>
<text text-anchor="middle" x="142.28" y="-14.8" font-family="Times New Roman,serif" font-size="14.00">d</text>
</g>
<!-- d&#45;&gt;e -->
<g id="edge4" class="edge">
<title>d&#45;&gt;e</title>
<path fill="none" stroke="red" stroke-dasharray="5,2" d="M169.68,-26.6C177.76,-29.08 186.78,-31.85 195.38,-34.49"/>
<polygon fill="red" stroke="red" points="194.61,-37.91 205.19,-37.5 196.66,-31.22 194.61,-37.91"/>
</g>
</g>
</svg>
