<?xml version="1.0" encoding="UTF-8" standalone="no"?>
<!DOCTYPE svg PUBLIC "-//W3C//DTD SVG 1.1//EN"
 "http://www.w3.org/Graphics/SVG/1.1/DTD/svg11.dtd">
<!-- Generated by graphviz version 2.47.1 (20210417.1919)
 -->
<!-- Title: test Pages: 1 -->
<svg width="419pt" height="622pt"
 viewBox="0.00 0.00 418.50 622.00" xmlns="http://www.w3.org/2000/svg" xmlns:xlink="http://www.w3.org/1999/xlink">
<g id="graph0" class="graph" transform="scale(1 1) rotate(0) translate(4 618)">
<title>test</title>
<!-- a0 -->
<g id="node1" class="node">
<title>a0</title>
<text text-anchor="middle" x="67" y="-598.8" font-family="Times New Roman,serif" font-size="14.00">序列式容器</text>
<text text-anchor="middle" x="67" y="-583.8" font-family="Times New Roman,serif" font-size="14.00">Sequence Containers</text>
</g>
<!-- b0 -->
<g id="node2" class="node">
<title>b0</title>
<text text-anchor="middle" x="225" y="-598.8" font-family="Times New Roman,serif" font-size="14.00">关联式容器</text>
<text text-anchor="middle" x="225" y="-583.8" font-family="Times New Roman,serif" font-size="14.00">Associative Containers</text>
</g>
<!-- a1 -->
<g id="node3" class="node">
<title>a1</title>
<polygon fill="none" stroke="black" points="410.5,-613 315.5,-613 315.5,-577 410.5,-577 410.5,-613"/>
<text text-anchor="middle" x="363" y="-591.3" font-family="Times New Roman,serif" font-size="14.00">Array(built&#45;in)</text>
</g>
<!-- a2 -->
<g id="node4" class="node">
<title>a2</title>
<polygon fill="none" stroke="black" points="390.5,-540 335.5,-540 335.5,-504 390.5,-504 390.5,-540"/>
<text text-anchor="middle" x="363" y="-518.3" font-family="Times New Roman,serif" font-size="14.00">Vector</text>
</g>
<!-- a1&#45;&gt;a2 -->
<!-- a3 -->
<g id="node5" class="node">
<title>a3</title>
<polygon fill="none" stroke="black" points="390,-468 336,-468 336,-432 390,-432 390,-468"/>
<text text-anchor="middle" x="363" y="-446.3" font-family="Times New Roman,serif" font-size="14.00">heap</text>
</g>
<!-- a2&#45;&gt;a3 -->
<!-- a4 -->
<g id="node6" class="node">
<title>a4</title>
<polygon fill="none" stroke="black" points="410.5,-396 315.5,-396 315.5,-360 410.5,-360 410.5,-396"/>
<text text-anchor="middle" x="363" y="-374.3" font-family="Times New Roman,serif" font-size="14.00">priority&#45;queue</text>
</g>
<!-- a3&#45;&gt;a4 -->
<!-- a5 -->
<g id="node7" class="node">
<title>a5</title>
<polygon fill="none" stroke="black" points="390,-324 336,-324 336,-288 390,-288 390,-324"/>
<text text-anchor="middle" x="363" y="-302.3" font-family="Times New Roman,serif" font-size="14.00">list</text>
</g>
<!-- a4&#45;&gt;a5 -->
<!-- a6 -->
<g id="node8" class="node">
<title>a6</title>
<polygon fill="none" stroke="black" points="390,-252 336,-252 336,-216 390,-216 390,-252"/>
<text text-anchor="middle" x="363" y="-230.3" font-family="Times New Roman,serif" font-size="14.00">slist</text>
</g>
<!-- a5&#45;&gt;a6 -->
<!-- a7 -->
<g id="node9" class="node">
<title>a7</title>
<polygon fill="none" stroke="black" points="390,-180 336,-180 336,-144 390,-144 390,-180"/>
<text text-anchor="middle" x="363" y="-158.3" font-family="Times New Roman,serif" font-size="14.00">deque</text>
</g>
<!-- a6&#45;&gt;a7 -->
<!-- a8 -->
<g id="node10" class="node">
<title>a8</title>
<polygon fill="none" stroke="black" points="390,-108 336,-108 336,-72 390,-72 390,-108"/>
<text text-anchor="middle" x="363" y="-86.3" font-family="Times New Roman,serif" font-size="14.00">stack</text>
</g>
<!-- a7&#45;&gt;a8 -->
<!-- a9 -->
<g id="node11" class="node">
<title>a9</title>
<polygon fill="none" stroke="black" points="390,-36 336,-36 336,0 390,0 390,-36"/>
<text text-anchor="middle" x="363" y="-14.3" font-family="Times New Roman,serif" font-size="14.00">queue</text>
</g>
<!-- a8&#45;&gt;a9 -->
</g>
</svg>
