<?xml version="1.0" encoding="UTF-8" standalone="no"?>
<!DOCTYPE svg PUBLIC "-//W3C//DTD SVG 1.1//EN"
 "http://www.w3.org/Graphics/SVG/1.1/DTD/svg11.dtd">
<!-- Generated by graphviz version 2.47.1 (20210417.1919)
 -->
<!-- Title: test Pages: 1 -->
<svg width="251pt" height="155pt"
 viewBox="0.00 0.00 251.00 155.00" xmlns="http://www.w3.org/2000/svg" xmlns:xlink="http://www.w3.org/1999/xlink">
<g id="graph0" class="graph" transform="scale(1 1) rotate(0) translate(4 151)">
<title>test</title>
<!-- a -->
<g id="node1" class="node">
<title>a</title>
<polygon fill="none" stroke="black" points="0,-55.5 0,-91.5 79,-91.5 79,-55.5 0,-55.5"/>
<text text-anchor="middle" x="39.5" y="-69.8" font-family="Times New Roman,serif" font-size="14.00">&lt;memory&gt;</text>
</g>
<!-- b -->
<g id="node2" class="node">
<title>b</title>
<polygon fill="none" stroke="black" points="121,-110.5 121,-146.5 237,-146.5 237,-110.5 121,-110.5"/>
<text text-anchor="middle" x="179" y="-124.8" font-family="Times New Roman,serif" font-size="14.00">&lt;stl_construct.h&gt;</text>
</g>
<!-- a&#45;&gt;b -->
<g id="edge1" class="edge">
<title>a:e&#45;&gt;b:w</title>
<path fill="none" stroke="black" stroke-dasharray="5,2" d="M79,-73.5C105.44,-73.5 93.93,-114.86 110.29,-125.85"/>
<polygon fill="black" stroke="black" points="109.43,-129.24 120,-128.5 111.28,-122.49 109.43,-129.24"/>
</g>
<!-- c -->
<g id="node3" class="node">
<title>c</title>
<polygon fill="none" stroke="black" points="135.5,-55.5 135.5,-91.5 222.5,-91.5 222.5,-55.5 135.5,-55.5"/>
<text text-anchor="middle" x="179" y="-69.8" font-family="Times New Roman,serif" font-size="14.00">&lt;stl_aloc.h&gt;</text>
</g>
<!-- a&#45;&gt;c -->
<g id="edge2" class="edge">
<title>a:e&#45;&gt;c:w</title>
<path fill="none" stroke="black" stroke-dasharray="5,2" d="M79,-73.5C99.62,-73.5 107.2,-73.5 123.74,-73.5"/>
<polygon fill="black" stroke="black" points="124,-77 134,-73.5 124,-70 124,-77"/>
</g>
<!-- d -->
<g id="node4" class="node">
<title>d</title>
<polygon fill="none" stroke="black" points="115,-0.5 115,-36.5 243,-36.5 243,-0.5 115,-0.5"/>
<text text-anchor="middle" x="179" y="-14.8" font-family="Times New Roman,serif" font-size="14.00">&lt;stl_uninitialized.h&gt;</text>
</g>
<!-- a&#45;&gt;d -->
<g id="edge3" class="edge">
<title>a:e&#45;&gt;d:w</title>
<path fill="none" stroke="black" stroke-dasharray="5,2" d="M79,-73.5C103.88,-73.5 91.31,-33.62 105.07,-21.78"/>
<polygon fill="black" stroke="black" points="106.6,-24.96 115,-18.5 104.41,-18.31 106.6,-24.96"/>
</g>
</g>
</svg>
