<?xml version="1.0" encoding="UTF-8" standalone="no"?>
<!DOCTYPE svg PUBLIC "-//W3C//DTD SVG 1.1//EN"
 "http://www.w3.org/Graphics/SVG/1.1/DTD/svg11.dtd">
<!-- Generated by graphviz version 2.47.1 (20210417.1919)
 -->
<!-- Pages: 1 -->
<svg width="257pt" height="174pt"
 viewBox="0.00 0.00 257.00 174.00" xmlns="http://www.w3.org/2000/svg" xmlns:xlink="http://www.w3.org/1999/xlink">
<g id="graph0" class="graph" transform="scale(1 1) rotate(0) translate(4 170)">
<polygon fill="white" stroke="transparent" points="-4,4 -4,-170 253,-170 253,4 -4,4"/>
<g id="clust1" class="cluster">
<title>cluster_0</title>
<polygon fill="none" stroke="black" points="8,-8 8,-158 150,-158 150,-8 8,-8"/>
<text text-anchor="middle" x="79" y="-142.8" font-family="Times New Roman,serif" font-size="14.00">Subgraph A</text>
</g>
<g id="clust2" class="cluster">
<title>cluster_1</title>
<polygon fill="none" stroke="black" points="158,-8 158,-83 241,-83 241,-8 158,-8"/>
<text text-anchor="middle" x="199.5" y="-67.8" font-family="Times New Roman,serif" font-size="14.00">Subgraph B</text>
</g>
<!-- a -->
<g id="node1" class="node">
<title>a</title>
<ellipse fill="none" stroke="black" cx="115" cy="-109" rx="27" ry="18"/>
<text text-anchor="middle" x="115" y="-105.3" font-family="Times New Roman,serif" font-size="14.00">a</text>
</g>
<!-- c -->
<g id="node2" class="node">
<title>c</title>
<ellipse fill="none" stroke="black" cx="115" cy="-34" rx="27" ry="18"/>
<text text-anchor="middle" x="115" y="-30.3" font-family="Times New Roman,serif" font-size="14.00">c</text>
</g>
<!-- a&#45;&gt;c -->
<g id="edge1" class="edge">
<title>a&#45;&gt;c</title>
<path fill="none" stroke="black" d="M115,-90.7C115,-82.25 115,-71.87 115,-62.37"/>
<polygon fill="black" stroke="black" points="118.5,-62.18 115,-52.18 111.5,-62.18 118.5,-62.18"/>
</g>
<!-- f -->
<g id="node4" class="node">
<title>f</title>
<ellipse fill="none" stroke="black" cx="193" cy="-34" rx="27" ry="18"/>
<text text-anchor="middle" x="193" y="-30.3" font-family="Times New Roman,serif" font-size="14.00">f</text>
</g>
<!-- a&#45;&gt;f -->
<g id="edge3" class="edge">
<title>a&#45;&gt;f</title>
<path fill="none" stroke="black" d="M135.31,-96.69C141.61,-92.75 148.36,-88.04 154,-83 161.96,-75.88 169.62,-67.05 176.02,-58.91"/>
<polygon fill="black" stroke="black" points="178.93,-60.87 182.18,-50.78 173.35,-56.64 178.93,-60.87"/>
</g>
<!-- b -->
<g id="node3" class="node">
<title>b</title>
<ellipse fill="none" stroke="black" cx="43" cy="-109" rx="27" ry="18"/>
<text text-anchor="middle" x="43" y="-105.3" font-family="Times New Roman,serif" font-size="14.00">b</text>
</g>
<!-- b&#45;&gt;c -->
<g id="edge2" class="edge">
<title>b&#45;&gt;c</title>
<path fill="none" stroke="black" d="M57.22,-93.58C67.58,-83.08 81.78,-68.68 93.52,-56.78"/>
<polygon fill="black" stroke="black" points="96.27,-58.97 100.8,-49.39 91.29,-54.05 96.27,-58.97"/>
</g>
<!-- f&#45;&gt;c -->
<g id="edge4" class="edge">
<title>f&#45;&gt;c</title>
<path fill="none" stroke="black" d="M165.97,-34C161.37,-34 156.78,-34 152.18,-34"/>
<polygon fill="black" stroke="black" points="152.12,-30.5 142.12,-34 152.12,-37.5 152.12,-30.5"/>
</g>
</g>
</svg>
