<?xml version="1.0" encoding="UTF-8" standalone="no"?>
<!DOCTYPE svg PUBLIC "-//W3C//DTD SVG 1.1//EN"
 "http://www.w3.org/Graphics/SVG/1.1/DTD/svg11.dtd">
<!-- Generated by graphviz version 2.47.1 (20210417.1919)
 -->
<!-- Title: test Pages: 1 -->
<svg width="306pt" height="766pt"
 viewBox="0.00 0.00 305.50 766.00" xmlns="http://www.w3.org/2000/svg" xmlns:xlink="http://www.w3.org/1999/xlink">
<g id="graph0" class="graph" transform="scale(1 1) rotate(0) translate(4 762)">
<title>test</title>
<!-- a0 -->
<g id="node1" class="node">
<title>a0</title>
<text text-anchor="middle" x="67" y="-742.8" font-family="Times New Roman,serif" font-size="14.00">序列式容器</text>
<text text-anchor="middle" x="67" y="-727.8" font-family="Times New Roman,serif" font-size="14.00">Sequence Containers</text>
</g>
<!-- a1 -->
<g id="node3" class="node">
<title>a1</title>
<polygon fill="none" stroke="black" points="104,-684 30,-684 30,-648 104,-648 104,-684"/>
<text text-anchor="middle" x="67" y="-663.5" font-family="Times New Roman,serif" font-size="10.00">Array(built&#45;in)</text>
</g>
<!-- a0&#45;&gt;a1 -->
<!-- b0 -->
<g id="node2" class="node">
<title>b0</title>
<text text-anchor="middle" x="225" y="-742.8" font-family="Times New Roman,serif" font-size="14.00">关联式容器</text>
<text text-anchor="middle" x="225" y="-727.8" font-family="Times New Roman,serif" font-size="14.00">Associative Containers</text>
</g>
<!-- b1 -->
<g id="node12" class="node">
<title>b1</title>
<polygon fill="none" stroke="black" points="252,-684 198,-684 198,-648 252,-648 252,-684"/>
<text text-anchor="middle" x="225" y="-663.5" font-family="Times New Roman,serif" font-size="10.00">RB&#45;tree</text>
</g>
<!-- b0&#45;&gt;b1 -->
<!-- a2 -->
<g id="node4" class="node">
<title>a2</title>
<polygon fill="none" stroke="black" points="94,-612 40,-612 40,-576 94,-576 94,-612"/>
<text text-anchor="middle" x="67" y="-591.5" font-family="Times New Roman,serif" font-size="10.00">Vector</text>
</g>
<!-- a1&#45;&gt;a2 -->
<!-- a3 -->
<g id="node5" class="node">
<title>a3</title>
<polygon fill="none" stroke="black" points="94,-540 40,-540 40,-504 94,-504 94,-540"/>
<text text-anchor="middle" x="67" y="-519.5" font-family="Times New Roman,serif" font-size="10.00">heap</text>
</g>
<!-- a2&#45;&gt;a3 -->
<!-- a4 -->
<g id="node6" class="node">
<title>a4</title>
<polygon fill="none" stroke="black" points="104,-468 30,-468 30,-432 104,-432 104,-468"/>
<text text-anchor="middle" x="67" y="-447.5" font-family="Times New Roman,serif" font-size="10.00">priority&#45;queue</text>
</g>
<!-- a3&#45;&gt;a4 -->
<!-- a5 -->
<g id="node7" class="node">
<title>a5</title>
<polygon fill="none" stroke="black" points="94,-396 40,-396 40,-360 94,-360 94,-396"/>
<text text-anchor="middle" x="67" y="-375.5" font-family="Times New Roman,serif" font-size="10.00">list</text>
</g>
<!-- a4&#45;&gt;a5 -->
<!-- a6 -->
<g id="node8" class="node">
<title>a6</title>
<polygon fill="none" stroke="black" points="94,-324 40,-324 40,-288 94,-288 94,-324"/>
<text text-anchor="middle" x="67" y="-303.5" font-family="Times New Roman,serif" font-size="10.00">slist</text>
</g>
<!-- a5&#45;&gt;a6 -->
<!-- a7 -->
<g id="node9" class="node">
<title>a7</title>
<polygon fill="none" stroke="black" points="94,-252 40,-252 40,-216 94,-216 94,-252"/>
<text text-anchor="middle" x="67" y="-231.5" font-family="Times New Roman,serif" font-size="10.00">deque</text>
</g>
<!-- a6&#45;&gt;a7 -->
<!-- a8 -->
<g id="node10" class="node">
<title>a8</title>
<polygon fill="none" stroke="black" points="94,-180 40,-180 40,-144 94,-144 94,-180"/>
<text text-anchor="middle" x="67" y="-159.5" font-family="Times New Roman,serif" font-size="10.00">stack</text>
</g>
<!-- a7&#45;&gt;a8 -->
<!-- a9 -->
<g id="node11" class="node">
<title>a9</title>
<polygon fill="none" stroke="black" points="94,-108 40,-108 40,-72 94,-72 94,-108"/>
<text text-anchor="middle" x="67" y="-87.5" font-family="Times New Roman,serif" font-size="10.00">queue</text>
</g>
<!-- a8&#45;&gt;a9 -->
<!-- b2 -->
<g id="node13" class="node">
<title>b2</title>
<polygon fill="none" stroke="black" points="252,-612 198,-612 198,-576 252,-576 252,-612"/>
<text text-anchor="middle" x="225" y="-591.5" font-family="Times New Roman,serif" font-size="10.00">set</text>
</g>
<!-- b1&#45;&gt;b2 -->
<!-- b3 -->
<g id="node14" class="node">
<title>b3</title>
<polygon fill="none" stroke="black" points="252,-540 198,-540 198,-504 252,-504 252,-540"/>
<text text-anchor="middle" x="225" y="-519.5" font-family="Times New Roman,serif" font-size="10.00">map</text>
</g>
<!-- b2&#45;&gt;b3 -->
<!-- b4 -->
<g id="node15" class="node">
<title>b4</title>
<polygon fill="none" stroke="black" points="252,-468 198,-468 198,-432 252,-432 252,-468"/>
<text text-anchor="middle" x="225" y="-447.5" font-family="Times New Roman,serif" font-size="10.00">multiset</text>
</g>
<!-- b3&#45;&gt;b4 -->
<!-- b5 -->
<g id="node16" class="node">
<title>b5</title>
<polygon fill="none" stroke="black" points="252,-396 198,-396 198,-360 252,-360 252,-396"/>
<text text-anchor="middle" x="225" y="-375.5" font-family="Times New Roman,serif" font-size="10.00">multimap</text>
</g>
<!-- b4&#45;&gt;b5 -->
<!-- b6 -->
<g id="node17" class="node">
<title>b6</title>
<polygon fill="none" stroke="black" points="253,-324 197,-324 197,-288 253,-288 253,-324"/>
<text text-anchor="middle" x="225" y="-303.5" font-family="Times New Roman,serif" font-size="10.00">hashtable</text>
</g>
<!-- b5&#45;&gt;b6 -->
<!-- b7 -->
<g id="node18" class="node">
<title>b7</title>
<polygon fill="none" stroke="black" points="252,-252 198,-252 198,-216 252,-216 252,-252"/>
<text text-anchor="middle" x="225" y="-231.5" font-family="Times New Roman,serif" font-size="10.00">hash_set</text>
</g>
<!-- b6&#45;&gt;b7 -->
<!-- b8 -->
<g id="node19" class="node">
<title>b8</title>
<polygon fill="none" stroke="black" points="254,-180 196,-180 196,-144 254,-144 254,-180"/>
<text text-anchor="middle" x="225" y="-159.5" font-family="Times New Roman,serif" font-size="10.00">hash_map</text>
</g>
<!-- b7&#45;&gt;b8 -->
<!-- b9 -->
<g id="node20" class="node">
<title>b9</title>
<polygon fill="none" stroke="black" points="261.5,-108 188.5,-108 188.5,-72 261.5,-72 261.5,-108"/>
<text text-anchor="middle" x="225" y="-87.5" font-family="Times New Roman,serif" font-size="10.00">hash_multiset</text>
</g>
<!-- b8&#45;&gt;b9 -->
<!-- b10 -->
<g id="node21" class="node">
<title>b10</title>
<polygon fill="none" stroke="black" points="263.5,-36 186.5,-36 186.5,0 263.5,0 263.5,-36"/>
<text text-anchor="middle" x="225" y="-15.5" font-family="Times New Roman,serif" font-size="10.00">hash_multimap</text>
</g>
<!-- b9&#45;&gt;b10 -->
</g>
</svg>
