<?xml version="1.0" encoding="UTF-8" standalone="no"?>
<!DOCTYPE svg PUBLIC "-//W3C//DTD SVG 1.1//EN"
 "http://www.w3.org/Graphics/SVG/1.1/DTD/svg11.dtd">
<!-- Generated by graphviz version 2.47.1 (20210417.1919)
 -->
<!-- Title: test Pages: 1 -->
<svg width="248pt" height="292pt"
 viewBox="0.00 0.00 248.00 292.00" xmlns="http://www.w3.org/2000/svg" xmlns:xlink="http://www.w3.org/1999/xlink">
<g id="graph0" class="graph" transform="scale(1 1) rotate(0) translate(4 288)">
<title>test</title>
<g id="clust1" class="cluster">
<title>cluster_0</title>
<polygon fill="transparent" stroke="black" points="8,-8 8,-276 232,-276 232,-8 8,-8"/>
</g>
<!-- a -->
<g id="node1" class="node">
<title>a</title>
<polygon fill="none" stroke="black" points="224,-268 134,-268 134,-232 224,-232 224,-268"/>
<text text-anchor="middle" x="179" y="-246.3" font-family="Times New Roman,serif" font-size="14.00">Input Iterator</text>
</g>
<!-- c -->
<g id="node3" class="node">
<title>c</title>
<polygon fill="none" stroke="black" points="174.5,-196 65.5,-196 65.5,-160 174.5,-160 174.5,-196"/>
<text text-anchor="middle" x="120" y="-174.3" font-family="Times New Roman,serif" font-size="14.00">Forward Iterator</text>
</g>
<!-- a&#45;&gt;c -->
<g id="edge1" class="edge">
<title>a:s&#45;&gt;c</title>
<path fill="none" stroke="black" d="M179,-232C179,-232 162.19,-216.9 146.52,-202.82"/>
<polygon fill="black" stroke="black" points="148.77,-200.14 138.99,-196.06 144.09,-205.35 148.77,-200.14"/>
</g>
<!-- b -->
<g id="node2" class="node">
<title>b</title>
<polygon fill="none" stroke="black" points="116,-268 16,-268 16,-232 116,-232 116,-268"/>
<text text-anchor="middle" x="66" y="-246.3" font-family="Times New Roman,serif" font-size="14.00">Output Iterator</text>
</g>
<!-- b&#45;&gt;c -->
<g id="edge2" class="edge">
<title>b:s&#45;&gt;c</title>
<path fill="none" stroke="black" d="M66,-232C66,-232 81.11,-217.17 95.34,-203.2"/>
<polygon fill="black" stroke="black" points="97.93,-205.56 102.62,-196.06 93.03,-200.57 97.93,-205.56"/>
</g>
<!-- d -->
<g id="node4" class="node">
<title>d</title>
<polygon fill="none" stroke="black" points="185.5,-124 54.5,-124 54.5,-88 185.5,-88 185.5,-124"/>
<text text-anchor="middle" x="120" y="-102.3" font-family="Times New Roman,serif" font-size="14.00">Bidirectional Iterator</text>
</g>
<!-- c&#45;&gt;d -->
<g id="edge3" class="edge">
<title>c:s&#45;&gt;d:n</title>
<path fill="none" stroke="black" d="M120,-160C120,-160 120,-144.86 120,-134.22"/>
<polygon fill="black" stroke="black" points="123.5,-134 120,-124 116.5,-134 123.5,-134"/>
</g>
<!-- e -->
<g id="node5" class="node">
<title>e</title>
<polygon fill="none" stroke="black" points="197,-52 43,-52 43,-16 197,-16 197,-52"/>
<text text-anchor="middle" x="120" y="-30.3" font-family="Times New Roman,serif" font-size="14.00">Random Access Iterator</text>
</g>
<!-- d&#45;&gt;e -->
<g id="edge4" class="edge">
<title>d:s&#45;&gt;e:n</title>
<path fill="none" stroke="black" d="M120,-88C120,-88 120,-72.86 120,-62.22"/>
<polygon fill="black" stroke="black" points="123.5,-62 120,-52 116.5,-62 123.5,-62"/>
</g>
</g>
</svg>
