<?xml version="1.0" encoding="UTF-8" standalone="no"?>
<!DOCTYPE svg PUBLIC "-//W3C//DTD SVG 1.1//EN"
 "http://www.w3.org/Graphics/SVG/1.1/DTD/svg11.dtd">
<!-- Generated by graphviz version 2.47.1 (20210417.1919)
 -->
<!-- Title: test Pages: 1 -->
<svg width="260pt" height="163pt"
 viewBox="0.00 0.00 259.90 163.00" xmlns="http://www.w3.org/2000/svg" xmlns:xlink="http://www.w3.org/1999/xlink">
<g id="graph0" class="graph" transform="scale(1 1) rotate(0) translate(4 159)">
<title>test</title>
<!-- a -->
<g id="node1" class="node">
<title>a</title>
<polygon fill="none" stroke="black" points="0.9,-118.5 0.9,-154.5 71.9,-154.5 71.9,-118.5 0.9,-118.5"/>
<text text-anchor="middle" x="36.4" y="-132.8" font-family="Times New Roman,serif" font-size="14.00">&lt;memory</text>
</g>
<!-- c -->
<g id="node3" class="node">
<title>c</title>
<polygon fill="none" stroke="black" points="107.9,-55.5 107.9,-91.5 161.9,-91.5 161.9,-55.5 107.9,-55.5"/>
<text text-anchor="middle" x="134.9" y="-69.8" font-family="Times New Roman,serif" font-size="14.00">c</text>
</g>
<!-- a&#45;&gt;c -->
<g id="edge1" class="edge">
<title>a:sw&#45;&gt;c:nw</title>
<path fill="none" stroke="black" stroke-dasharray="5,2" d="M1.4,-118.5C-4.19,-112.92 64.34,-111.8 71.9,-109.5 85.27,-105.43 92,-104.45 100.33,-98.19"/>
<polygon fill="black" stroke="black" points="102.73,-100.75 107.9,-91.5 98.09,-95.5 102.73,-100.75"/>
</g>
<!-- b -->
<g id="node2" class="node">
<title>b</title>
<polygon fill="none" stroke="black" points="9.4,-63.5 9.4,-99.5 63.4,-99.5 63.4,-63.5 9.4,-63.5"/>
<text text-anchor="middle" x="36.4" y="-77.8" font-family="Times New Roman,serif" font-size="14.00">b</text>
</g>
<!-- b&#45;&gt;c -->
<g id="edge2" class="edge">
<title>b:se&#45;&gt;c:ne</title>
<path fill="none" stroke="black" stroke-dasharray="5,2" d="M64.4,-63.5C70.38,-57.52 127.25,-81.22 151,-89.61"/>
<polygon fill="black" stroke="black" points="150.42,-93.06 160.9,-91.5 151.73,-86.19 150.42,-93.06"/>
</g>
<!-- e -->
<g id="node5" class="node">
<title>e</title>
<polygon fill="none" stroke="black" points="197.9,-27.5 197.9,-63.5 251.9,-63.5 251.9,-27.5 197.9,-27.5"/>
<text text-anchor="middle" x="224.9" y="-41.8" font-family="Times New Roman,serif" font-size="14.00">e</text>
</g>
<!-- c&#45;&gt;e -->
<g id="edge3" class="edge">
<title>c&#45;&gt;e</title>
<path fill="none" stroke="black" stroke-dasharray="5,2" d="M162.3,-65.1C170.46,-62.5 179.6,-59.59 188.28,-56.83"/>
<polygon fill="black" stroke="black" points="189.35,-60.17 197.81,-53.8 187.22,-53.5 189.35,-60.17"/>
</g>
<!-- d -->
<g id="node4" class="node">
<title>d</title>
<polygon fill="none" stroke="black" points="107.9,-0.5 107.9,-36.5 161.9,-36.5 161.9,-0.5 107.9,-0.5"/>
<text text-anchor="middle" x="134.9" y="-14.8" font-family="Times New Roman,serif" font-size="14.00">d</text>
</g>
<!-- d&#45;&gt;e -->
<g id="edge4" class="edge">
<title>d&#45;&gt;e</title>
<path fill="none" stroke="red" stroke-dasharray="5,2" d="M162.3,-26.6C170.38,-29.08 179.4,-31.85 188,-34.49"/>
<polygon fill="red" stroke="red" points="187.23,-37.91 197.81,-37.5 189.28,-31.22 187.23,-37.91"/>
</g>
</g>
</svg>
