<?xml version="1.0" encoding="UTF-8" standalone="no"?>
<!DOCTYPE svg PUBLIC "-//W3C//DTD SVG 1.1//EN"
 "http://www.w3.org/Graphics/SVG/1.1/DTD/svg11.dtd">
<!-- Generated by graphviz version 2.47.1 (20210417.1919)
 -->
<!-- Title: test Pages: 1 -->
<svg width="287pt" height="244pt"
 viewBox="0.00 0.00 287.00 244.00" xmlns="http://www.w3.org/2000/svg" xmlns:xlink="http://www.w3.org/1999/xlink">
<g id="graph0" class="graph" transform="scale(1 1) rotate(0) translate(4 240)">
<title>test</title>
<polygon fill="white" stroke="transparent" points="-4,4 -4,-240 283,-240 283,4 -4,4"/>
<!-- abc -->
<g id="node1" class="node">
<title>abc</title>
<polygon fill="lightgray" stroke="transparent" points="1.5,-196 1.5,-235 74.5,-235 74.5,-196 1.5,-196"/>
<text text-anchor="start" x="20.5" y="-211.8" font-family="Times New Roman,serif" font-size="14.00">类型</text>
<polygon fill="lightgray" stroke="transparent" points="74.5,-196 74.5,-235 184.5,-235 184.5,-196 74.5,-196"/>
<text text-anchor="start" x="112" y="-211.8" font-family="Times New Roman,serif" font-size="14.00">含义</text>
<polygon fill="lightgray" stroke="transparent" points="184.5,-196 184.5,-235 278.5,-235 278.5,-196 184.5,-196"/>
<text text-anchor="start" x="196.5" y="-211.8" font-family="Times New Roman,serif" font-size="14.00">最小尺寸</text>
<text text-anchor="start" x="25" y="-172.8" font-family="Times New Roman,serif" font-size="14.00">bool</text>
<text text-anchor="start" x="94.5" y="-172.8" font-family="Times New Roman,serif" font-size="14.00">布尔类型</text>
<text text-anchor="start" x="205.5" y="-172.8" font-family="Times New Roman,serif" font-size="14.00">未定义</text>
<text text-anchor="start" x="25.5" y="-133.8" font-family="Times New Roman,serif" font-size="14.00">char</text>
<text text-anchor="start" x="112" y="-133.8" font-family="Times New Roman,serif" font-size="14.00">字符</text>
<text text-anchor="start" x="217.5" y="-133.8" font-family="Times New Roman,serif" font-size="14.00">8 位</text>
<text text-anchor="start" x="15" y="-94.8" font-family="Times New Roman,serif" font-size="14.00">wchar_t</text>
<text text-anchor="start" x="103.5" y="-94.8" font-family="Times New Roman,serif" font-size="14.00">宽字符</text>
<text text-anchor="start" x="214" y="-94.8" font-family="Times New Roman,serif" font-size="14.00">16 位</text>
<text text-anchor="start" x="13.5" y="-55.8" font-family="Times New Roman,serif" font-size="14.00">char16_t</text>
<text text-anchor="start" x="86.5" y="-55.8" font-family="Times New Roman,serif" font-size="14.00">Unicode 字符</text>
<text text-anchor="start" x="214" y="-55.8" font-family="Times New Roman,serif" font-size="14.00">16 位</text>
<text text-anchor="start" x="13.5" y="-16.8" font-family="Times New Roman,serif" font-size="14.00">char32_t</text>
<text text-anchor="start" x="86.5" y="-16.8" font-family="Times New Roman,serif" font-size="14.00">Unicode 字符</text>
<text text-anchor="start" x="214" y="-16.8" font-family="Times New Roman,serif" font-size="14.00">32 位</text>
<polygon fill="none" stroke="black" points="0,0 0,-236 279,-236 279,0 0,0"/>
</g>
</g>
</svg>
