<?xml version="1.0" encoding="UTF-8" standalone="no"?>
<!DOCTYPE svg PUBLIC "-//W3C//DTD SVG 1.1//EN"
 "http://www.w3.org/Graphics/SVG/1.1/DTD/svg11.dtd">
<!-- Generated by graphviz version 2.47.1 (20210417.1919)
 -->
<!-- Title: test Pages: 1 -->
<svg width="394pt" height="165pt"
 viewBox="0.00 0.00 394.00 165.00" xmlns="http://www.w3.org/2000/svg" xmlns:xlink="http://www.w3.org/1999/xlink">
<g id="graph0" class="graph" transform="scale(1 1) rotate(0) translate(4 161)">
<title>test</title>
<polygon fill="white" stroke="transparent" points="-4,4 -4,-161 390,-161 390,4 -4,4"/>
<!-- abc -->
<g id="node1" class="node">
<title>abc</title>
<polygon fill="lightgray" stroke="transparent" points="1,-124.5 1,-155.5 52,-155.5 52,-124.5 1,-124.5"/>
<text text-anchor="start" x="9" y="-136.3" font-family="Times New Roman,serif" font-size="14.00">前缀</text>
<polygon fill="lightgray" stroke="transparent" points="52,-124.5 52,-155.5 314,-155.5 314,-124.5 52,-124.5"/>
<text text-anchor="start" x="165.5" y="-136.3" font-family="Times New Roman,serif" font-size="14.00">含义</text>
<polygon fill="lightgray" stroke="transparent" points="314,-124.5 314,-155.5 385,-155.5 385,-124.5 314,-124.5"/>
<text text-anchor="start" x="332" y="-136.3" font-family="Times New Roman,serif" font-size="14.00">类型</text>
<text text-anchor="start" x="23" y="-105.3" font-family="Times New Roman,serif" font-size="14.00">u</text>
<text text-anchor="start" x="131.5" y="-105.3" font-family="Times New Roman,serif" font-size="14.00">Unicode 16 字符</text>
<text text-anchor="start" x="326.5" y="-105.3" font-family="Times New Roman,serif" font-size="14.00">char_16</text>
<text text-anchor="start" x="21.5" y="-74.3" font-family="Times New Roman,serif" font-size="14.00">U</text>
<text text-anchor="start" x="131.5" y="-74.3" font-family="Times New Roman,serif" font-size="14.00">Unicode 32 字符</text>
<text text-anchor="start" x="326.5" y="-74.3" font-family="Times New Roman,serif" font-size="14.00">char_32</text>
<text text-anchor="start" x="22" y="-43.3" font-family="Times New Roman,serif" font-size="14.00">L</text>
<text text-anchor="start" x="157" y="-43.3" font-family="Times New Roman,serif" font-size="14.00">宽字符</text>
<text text-anchor="start" x="322" y="-43.3" font-family="Times New Roman,serif" font-size="14.00">wchar_16</text>
<text text-anchor="start" x="19.5" y="-12.3" font-family="Times New Roman,serif" font-size="14.00">u8</text>
<text text-anchor="start" x="60" y="-12.3" font-family="Times New Roman,serif" font-size="14.00">UTF&#45;8（仅用于字符串字面常量）</text>
<text text-anchor="start" x="337" y="-12.3" font-family="Times New Roman,serif" font-size="14.00">char</text>
<polygon fill="none" stroke="black" points="0,0 0,-157 386,-157 386,0 0,0"/>
</g>
</g>
</svg>
