<?xml version="1.0" encoding="UTF-8" standalone="no"?>
<!DOCTYPE svg PUBLIC "-//W3C//DTD SVG 1.1//EN"
 "http://www.w3.org/Graphics/SVG/1.1/DTD/svg11.dtd">
<!-- Generated by graphviz version 2.47.1 (20210417.1919)
 -->
<!-- Title: test Pages: 1 -->
<svg width="875pt" height="46pt"
 viewBox="0.00 0.00 875.00 46.00" xmlns="http://www.w3.org/2000/svg" xmlns:xlink="http://www.w3.org/1999/xlink">
<g id="graph0" class="graph" transform="scale(1 1) rotate(0) translate(4 42)">
<title>test</title>
<!-- a0 -->
<g id="node1" class="node">
<title>a0</title>
<text text-anchor="middle" x="67" y="-22.8" font-family="Times New Roman,serif" font-size="14.00">序列式容器</text>
<text text-anchor="middle" x="67" y="-7.8" font-family="Times New Roman,serif" font-size="14.00">Sequence Containers</text>
</g>
<!-- a1 -->
<g id="node2" class="node">
<title>a1</title>
<polygon fill="none" stroke="black" points="247.5,-37 152.5,-37 152.5,-1 247.5,-1 247.5,-37"/>
<text text-anchor="middle" x="200" y="-15.3" font-family="Times New Roman,serif" font-size="14.00">Array(built&#45;in)</text>
</g>
<!-- a2 -->
<g id="node3" class="node">
<title>a2</title>
<polygon fill="none" stroke="black" points="320.5,-37 265.5,-37 265.5,-1 320.5,-1 320.5,-37"/>
<text text-anchor="middle" x="293" y="-15.3" font-family="Times New Roman,serif" font-size="14.00">Vector</text>
</g>
<!-- a3 -->
<g id="node4" class="node">
<title>a3</title>
<polygon fill="none" stroke="black" points="393,-37 339,-37 339,-1 393,-1 393,-37"/>
<text text-anchor="middle" x="366" y="-15.3" font-family="Times New Roman,serif" font-size="14.00">heap</text>
</g>
<!-- a4 -->
<g id="node5" class="node">
<title>a4</title>
<polygon fill="none" stroke="black" points="506.5,-37 411.5,-37 411.5,-1 506.5,-1 506.5,-37"/>
<text text-anchor="middle" x="459" y="-15.3" font-family="Times New Roman,serif" font-size="14.00">priority&#45;queue</text>
</g>
<!-- a5 -->
<g id="node6" class="node">
<title>a5</title>
<polygon fill="none" stroke="black" points="579,-37 525,-37 525,-1 579,-1 579,-37"/>
<text text-anchor="middle" x="552" y="-15.3" font-family="Times New Roman,serif" font-size="14.00">list</text>
</g>
<!-- a6 -->
<g id="node7" class="node">
<title>a6</title>
<polygon fill="none" stroke="black" points="651,-37 597,-37 597,-1 651,-1 651,-37"/>
<text text-anchor="middle" x="624" y="-15.3" font-family="Times New Roman,serif" font-size="14.00">slist</text>
</g>
<!-- a7 -->
<g id="node8" class="node">
<title>a7</title>
<polygon fill="none" stroke="black" points="723,-37 669,-37 669,-1 723,-1 723,-37"/>
<text text-anchor="middle" x="696" y="-15.3" font-family="Times New Roman,serif" font-size="14.00">deque</text>
</g>
<!-- a8 -->
<g id="node9" class="node">
<title>a8</title>
<polygon fill="none" stroke="black" points="795,-37 741,-37 741,-1 795,-1 795,-37"/>
<text text-anchor="middle" x="768" y="-15.3" font-family="Times New Roman,serif" font-size="14.00">stack</text>
</g>
<!-- a9 -->
<g id="node10" class="node">
<title>a9</title>
<polygon fill="none" stroke="black" points="867,-37 813,-37 813,-1 867,-1 867,-37"/>
<text text-anchor="middle" x="840" y="-15.3" font-family="Times New Roman,serif" font-size="14.00">queue</text>
</g>
</g>
</svg>
