<?xml version="1.0" encoding="UTF-8" standalone="no"?>
<!DOCTYPE svg PUBLIC "-//W3C//DTD SVG 1.1//EN"
 "http://www.w3.org/Graphics/SVG/1.1/DTD/svg11.dtd">
<!-- Generated by graphviz version 2.47.1 (20210417.1919)
 -->
<!-- Title: test Pages: 1 -->
<svg width="242pt" height="163pt"
 viewBox="0.00 0.00 242.20 163.00" xmlns="http://www.w3.org/2000/svg" xmlns:xlink="http://www.w3.org/1999/xlink">
<g id="graph0" class="graph" transform="scale(1 1) rotate(0) translate(4 159)">
<title>test</title>
<!-- a -->
<g id="node1" class="node">
<title>a</title>
<polygon fill="none" stroke="black" points="0.2,-118.5 0.2,-154.5 54.2,-154.5 54.2,-118.5 0.2,-118.5"/>
<text text-anchor="middle" x="27.2" y="-132.8" font-family="Times New Roman,serif" font-size="14.00"> </text>
</g>
<!-- c -->
<g id="node3" class="node">
<title>c</title>
<polygon fill="none" stroke="black" points="90.2,-55.5 90.2,-91.5 144.2,-91.5 144.2,-55.5 90.2,-55.5"/>
<text text-anchor="middle" x="117.2" y="-69.8" font-family="Times New Roman,serif" font-size="14.00">c</text>
</g>
<!-- a&#45;&gt;c -->
<g id="edge1" class="edge">
<title>a:sw&#45;&gt;c:nw</title>
<path fill="none" stroke="black" stroke-dasharray="5,2" d="M1.2,-118.5C-7.25,-110.05 42.84,-113.21 54.2,-109.5 67.48,-105.16 74.26,-104.33 82.62,-98.15"/>
<polygon fill="black" stroke="black" points="84.99,-100.73 90.2,-91.5 80.37,-95.47 84.99,-100.73"/>
</g>
<!-- b -->
<g id="node2" class="node">
<title>b</title>
<polygon fill="none" stroke="black" points="0.2,-63.5 0.2,-99.5 54.2,-99.5 54.2,-63.5 0.2,-63.5"/>
<text text-anchor="middle" x="27.2" y="-77.8" font-family="Times New Roman,serif" font-size="14.00">b</text>
</g>
<!-- b&#45;&gt;c -->
<g id="edge2" class="edge">
<title>b:se&#45;&gt;c:ne</title>
<path fill="none" stroke="black" stroke-dasharray="5,2" d="M54.2,-63.5C59.69,-58 111.13,-80.62 133.41,-89.19"/>
<polygon fill="black" stroke="black" points="132.66,-92.6 143.2,-91.5 134.27,-85.79 132.66,-92.6"/>
</g>
<!-- e -->
<g id="node5" class="node">
<title>e</title>
<polygon fill="none" stroke="black" points="180.2,-27.5 180.2,-63.5 234.2,-63.5 234.2,-27.5 180.2,-27.5"/>
<text text-anchor="middle" x="207.2" y="-41.8" font-family="Times New Roman,serif" font-size="14.00">e</text>
</g>
<!-- c&#45;&gt;e -->
<g id="edge3" class="edge">
<title>c&#45;&gt;e</title>
<path fill="none" stroke="black" stroke-dasharray="5,2" d="M144.6,-65.1C152.77,-62.5 161.9,-59.59 170.58,-56.83"/>
<polygon fill="black" stroke="black" points="171.65,-60.17 180.12,-53.8 169.53,-53.5 171.65,-60.17"/>
</g>
<!-- d -->
<g id="node4" class="node">
<title>d</title>
<polygon fill="none" stroke="black" points="90.2,-0.5 90.2,-36.5 144.2,-36.5 144.2,-0.5 90.2,-0.5"/>
<text text-anchor="middle" x="117.2" y="-14.8" font-family="Times New Roman,serif" font-size="14.00">d</text>
</g>
<!-- d&#45;&gt;e -->
<g id="edge4" class="edge">
<title>d&#45;&gt;e</title>
<path fill="none" stroke="red" stroke-dasharray="5,2" d="M144.6,-26.6C152.68,-29.08 161.7,-31.85 170.3,-34.49"/>
<polygon fill="red" stroke="red" points="169.53,-37.91 180.12,-37.5 171.58,-31.22 169.53,-37.91"/>
</g>
</g>
</svg>
