<?xml version="1.0" encoding="UTF-8" standalone="no"?>
<!DOCTYPE svg PUBLIC "-//W3C//DTD SVG 1.1//EN"
 "http://www.w3.org/Graphics/SVG/1.1/DTD/svg11.dtd">
<!-- Generated by graphviz version 2.47.1 (20210417.1919)
 -->
<!-- Title: test Pages: 1 -->
<svg width="216pt" height="260pt"
 viewBox="0.00 0.00 216.00 260.00" xmlns="http://www.w3.org/2000/svg" xmlns:xlink="http://www.w3.org/1999/xlink">
<g id="graph0" class="graph" transform="scale(1 1) rotate(0) translate(4 256)">
<title>test</title>
<!-- a -->
<g id="node1" class="node">
<title>a</title>
<text text-anchor="middle" x="45" y="-230.3" font-family="Times New Roman,serif" font-size="14.00">Input Iterator</text>
</g>
<!-- c -->
<g id="node3" class="node">
<title>c</title>
<text text-anchor="middle" x="101" y="-158.3" font-family="Times New Roman,serif" font-size="14.00">Forward Iterator</text>
</g>
<!-- a&#45;&gt;c -->
<g id="edge1" class="edge">
<title>a:s&#45;&gt;c:n</title>
<path fill="none" stroke="black" d="M45,-216C45,-216 76.5,-195.75 92.25,-185.62"/>
<polygon fill="black" stroke="black" points="94.48,-188.35 101,-180 90.7,-182.46 94.48,-188.35"/>
</g>
<!-- b -->
<g id="node2" class="node">
<title>b</title>
<text text-anchor="middle" x="158" y="-230.3" font-family="Times New Roman,serif" font-size="14.00">Output Iterator</text>
</g>
<!-- b&#45;&gt;c -->
<g id="edge2" class="edge">
<title>b:s&#45;&gt;c:n</title>
<path fill="none" stroke="black" d="M158,-216C158,-216 125.94,-195.75 109.91,-185.62"/>
<polygon fill="black" stroke="black" points="111.32,-182.38 101,-180 107.59,-188.3 111.32,-182.38"/>
</g>
<!-- d -->
<g id="node4" class="node">
<title>d</title>
<text text-anchor="middle" x="101" y="-86.3" font-family="Times New Roman,serif" font-size="14.00">Bidirectional Iterator</text>
</g>
<!-- c&#45;&gt;d -->
<g id="edge3" class="edge">
<title>c:s&#45;&gt;d:n</title>
<path fill="none" stroke="black" d="M101,-144C101,-144 101,-128.86 101,-118.22"/>
<polygon fill="black" stroke="black" points="104.5,-118 101,-108 97.5,-118 104.5,-118"/>
</g>
<!-- e -->
<g id="node5" class="node">
<title>e</title>
<text text-anchor="middle" x="101" y="-14.3" font-family="Times New Roman,serif" font-size="14.00">Random Access Iterator</text>
</g>
<!-- d&#45;&gt;e -->
<g id="edge4" class="edge">
<title>d:s&#45;&gt;e:n</title>
<path fill="none" stroke="black" d="M101,-72C101,-72 101,-56.86 101,-46.22"/>
<polygon fill="black" stroke="black" points="104.5,-46 101,-36 97.5,-46 104.5,-46"/>
</g>
</g>
</svg>
