<?xml version="1.0" encoding="UTF-8" standalone="no"?>
<!DOCTYPE svg PUBLIC "-//W3C//DTD SVG 1.1//EN"
 "http://www.w3.org/Graphics/SVG/1.1/DTD/svg11.dtd">
<!-- Generated by graphviz version 2.47.1 (20210417.1919)
 -->
<!-- Title: test Pages: 1 -->
<svg width="373pt" height="165pt"
 viewBox="0.00 0.00 373.00 165.00" xmlns="http://www.w3.org/2000/svg" xmlns:xlink="http://www.w3.org/1999/xlink">
<g id="graph0" class="graph" transform="scale(1 1) rotate(0) translate(4 161)">
<title>test</title>
<polygon fill="white" stroke="transparent" points="-4,4 -4,-161 369,-161 369,4 -4,4"/>
<!-- abc -->
<g id="node1" class="node">
<title>abc</title>
<polygon fill="lightgray" stroke="transparent" points="1.5,-124.5 1.5,-155.5 49.5,-155.5 49.5,-124.5 1.5,-124.5"/>
<text text-anchor="start" x="9.5" y="-136.3" font-family="Times New Roman,serif" font-size="14.00">前缀</text>
<polygon fill="lightgray" stroke="transparent" points="49.5,-124.5 49.5,-155.5 293.5,-155.5 293.5,-124.5 49.5,-124.5"/>
<text text-anchor="start" x="155.5" y="-136.3" font-family="Times New Roman,serif" font-size="14.00">含义</text>
<polygon fill="lightgray" stroke="transparent" points="293.5,-124.5 293.5,-155.5 364.5,-155.5 364.5,-124.5 293.5,-124.5"/>
<text text-anchor="start" x="313" y="-136.3" font-family="Times New Roman,serif" font-size="14.00">类型</text>
<text text-anchor="start" x="22" y="-105.3" font-family="Times New Roman,serif" font-size="14.00">u</text>
<text text-anchor="start" x="121.5" y="-105.3" font-family="Times New Roman,serif" font-size="14.00">Unicode 16 字符</text>
<text text-anchor="start" x="306" y="-105.3" font-family="Times New Roman,serif" font-size="14.00">char_16</text>
<text text-anchor="start" x="20.5" y="-74.3" font-family="Times New Roman,serif" font-size="14.00">U</text>
<text text-anchor="start" x="121.5" y="-74.3" font-family="Times New Roman,serif" font-size="14.00">Unicode 32 字符</text>
<text text-anchor="start" x="306" y="-74.3" font-family="Times New Roman,serif" font-size="14.00">char_32</text>
<text text-anchor="start" x="21" y="-43.3" font-family="Times New Roman,serif" font-size="14.00">L</text>
<text text-anchor="start" x="147.5" y="-43.3" font-family="Times New Roman,serif" font-size="14.00">宽字符</text>
<text text-anchor="start" x="301.5" y="-43.3" font-family="Times New Roman,serif" font-size="14.00">wchar_16</text>
<text text-anchor="start" x="18.5" y="-12.3" font-family="Times New Roman,serif" font-size="14.00">u8</text>
<text text-anchor="start" x="57.5" y="-12.3" font-family="Times New Roman,serif" font-size="14.00">UTF&#45;8（仅用于字符串字面常量）</text>
<text text-anchor="start" x="316.5" y="-12.3" font-family="Times New Roman,serif" font-size="14.00">char</text>
<polygon fill="none" stroke="black" points="0,0 0,-157 365,-157 365,0 0,0"/>
</g>
</g>
</svg>
