<?xml version="1.0" encoding="UTF-8" standalone="no"?>
<!DOCTYPE svg PUBLIC "-//W3C//DTD SVG 1.1//EN"
 "http://www.w3.org/Graphics/SVG/1.1/DTD/svg11.dtd">
<!-- Generated by graphviz version 2.47.1 (20210417.1919)
 -->
<!-- Title: test Pages: 1 -->
<svg width="290pt" height="400pt"
 viewBox="0.00 0.00 290.00 400.00" xmlns="http://www.w3.org/2000/svg" xmlns:xlink="http://www.w3.org/1999/xlink">
<g id="graph0" class="graph" transform="scale(1 1) rotate(0) translate(4 396)">
<title>test</title>
<polygon fill="white" stroke="transparent" points="-4,4 -4,-396 286,-396 286,4 -4,4"/>
<!-- abc -->
<g id="node1" class="node">
<title>abc</title>
<polygon fill="lightgray" stroke="transparent" points="1,-352 1,-391 77,-391 77,-352 1,-352"/>
<text text-anchor="start" x="21.5" y="-367.8" font-family="Times New Roman,serif" font-size="14.00">类型</text>
<polygon fill="lightgray" stroke="transparent" points="77,-352 77,-391 187,-391 187,-352 77,-352"/>
<text text-anchor="start" x="114.5" y="-367.8" font-family="Times New Roman,serif" font-size="14.00">含义</text>
<polygon fill="lightgray" stroke="transparent" points="187,-352 187,-391 281,-391 281,-352 187,-352"/>
<text text-anchor="start" x="199" y="-367.8" font-family="Times New Roman,serif" font-size="14.00">最小尺寸</text>
<text text-anchor="start" x="26" y="-328.8" font-family="Times New Roman,serif" font-size="14.00">bool</text>
<text text-anchor="start" x="97" y="-328.8" font-family="Times New Roman,serif" font-size="14.00">布尔类型</text>
<text text-anchor="start" x="208" y="-328.8" font-family="Times New Roman,serif" font-size="14.00">未定义</text>
<text text-anchor="start" x="26.5" y="-289.8" font-family="Times New Roman,serif" font-size="14.00">char</text>
<text text-anchor="start" x="114.5" y="-289.8" font-family="Times New Roman,serif" font-size="14.00">字符</text>
<text text-anchor="start" x="220" y="-289.8" font-family="Times New Roman,serif" font-size="14.00">8 位</text>
<text text-anchor="start" x="16" y="-250.8" font-family="Times New Roman,serif" font-size="14.00">wchar_t</text>
<text text-anchor="start" x="106" y="-250.8" font-family="Times New Roman,serif" font-size="14.00">宽字符</text>
<text text-anchor="start" x="216.5" y="-250.8" font-family="Times New Roman,serif" font-size="14.00">16 位</text>
<text text-anchor="start" x="14.5" y="-211.8" font-family="Times New Roman,serif" font-size="14.00">char16_t</text>
<text text-anchor="start" x="89" y="-211.8" font-family="Times New Roman,serif" font-size="14.00">Unicode 字符</text>
<text text-anchor="start" x="216.5" y="-211.8" font-family="Times New Roman,serif" font-size="14.00">16 位</text>
<text text-anchor="start" x="14.5" y="-172.8" font-family="Times New Roman,serif" font-size="14.00">char32_t</text>
<text text-anchor="start" x="89" y="-172.8" font-family="Times New Roman,serif" font-size="14.00">Unicode 字符</text>
<text text-anchor="start" x="216.5" y="-172.8" font-family="Times New Roman,serif" font-size="14.00">32 位</text>
<text text-anchor="start" x="24.5" y="-133.8" font-family="Times New Roman,serif" font-size="14.00">short</text>
<text text-anchor="start" x="106" y="-133.8" font-family="Times New Roman,serif" font-size="14.00">短整型</text>
<text text-anchor="start" x="216.5" y="-133.8" font-family="Times New Roman,serif" font-size="14.00">16 位</text>
<text text-anchor="start" x="32" y="-94.8" font-family="Times New Roman,serif" font-size="14.00">int</text>
<text text-anchor="start" x="114.5" y="-94.8" font-family="Times New Roman,serif" font-size="14.00">整型</text>
<text text-anchor="start" x="216.5" y="-94.8" font-family="Times New Roman,serif" font-size="14.00">16 位</text>
<text text-anchor="start" x="26.5" y="-55.8" font-family="Times New Roman,serif" font-size="14.00">long</text>
<text text-anchor="start" x="106" y="-55.8" font-family="Times New Roman,serif" font-size="14.00">长整型</text>
<text text-anchor="start" x="216.5" y="-55.8" font-family="Times New Roman,serif" font-size="14.00">32 位</text>
<text text-anchor="start" x="13" y="-16.8" font-family="Times New Roman,serif" font-size="14.00">long long</text>
<text text-anchor="start" x="106" y="-16.8" font-family="Times New Roman,serif" font-size="14.00">长整型</text>
<text text-anchor="start" x="216.5" y="-16.8" font-family="Times New Roman,serif" font-size="14.00">64 位</text>
<polygon fill="none" stroke="black" points="0,0 0,-392 282,-392 282,0 0,0"/>
</g>
</g>
</svg>
