<?xml version="1.0" encoding="UTF-8" standalone="no"?>
<!DOCTYPE svg PUBLIC "-//W3C//DTD SVG 1.1//EN"
 "http://www.w3.org/Graphics/SVG/1.1/DTD/svg11.dtd">
<!-- Generated by graphviz version 2.47.1 (20210417.1919)
 -->
<!-- Title: test Pages: 1 -->
<svg width="239pt" height="171pt"
 viewBox="0.00 0.00 239.00 171.00" xmlns="http://www.w3.org/2000/svg" xmlns:xlink="http://www.w3.org/1999/xlink">
<g id="graph0" class="graph" transform="scale(1 1) rotate(0) translate(4 167)">
<title>test</title>
<polygon fill="white" stroke="transparent" points="-4,4 -4,-167 235,-167 235,4 -4,4"/>
<!-- abc -->
<g id="node1" class="node">
<title>abc</title>
<polygon fill="lightgray" stroke="transparent" points="1.5,-138.5 1.5,-161.5 230.5,-161.5 230.5,-138.5 1.5,-138.5"/>
<text text-anchor="start" x="66" y="-146.3" font-family="Times New Roman,serif" font-size="14.00">C++ 算术类型</text>
<text text-anchor="start" x="12.5" y="-123.3" font-family="Times New Roman,serif" font-size="14.00">类型</text>
<text text-anchor="start" x="88" y="-123.3" font-family="Times New Roman,serif" font-size="14.00">含义</text>
<text text-anchor="start" x="156.5" y="-123.3" font-family="Times New Roman,serif" font-size="14.00">最小尺寸</text>
<text text-anchor="start" x="17" y="-100.3" font-family="Times New Roman,serif" font-size="14.00">bool</text>
<text text-anchor="start" x="70.5" y="-100.3" font-family="Times New Roman,serif" font-size="14.00">布尔类型</text>
<text text-anchor="start" x="165.5" y="-100.3" font-family="Times New Roman,serif" font-size="14.00">未定义</text>
<text text-anchor="start" x="17.5" y="-77.3" font-family="Times New Roman,serif" font-size="14.00">char</text>
<text text-anchor="start" x="88" y="-77.3" font-family="Times New Roman,serif" font-size="14.00">字符</text>
<text text-anchor="start" x="177.5" y="-77.3" font-family="Times New Roman,serif" font-size="14.00">8 位</text>
<text text-anchor="start" x="7" y="-54.3" font-family="Times New Roman,serif" font-size="14.00">wchar_t</text>
<text text-anchor="start" x="79.5" y="-54.3" font-family="Times New Roman,serif" font-size="14.00">宽字符</text>
<text text-anchor="start" x="174" y="-54.3" font-family="Times New Roman,serif" font-size="14.00">16 位</text>
<text text-anchor="start" x="5.5" y="-31.3" font-family="Times New Roman,serif" font-size="14.00">char16_t</text>
<text text-anchor="start" x="62.5" y="-31.3" font-family="Times New Roman,serif" font-size="14.00">Unicode 字符</text>
<text text-anchor="start" x="174" y="-31.3" font-family="Times New Roman,serif" font-size="14.00">16 位</text>
<text text-anchor="start" x="5.5" y="-8.3" font-family="Times New Roman,serif" font-size="14.00">char32_t</text>
<text text-anchor="start" x="62.5" y="-8.3" font-family="Times New Roman,serif" font-size="14.00">Unicode 字符</text>
<text text-anchor="start" x="174" y="-8.3" font-family="Times New Roman,serif" font-size="14.00">32 位</text>
<polygon fill="none" stroke="black" points="0,0 0,-163 231,-163 231,0 0,0"/>
</g>
</g>
</svg>
