<?xml version="1.0" encoding="UTF-8" standalone="no"?>
<!DOCTYPE svg PUBLIC "-//W3C//DTD SVG 1.1//EN"
 "http://www.w3.org/Graphics/SVG/1.1/DTD/svg11.dtd">
<!-- Generated by graphviz version 2.47.1 (20210417.1919)
 -->
<!-- Title: test Pages: 1 -->
<svg width="306pt" height="546pt"
 viewBox="0.00 0.00 305.50 546.00" xmlns="http://www.w3.org/2000/svg" xmlns:xlink="http://www.w3.org/1999/xlink">
<g id="graph0" class="graph" transform="scale(1 1) rotate(0) translate(4 542)">
<title>test</title>
<!-- a0 -->
<g id="node1" class="node">
<title>a0</title>
<text text-anchor="middle" x="67" y="-522.8" font-family="Times New Roman,serif" font-size="14.00">序列式容器</text>
<text text-anchor="middle" x="67" y="-507.8" font-family="Times New Roman,serif" font-size="14.00">Sequence Containers</text>
</g>
<!-- a1 -->
<g id="node3" class="node">
<title>a1</title>
<polygon fill="none" stroke="black" points="96,-464 38,-464 38,-450 96,-450 96,-464"/>
<text text-anchor="middle" x="67" y="-454.5" font-family="Times New Roman,serif" font-size="10.00">Array(built&#45;in)</text>
</g>
<!-- a0&#45;&gt;a1 -->
<!-- b0 -->
<g id="node2" class="node">
<title>b0</title>
<text text-anchor="middle" x="225" y="-522.8" font-family="Times New Roman,serif" font-size="14.00">关联式容器</text>
<text text-anchor="middle" x="225" y="-507.8" font-family="Times New Roman,serif" font-size="14.00">Associative Containers</text>
</g>
<!-- b1 -->
<g id="node12" class="node">
<title>b1</title>
<polygon fill="none" stroke="black" points="240.5,-464 209.5,-464 209.5,-450 240.5,-450 240.5,-464"/>
<text text-anchor="middle" x="225" y="-454.5" font-family="Times New Roman,serif" font-size="10.00">RB&#45;tree</text>
</g>
<!-- b0&#45;&gt;b1 -->
<!-- a2 -->
<g id="node4" class="node">
<title>a2</title>
<polygon fill="none" stroke="black" points="80.5,-414 53.5,-414 53.5,-400 80.5,-400 80.5,-414"/>
<text text-anchor="middle" x="67" y="-404.5" font-family="Times New Roman,serif" font-size="10.00">Vector</text>
</g>
<!-- a1&#45;&gt;a2 -->
<!-- a3 -->
<g id="node5" class="node">
<title>a3</title>
<polygon fill="none" stroke="black" points="78,-364 56,-364 56,-350 78,-350 78,-364"/>
<text text-anchor="middle" x="67" y="-354.5" font-family="Times New Roman,serif" font-size="10.00">heap</text>
</g>
<!-- a2&#45;&gt;a3 -->
<!-- a4 -->
<g id="node6" class="node">
<title>a4</title>
<polygon fill="none" stroke="black" points="96,-314 38,-314 38,-300 96,-300 96,-314"/>
<text text-anchor="middle" x="67" y="-304.5" font-family="Times New Roman,serif" font-size="10.00">priority&#45;queue</text>
</g>
<!-- a3&#45;&gt;a4 -->
<!-- a5 -->
<g id="node7" class="node">
<title>a5</title>
<polygon fill="none" stroke="black" points="78,-264 56,-264 56,-250 78,-250 78,-264"/>
<text text-anchor="middle" x="67" y="-254.5" font-family="Times New Roman,serif" font-size="10.00">list</text>
</g>
<!-- a4&#45;&gt;a5 -->
<!-- a6 -->
<g id="node8" class="node">
<title>a6</title>
<polygon fill="none" stroke="black" points="78,-214 56,-214 56,-200 78,-200 78,-214"/>
<text text-anchor="middle" x="67" y="-204.5" font-family="Times New Roman,serif" font-size="10.00">slist</text>
</g>
<!-- a5&#45;&gt;a6 -->
<!-- a7 -->
<g id="node9" class="node">
<title>a7</title>
<polygon fill="none" stroke="black" points="79.5,-164 54.5,-164 54.5,-150 79.5,-150 79.5,-164"/>
<text text-anchor="middle" x="67" y="-154.5" font-family="Times New Roman,serif" font-size="10.00">deque</text>
</g>
<!-- a6&#45;&gt;a7 -->
<!-- a8 -->
<g id="node10" class="node">
<title>a8</title>
<polygon fill="none" stroke="black" points="78,-114 56,-114 56,-100 78,-100 78,-114"/>
<text text-anchor="middle" x="67" y="-104.5" font-family="Times New Roman,serif" font-size="10.00">stack</text>
</g>
<!-- a7&#45;&gt;a8 -->
<!-- a9 -->
<g id="node11" class="node">
<title>a9</title>
<polygon fill="none" stroke="black" points="79.5,-64 54.5,-64 54.5,-50 79.5,-50 79.5,-64"/>
<text text-anchor="middle" x="67" y="-54.5" font-family="Times New Roman,serif" font-size="10.00">queue</text>
</g>
<!-- a8&#45;&gt;a9 -->
<!-- b2 -->
<g id="node13" class="node">
<title>b2</title>
<polygon fill="none" stroke="black" points="236,-414 214,-414 214,-400 236,-400 236,-414"/>
<text text-anchor="middle" x="225" y="-404.5" font-family="Times New Roman,serif" font-size="10.00">set</text>
</g>
<!-- b1&#45;&gt;b2 -->
<!-- b3 -->
<g id="node14" class="node">
<title>b3</title>
<polygon fill="none" stroke="black" points="236,-364 214,-364 214,-350 236,-350 236,-364"/>
<text text-anchor="middle" x="225" y="-354.5" font-family="Times New Roman,serif" font-size="10.00">map</text>
</g>
<!-- b2&#45;&gt;b3 -->
<!-- b4 -->
<g id="node15" class="node">
<title>b4</title>
<polygon fill="none" stroke="black" points="241,-314 209,-314 209,-300 241,-300 241,-314"/>
<text text-anchor="middle" x="225" y="-304.5" font-family="Times New Roman,serif" font-size="10.00">multiset</text>
</g>
<!-- b3&#45;&gt;b4 -->
<!-- b5 -->
<g id="node16" class="node">
<title>b5</title>
<polygon fill="none" stroke="black" points="243.5,-264 206.5,-264 206.5,-250 243.5,-250 243.5,-264"/>
<text text-anchor="middle" x="225" y="-254.5" font-family="Times New Roman,serif" font-size="10.00">multimap</text>
</g>
<!-- b4&#45;&gt;b5 -->
<!-- b6 -->
<g id="node17" class="node">
<title>b6</title>
<polygon fill="none" stroke="black" points="245,-214 205,-214 205,-200 245,-200 245,-214"/>
<text text-anchor="middle" x="225" y="-204.5" font-family="Times New Roman,serif" font-size="10.00">hashtable</text>
</g>
<!-- b5&#45;&gt;b6 -->
<!-- b7 -->
<g id="node18" class="node">
<title>b7</title>
<polygon fill="none" stroke="black" points="243.5,-164 206.5,-164 206.5,-150 243.5,-150 243.5,-164"/>
<text text-anchor="middle" x="225" y="-154.5" font-family="Times New Roman,serif" font-size="10.00">hash_set</text>
</g>
<!-- b6&#45;&gt;b7 -->
<!-- b8 -->
<g id="node19" class="node">
<title>b8</title>
<polygon fill="none" stroke="black" points="246,-114 204,-114 204,-100 246,-100 246,-114"/>
<text text-anchor="middle" x="225" y="-104.5" font-family="Times New Roman,serif" font-size="10.00">hash_map</text>
</g>
<!-- b7&#45;&gt;b8 -->
<!-- b9 -->
<g id="node20" class="node">
<title>b9</title>
<polygon fill="none" stroke="black" points="253.5,-64 196.5,-64 196.5,-50 253.5,-50 253.5,-64"/>
<text text-anchor="middle" x="225" y="-54.5" font-family="Times New Roman,serif" font-size="10.00">hash_multiset</text>
</g>
<!-- b8&#45;&gt;b9 -->
<!-- b10 -->
<g id="node21" class="node">
<title>b10</title>
<polygon fill="none" stroke="black" points="255.5,-14 194.5,-14 194.5,0 255.5,0 255.5,-14"/>
<text text-anchor="middle" x="225" y="-4.5" font-family="Times New Roman,serif" font-size="10.00">hash_multimap</text>
</g>
<!-- b9&#45;&gt;b10 -->
</g>
</svg>
