<?xml version="1.0" encoding="UTF-8" standalone="no"?>
<!DOCTYPE svg PUBLIC "-//W3C//DTD SVG 1.1//EN"
 "http://www.w3.org/Graphics/SVG/1.1/DTD/svg11.dtd">
<!-- Generated by graphviz version 2.47.1 (20210417.1919)
 -->
<!-- Title: test Pages: 1 -->
<svg width="306pt" height="616pt"
 viewBox="0.00 0.00 305.50 616.00" xmlns="http://www.w3.org/2000/svg" xmlns:xlink="http://www.w3.org/1999/xlink">
<g id="graph0" class="graph" transform="scale(1 1) rotate(0) translate(4 612)">
<title>test</title>
<!-- a0 -->
<g id="node1" class="node">
<title>a0</title>
<text text-anchor="middle" x="67" y="-592.8" font-family="Times New Roman,serif" font-size="14.00">序列式容器</text>
<text text-anchor="middle" x="67" y="-577.8" font-family="Times New Roman,serif" font-size="14.00">Sequence Containers</text>
</g>
<!-- a1 -->
<g id="node3" class="node">
<title>a1</title>
<polygon fill="none" stroke="black" points="107.5,-534 26.5,-534 26.5,-513 107.5,-513 107.5,-534"/>
<text text-anchor="middle" x="67" y="-520.4" font-family="Times New Roman,serif" font-size="12.00">Array(built&#45;in)</text>
</g>
<!-- a0&#45;&gt;a1 -->
<!-- b0 -->
<g id="node2" class="node">
<title>b0</title>
<text text-anchor="middle" x="225" y="-592.8" font-family="Times New Roman,serif" font-size="14.00">关联式容器</text>
<text text-anchor="middle" x="225" y="-577.8" font-family="Times New Roman,serif" font-size="14.00">Associative Containers</text>
</g>
<!-- b1 -->
<g id="node12" class="node">
<title>b1</title>
<polygon fill="none" stroke="black" points="251.5,-534 198.5,-534 198.5,-513 251.5,-513 251.5,-534"/>
<text text-anchor="middle" x="225" y="-520.4" font-family="Times New Roman,serif" font-size="12.00">RB&#45;tree</text>
</g>
<!-- b0&#45;&gt;b1 -->
<!-- a2 -->
<g id="node4" class="node">
<title>a2</title>
<polygon fill="none" stroke="black" points="91,-477 43,-477 43,-456 91,-456 91,-477"/>
<text text-anchor="middle" x="67" y="-463.4" font-family="Times New Roman,serif" font-size="12.00">Vector</text>
</g>
<!-- a1&#45;&gt;a2 -->
<!-- a3 -->
<g id="node5" class="node">
<title>a3</title>
<polygon fill="none" stroke="black" points="86,-420 48,-420 48,-399 86,-399 86,-420"/>
<text text-anchor="middle" x="67" y="-406.4" font-family="Times New Roman,serif" font-size="12.00">heap</text>
</g>
<!-- a2&#45;&gt;a3 -->
<!-- a4 -->
<g id="node6" class="node">
<title>a4</title>
<polygon fill="none" stroke="black" points="107,-363 27,-363 27,-342 107,-342 107,-363"/>
<text text-anchor="middle" x="67" y="-349.4" font-family="Times New Roman,serif" font-size="12.00">priority&#45;queue</text>
</g>
<!-- a3&#45;&gt;a4 -->
<!-- a5 -->
<g id="node7" class="node">
<title>a5</title>
<polygon fill="none" stroke="black" points="81.5,-306 52.5,-306 52.5,-285 81.5,-285 81.5,-306"/>
<text text-anchor="middle" x="67" y="-292.4" font-family="Times New Roman,serif" font-size="12.00">list</text>
</g>
<!-- a4&#45;&gt;a5 -->
<!-- a6 -->
<g id="node8" class="node">
<title>a6</title>
<polygon fill="none" stroke="black" points="83.5,-249 50.5,-249 50.5,-228 83.5,-228 83.5,-249"/>
<text text-anchor="middle" x="67" y="-235.4" font-family="Times New Roman,serif" font-size="12.00">slist</text>
</g>
<!-- a5&#45;&gt;a6 -->
<!-- a7 -->
<g id="node9" class="node">
<title>a7</title>
<polygon fill="none" stroke="black" points="89,-192 45,-192 45,-171 89,-171 89,-192"/>
<text text-anchor="middle" x="67" y="-178.4" font-family="Times New Roman,serif" font-size="12.00">deque</text>
</g>
<!-- a6&#45;&gt;a7 -->
<!-- a8 -->
<g id="node10" class="node">
<title>a8</title>
<polygon fill="none" stroke="black" points="87.5,-135 46.5,-135 46.5,-114 87.5,-114 87.5,-135"/>
<text text-anchor="middle" x="67" y="-121.4" font-family="Times New Roman,serif" font-size="12.00">stack</text>
</g>
<!-- a7&#45;&gt;a8 -->
<!-- a9 -->
<g id="node11" class="node">
<title>a9</title>
<polygon fill="none" stroke="black" points="89,-78 45,-78 45,-57 89,-57 89,-78"/>
<text text-anchor="middle" x="67" y="-64.4" font-family="Times New Roman,serif" font-size="12.00">queue</text>
</g>
<!-- a8&#45;&gt;a9 -->
<!-- b2 -->
<g id="node13" class="node">
<title>b2</title>
<polygon fill="none" stroke="black" points="239.5,-477 210.5,-477 210.5,-456 239.5,-456 239.5,-477"/>
<text text-anchor="middle" x="225" y="-463.4" font-family="Times New Roman,serif" font-size="12.00">set</text>
</g>
<!-- b1&#45;&gt;b2 -->
<!-- b3 -->
<g id="node14" class="node">
<title>b3</title>
<polygon fill="none" stroke="black" points="243,-420 207,-420 207,-399 243,-399 243,-420"/>
<text text-anchor="middle" x="225" y="-406.4" font-family="Times New Roman,serif" font-size="12.00">map</text>
</g>
<!-- b2&#45;&gt;b3 -->
<!-- b4 -->
<g id="node15" class="node">
<title>b4</title>
<polygon fill="none" stroke="black" points="250,-363 200,-363 200,-342 250,-342 250,-363"/>
<text text-anchor="middle" x="225" y="-349.4" font-family="Times New Roman,serif" font-size="12.00">multiset</text>
</g>
<!-- b3&#45;&gt;b4 -->
<!-- b5 -->
<g id="node16" class="node">
<title>b5</title>
<polygon fill="none" stroke="black" points="253.5,-306 196.5,-306 196.5,-285 253.5,-285 253.5,-306"/>
<text text-anchor="middle" x="225" y="-292.4" font-family="Times New Roman,serif" font-size="12.00">multimap</text>
</g>
<!-- b4&#45;&gt;b5 -->
<!-- b6 -->
<g id="node17" class="node">
<title>b6</title>
<polygon fill="none" stroke="black" points="254.5,-249 195.5,-249 195.5,-228 254.5,-228 254.5,-249"/>
<text text-anchor="middle" x="225" y="-235.4" font-family="Times New Roman,serif" font-size="12.00">hashtable</text>
</g>
<!-- b5&#45;&gt;b6 -->
<!-- b7 -->
<g id="node18" class="node">
<title>b7</title>
<polygon fill="none" stroke="black" points="253,-192 197,-192 197,-171 253,-171 253,-192"/>
<text text-anchor="middle" x="225" y="-178.4" font-family="Times New Roman,serif" font-size="12.00">hash_set</text>
</g>
<!-- b6&#45;&gt;b7 -->
<!-- b8 -->
<g id="node19" class="node">
<title>b8</title>
<polygon fill="none" stroke="black" points="256,-135 194,-135 194,-114 256,-114 256,-135"/>
<text text-anchor="middle" x="225" y="-121.4" font-family="Times New Roman,serif" font-size="12.00">hash_map</text>
</g>
<!-- b7&#45;&gt;b8 -->
<!-- b9 -->
<g id="node20" class="node">
<title>b9</title>
<polygon fill="none" stroke="black" points="263.5,-78 186.5,-78 186.5,-57 263.5,-57 263.5,-78"/>
<text text-anchor="middle" x="225" y="-64.4" font-family="Times New Roman,serif" font-size="12.00">hash_multiset</text>
</g>
<!-- b8&#45;&gt;b9 -->
<!-- b10 -->
<g id="node21" class="node">
<title>b10</title>
<polygon fill="none" stroke="black" points="266.5,-21 183.5,-21 183.5,0 266.5,0 266.5,-21"/>
<text text-anchor="middle" x="225" y="-7.4" font-family="Times New Roman,serif" font-size="12.00">hash_multimap</text>
</g>
<!-- b9&#45;&gt;b10 -->
</g>
</svg>
