<?xml version="1.0" encoding="UTF-8" standalone="no"?>
<!DOCTYPE svg PUBLIC "-//W3C//DTD SVG 1.1//EN"
 "http://www.w3.org/Graphics/SVG/1.1/DTD/svg11.dtd">
<!-- Generated by graphviz version 2.47.1 (20210417.1919)
 -->
<!-- Title: test Pages: 1 -->
<svg width="243pt" height="183pt"
 viewBox="0.00 0.00 243.00 183.00" xmlns="http://www.w3.org/2000/svg" xmlns:xlink="http://www.w3.org/1999/xlink">
<g id="graph0" class="graph" transform="scale(1 1) rotate(0) translate(4 179)">
<title>test</title>
<polygon fill="white" stroke="transparent" points="-4,4 -4,-179 239,-179 239,4 -4,4"/>
<!-- abc -->
<g id="node1" class="node">
<title>abc</title>
<polygon fill="lightgray" stroke="transparent" points="0.5,-149.5 0.5,-174.5 235.5,-174.5 235.5,-149.5 0.5,-149.5"/>
<polygon fill="none" stroke="black" points="0.5,-149.5 0.5,-174.5 235.5,-174.5 235.5,-149.5 0.5,-149.5"/>
<text text-anchor="start" x="68" y="-158.3" font-family="Times New Roman,serif" font-size="14.00">C++ 算术类型</text>
<polygon fill="none" stroke="black" points="0.5,-124.5 0.5,-149.5 59.5,-149.5 59.5,-124.5 0.5,-124.5"/>
<text text-anchor="start" x="12.5" y="-133.3" font-family="Times New Roman,serif" font-size="14.00">类型</text>
<polygon fill="none" stroke="black" points="59.5,-124.5 59.5,-149.5 155.5,-149.5 155.5,-124.5 59.5,-124.5"/>
<text text-anchor="start" x="90" y="-133.3" font-family="Times New Roman,serif" font-size="14.00">含义</text>
<polygon fill="none" stroke="black" points="155.5,-124.5 155.5,-149.5 235.5,-149.5 235.5,-124.5 155.5,-124.5"/>
<text text-anchor="start" x="160.5" y="-133.3" font-family="Times New Roman,serif" font-size="14.00">最小尺寸</text>
<polygon fill="none" stroke="black" points="0.5,-99.5 0.5,-124.5 59.5,-124.5 59.5,-99.5 0.5,-99.5"/>
<text text-anchor="start" x="17" y="-108.3" font-family="Times New Roman,serif" font-size="14.00">bool</text>
<polygon fill="none" stroke="black" points="59.5,-99.5 59.5,-124.5 155.5,-124.5 155.5,-99.5 59.5,-99.5"/>
<text text-anchor="start" x="72.5" y="-108.3" font-family="Times New Roman,serif" font-size="14.00">布尔类型</text>
<polygon fill="none" stroke="black" points="155.5,-99.5 155.5,-124.5 235.5,-124.5 235.5,-99.5 155.5,-99.5"/>
<text text-anchor="start" x="169.5" y="-108.3" font-family="Times New Roman,serif" font-size="14.00">未定义</text>
<polygon fill="none" stroke="black" points="0.5,-74.5 0.5,-99.5 59.5,-99.5 59.5,-74.5 0.5,-74.5"/>
<text text-anchor="start" x="17.5" y="-83.3" font-family="Times New Roman,serif" font-size="14.00">char</text>
<polygon fill="none" stroke="black" points="59.5,-74.5 59.5,-99.5 155.5,-99.5 155.5,-74.5 59.5,-74.5"/>
<text text-anchor="start" x="90" y="-83.3" font-family="Times New Roman,serif" font-size="14.00">字符</text>
<polygon fill="none" stroke="black" points="155.5,-74.5 155.5,-99.5 235.5,-99.5 235.5,-74.5 155.5,-74.5"/>
<text text-anchor="start" x="181.5" y="-83.3" font-family="Times New Roman,serif" font-size="14.00">8 位</text>
<polygon fill="none" stroke="black" points="0.5,-49.5 0.5,-74.5 59.5,-74.5 59.5,-49.5 0.5,-49.5"/>
<text text-anchor="start" x="7" y="-58.3" font-family="Times New Roman,serif" font-size="14.00">wchar_t</text>
<polygon fill="none" stroke="black" points="59.5,-49.5 59.5,-74.5 155.5,-74.5 155.5,-49.5 59.5,-49.5"/>
<text text-anchor="start" x="81.5" y="-58.3" font-family="Times New Roman,serif" font-size="14.00">宽字符</text>
<polygon fill="none" stroke="black" points="155.5,-49.5 155.5,-74.5 235.5,-74.5 235.5,-49.5 155.5,-49.5"/>
<text text-anchor="start" x="178" y="-58.3" font-family="Times New Roman,serif" font-size="14.00">16 位</text>
<polygon fill="none" stroke="black" points="0.5,-24.5 0.5,-49.5 59.5,-49.5 59.5,-24.5 0.5,-24.5"/>
<text text-anchor="start" x="5.5" y="-33.3" font-family="Times New Roman,serif" font-size="14.00">char16_t</text>
<polygon fill="none" stroke="black" points="59.5,-24.5 59.5,-49.5 155.5,-49.5 155.5,-24.5 59.5,-24.5"/>
<text text-anchor="start" x="64.5" y="-33.3" font-family="Times New Roman,serif" font-size="14.00">Unicode 字符</text>
<polygon fill="none" stroke="black" points="155.5,-24.5 155.5,-49.5 235.5,-49.5 235.5,-24.5 155.5,-24.5"/>
<text text-anchor="start" x="178" y="-33.3" font-family="Times New Roman,serif" font-size="14.00">16 位</text>
<polygon fill="none" stroke="black" points="0.5,0.5 0.5,-24.5 59.5,-24.5 59.5,0.5 0.5,0.5"/>
<text text-anchor="start" x="5.5" y="-8.3" font-family="Times New Roman,serif" font-size="14.00">char32_t</text>
<polygon fill="none" stroke="black" points="59.5,0.5 59.5,-24.5 155.5,-24.5 155.5,0.5 59.5,0.5"/>
<text text-anchor="start" x="64.5" y="-8.3" font-family="Times New Roman,serif" font-size="14.00">Unicode 字符</text>
<polygon fill="none" stroke="black" points="155.5,0.5 155.5,-24.5 235.5,-24.5 235.5,0.5 155.5,0.5"/>
<text text-anchor="start" x="178" y="-8.3" font-family="Times New Roman,serif" font-size="14.00">32 位</text>
</g>
</g>
</svg>
