<?xml version="1.0" encoding="UTF-8" standalone="no"?>
<!DOCTYPE svg PUBLIC "-//W3C//DTD SVG 1.1//EN"
 "http://www.w3.org/Graphics/SVG/1.1/DTD/svg11.dtd">
<!-- Generated by graphviz version 2.47.1 (20210417.1919)
 -->
<!-- Title: test Pages: 1 -->
<svg width="263pt" height="196pt"
 viewBox="0.00 0.00 263.00 196.00" xmlns="http://www.w3.org/2000/svg" xmlns:xlink="http://www.w3.org/1999/xlink">
<g id="graph0" class="graph" transform="scale(1 1) rotate(0) translate(4 192)">
<title>test</title>
<polygon fill="white" stroke="transparent" points="-4,4 -4,-192 259,-192 259,4 -4,4"/>
<!-- abc -->
<g id="node1" class="node">
<title>abc</title>
<polygon fill="lightgray" stroke="transparent" points="1.5,-156 1.5,-187 66.5,-187 66.5,-156 1.5,-156"/>
<text text-anchor="start" x="16.5" y="-167.8" font-family="Times New Roman,serif" font-size="14.00">类型</text>
<polygon fill="lightgray" stroke="transparent" points="66.5,-156 66.5,-187 168.5,-187 168.5,-156 66.5,-156"/>
<text text-anchor="start" x="100" y="-167.8" font-family="Times New Roman,serif" font-size="14.00">含义</text>
<polygon fill="lightgray" stroke="transparent" points="168.5,-156 168.5,-187 254.5,-187 254.5,-156 168.5,-156"/>
<text text-anchor="start" x="176.5" y="-167.8" font-family="Times New Roman,serif" font-size="14.00">最小尺寸</text>
<text text-anchor="start" x="21" y="-136.8" font-family="Times New Roman,serif" font-size="14.00">bool</text>
<text text-anchor="start" x="82.5" y="-136.8" font-family="Times New Roman,serif" font-size="14.00">布尔类型</text>
<text text-anchor="start" x="185.5" y="-136.8" font-family="Times New Roman,serif" font-size="14.00">未定义</text>
<text text-anchor="start" x="21.5" y="-105.8" font-family="Times New Roman,serif" font-size="14.00">char</text>
<text text-anchor="start" x="100" y="-105.8" font-family="Times New Roman,serif" font-size="14.00">字符</text>
<text text-anchor="start" x="197.5" y="-105.8" font-family="Times New Roman,serif" font-size="14.00">8 位</text>
<text text-anchor="start" x="11" y="-74.8" font-family="Times New Roman,serif" font-size="14.00">wchar_t</text>
<text text-anchor="start" x="91.5" y="-74.8" font-family="Times New Roman,serif" font-size="14.00">宽字符</text>
<text text-anchor="start" x="194" y="-74.8" font-family="Times New Roman,serif" font-size="14.00">16 位</text>
<text text-anchor="start" x="9.5" y="-43.8" font-family="Times New Roman,serif" font-size="14.00">char16_t</text>
<text text-anchor="start" x="74.5" y="-43.8" font-family="Times New Roman,serif" font-size="14.00">Unicode 字符</text>
<text text-anchor="start" x="194" y="-43.8" font-family="Times New Roman,serif" font-size="14.00">16 位</text>
<text text-anchor="start" x="9.5" y="-12.8" font-family="Times New Roman,serif" font-size="14.00">char32_t</text>
<text text-anchor="start" x="74.5" y="-12.8" font-family="Times New Roman,serif" font-size="14.00">Unicode 字符</text>
<text text-anchor="start" x="194" y="-12.8" font-family="Times New Roman,serif" font-size="14.00">32 位</text>
<polygon fill="none" stroke="black" points="0,0 0,-188 255,-188 255,0 0,0"/>
</g>
</g>
</svg>
