<?xml version="1.0" encoding="UTF-8" standalone="no"?>
<!DOCTYPE svg PUBLIC "-//W3C//DTD SVG 1.1//EN"
 "http://www.w3.org/Graphics/SVG/1.1/DTD/svg11.dtd">
<!-- Generated by graphviz version 2.47.1 (20210417.1919)
 -->
<!-- Title: test Pages: 1 -->
<svg width="1653pt" height="46pt"
 viewBox="0.00 0.00 1652.50 46.00" xmlns="http://www.w3.org/2000/svg" xmlns:xlink="http://www.w3.org/1999/xlink">
<g id="graph0" class="graph" transform="scale(1 1) rotate(0) translate(4 42)">
<title>test</title>
<!-- a0 -->
<g id="node1" class="node">
<title>a0</title>
<text text-anchor="middle" x="67" y="-22.8" font-family="Times New Roman,serif" font-size="14.00">序列式容器</text>
<text text-anchor="middle" x="67" y="-7.8" font-family="Times New Roman,serif" font-size="14.00">Sequence Containers</text>
</g>
<!-- a1 -->
<g id="node3" class="node">
<title>a1</title>
<polygon fill="none" stroke="black" points="233.5,-29.5 152.5,-29.5 152.5,-8.5 233.5,-8.5 233.5,-29.5"/>
<text text-anchor="middle" x="193" y="-15.9" font-family="Times New Roman,serif" font-size="12.00">Array(built&#45;in)</text>
</g>
<!-- a0&#45;&gt;a1 -->
<!-- b0 -->
<g id="node2" class="node">
<title>b0</title>
<text text-anchor="middle" x="828" y="-22.8" font-family="Times New Roman,serif" font-size="14.00">关联式容器</text>
<text text-anchor="middle" x="828" y="-7.8" font-family="Times New Roman,serif" font-size="14.00">Associative Containers</text>
</g>
<!-- b1 -->
<g id="node12" class="node">
<title>b1</title>
<polygon fill="none" stroke="black" points="971.5,-29.5 918.5,-29.5 918.5,-8.5 971.5,-8.5 971.5,-29.5"/>
<text text-anchor="middle" x="945" y="-15.9" font-family="Times New Roman,serif" font-size="12.00">RB&#45;tree</text>
</g>
<!-- b0&#45;&gt;b1 -->
<!-- a2 -->
<g id="node4" class="node">
<title>a2</title>
<polygon fill="none" stroke="black" points="300,-29.5 252,-29.5 252,-8.5 300,-8.5 300,-29.5"/>
<text text-anchor="middle" x="276" y="-15.9" font-family="Times New Roman,serif" font-size="12.00">Vector</text>
</g>
<!-- a1&#45;&gt;a2 -->
<!-- a3 -->
<g id="node5" class="node">
<title>a3</title>
<polygon fill="none" stroke="black" points="356,-29.5 318,-29.5 318,-8.5 356,-8.5 356,-29.5"/>
<text text-anchor="middle" x="337" y="-15.9" font-family="Times New Roman,serif" font-size="12.00">heap</text>
</g>
<!-- a2&#45;&gt;a3 -->
<!-- a4 -->
<g id="node6" class="node">
<title>a4</title>
<polygon fill="none" stroke="black" points="454,-29.5 374,-29.5 374,-8.5 454,-8.5 454,-29.5"/>
<text text-anchor="middle" x="414" y="-15.9" font-family="Times New Roman,serif" font-size="12.00">priority&#45;queue</text>
</g>
<!-- a3&#45;&gt;a4 -->
<!-- a5 -->
<g id="node7" class="node">
<title>a5</title>
<polygon fill="none" stroke="black" points="501.5,-29.5 472.5,-29.5 472.5,-8.5 501.5,-8.5 501.5,-29.5"/>
<text text-anchor="middle" x="487" y="-15.9" font-family="Times New Roman,serif" font-size="12.00">list</text>
</g>
<!-- a4&#45;&gt;a5 -->
<!-- a6 -->
<g id="node8" class="node">
<title>a6</title>
<polygon fill="none" stroke="black" points="552.5,-29.5 519.5,-29.5 519.5,-8.5 552.5,-8.5 552.5,-29.5"/>
<text text-anchor="middle" x="536" y="-15.9" font-family="Times New Roman,serif" font-size="12.00">slist</text>
</g>
<!-- a5&#45;&gt;a6 -->
<!-- a7 -->
<g id="node9" class="node">
<title>a7</title>
<polygon fill="none" stroke="black" points="615,-29.5 571,-29.5 571,-8.5 615,-8.5 615,-29.5"/>
<text text-anchor="middle" x="593" y="-15.9" font-family="Times New Roman,serif" font-size="12.00">deque</text>
</g>
<!-- a6&#45;&gt;a7 -->
<!-- a8 -->
<g id="node10" class="node">
<title>a8</title>
<polygon fill="none" stroke="black" points="674.5,-29.5 633.5,-29.5 633.5,-8.5 674.5,-8.5 674.5,-29.5"/>
<text text-anchor="middle" x="654" y="-15.9" font-family="Times New Roman,serif" font-size="12.00">stack</text>
</g>
<!-- a7&#45;&gt;a8 -->
<!-- a9 -->
<g id="node11" class="node">
<title>a9</title>
<polygon fill="none" stroke="black" points="737,-29.5 693,-29.5 693,-8.5 737,-8.5 737,-29.5"/>
<text text-anchor="middle" x="715" y="-15.9" font-family="Times New Roman,serif" font-size="12.00">queue</text>
</g>
<!-- a8&#45;&gt;a9 -->
<!-- b2 -->
<g id="node13" class="node">
<title>b2</title>
<polygon fill="none" stroke="black" points="1018.5,-29.5 989.5,-29.5 989.5,-8.5 1018.5,-8.5 1018.5,-29.5"/>
<text text-anchor="middle" x="1004" y="-15.9" font-family="Times New Roman,serif" font-size="12.00">set</text>
</g>
<!-- b1&#45;&gt;b2 -->
<!-- b3 -->
<g id="node14" class="node">
<title>b3</title>
<polygon fill="none" stroke="black" points="1073,-29.5 1037,-29.5 1037,-8.5 1073,-8.5 1073,-29.5"/>
<text text-anchor="middle" x="1055" y="-15.9" font-family="Times New Roman,serif" font-size="12.00">map</text>
</g>
<!-- b2&#45;&gt;b3 -->
<!-- b4 -->
<g id="node15" class="node">
<title>b4</title>
<polygon fill="none" stroke="black" points="1141,-29.5 1091,-29.5 1091,-8.5 1141,-8.5 1141,-29.5"/>
<text text-anchor="middle" x="1116" y="-15.9" font-family="Times New Roman,serif" font-size="12.00">multiset</text>
</g>
<!-- b3&#45;&gt;b4 -->
<!-- b5 -->
<g id="node16" class="node">
<title>b5</title>
<polygon fill="none" stroke="black" points="1216.5,-29.5 1159.5,-29.5 1159.5,-8.5 1216.5,-8.5 1216.5,-29.5"/>
<text text-anchor="middle" x="1188" y="-15.9" font-family="Times New Roman,serif" font-size="12.00">multimap</text>
</g>
<!-- b4&#45;&gt;b5 -->
<!-- b6 -->
<g id="node17" class="node">
<title>b6</title>
<polygon fill="none" stroke="black" points="1293.5,-29.5 1234.5,-29.5 1234.5,-8.5 1293.5,-8.5 1293.5,-29.5"/>
<text text-anchor="middle" x="1264" y="-15.9" font-family="Times New Roman,serif" font-size="12.00">hashtable</text>
</g>
<!-- b5&#45;&gt;b6 -->
<!-- b7 -->
<g id="node18" class="node">
<title>b7</title>
<polygon fill="none" stroke="black" points="1368,-29.5 1312,-29.5 1312,-8.5 1368,-8.5 1368,-29.5"/>
<text text-anchor="middle" x="1340" y="-15.9" font-family="Times New Roman,serif" font-size="12.00">hash_set</text>
</g>
<!-- b6&#45;&gt;b7 -->
<!-- b8 -->
<g id="node19" class="node">
<title>b8</title>
<polygon fill="none" stroke="black" points="1448,-29.5 1386,-29.5 1386,-8.5 1448,-8.5 1448,-29.5"/>
<text text-anchor="middle" x="1417" y="-15.9" font-family="Times New Roman,serif" font-size="12.00">hash_map</text>
</g>
<!-- b7&#45;&gt;b8 -->
<!-- b9 -->
<g id="node20" class="node">
<title>b9</title>
<polygon fill="none" stroke="black" points="1543.5,-29.5 1466.5,-29.5 1466.5,-8.5 1543.5,-8.5 1543.5,-29.5"/>
<text text-anchor="middle" x="1505" y="-15.9" font-family="Times New Roman,serif" font-size="12.00">hash_multiset</text>
</g>
<!-- b8&#45;&gt;b9 -->
<!-- b10 -->
<g id="node21" class="node">
<title>b10</title>
<polygon fill="none" stroke="black" points="1644.5,-29.5 1561.5,-29.5 1561.5,-8.5 1644.5,-8.5 1644.5,-29.5"/>
<text text-anchor="middle" x="1603" y="-15.9" font-family="Times New Roman,serif" font-size="12.00">hash_multimap</text>
</g>
<!-- b9&#45;&gt;b10 -->
</g>
</svg>
