<?xml version="1.0" encoding="UTF-8" standalone="no"?>
<!DOCTYPE svg PUBLIC "-//W3C//DTD SVG 1.1//EN"
 "http://www.w3.org/Graphics/SVG/1.1/DTD/svg11.dtd">
<!-- Generated by graphviz version 2.47.1 (20210417.1919)
 -->
<!-- Title: test Pages: 1 -->
<svg width="381pt" height="118pt"
 viewBox="0.00 0.00 380.89 118.00" xmlns="http://www.w3.org/2000/svg" xmlns:xlink="http://www.w3.org/1999/xlink">
<g id="graph0" class="graph" transform="scale(1 1) rotate(0) translate(4 114)">
<title>test</title>
<!-- a -->
<g id="node1" class="node">
<title>a</title>
<polygon fill="none" stroke="black" points="59.39,-73.5 59.39,-109.5 138.39,-109.5 138.39,-73.5 59.39,-73.5"/>
<text text-anchor="middle" x="98.89" y="-87.8" font-family="Times New Roman,serif" font-size="14.00">&lt;memory&gt;</text>
</g>
<!-- b -->
<g id="node2" class="node">
<title>b</title>
<polygon fill="none" stroke="black" points="4.89,-0.5 4.89,-36.5 120.89,-36.5 120.89,-0.5 4.89,-0.5"/>
<text text-anchor="middle" x="62.89" y="-14.8" font-family="Times New Roman,serif" font-size="14.00">&lt;stl_construct.h&gt;</text>
</g>
<!-- a&#45;&gt;b -->
<g id="edge1" class="edge">
<title>a:e&#45;&gt;b:w</title>
<path fill="none" stroke="black" stroke-dasharray="5,2" d="M139.89,-91.5C148.13,-91.5 144.08,-79.4 138.89,-73 100.06,-25.09 43.72,-84.91 4.89,-37 2.87,-34.5 1.01,-31.13 0,-27.95"/>
<polygon fill="black" stroke="black" points="3.32,-29.08 3.89,-18.5 -3.15,-26.41 3.32,-29.08"/>
</g>
<!-- c -->
<g id="node3" class="node">
<title>c</title>
<polygon fill="none" stroke="black" points="139.39,-0.5 139.39,-36.5 226.39,-36.5 226.39,-0.5 139.39,-0.5"/>
<text text-anchor="middle" x="182.89" y="-14.8" font-family="Times New Roman,serif" font-size="14.00">&lt;stl_aloc.h&gt;</text>
</g>
<!-- a&#45;&gt;c -->
<g id="edge2" class="edge">
<title>a:e&#45;&gt;c:w</title>
<path fill="none" stroke="black" stroke-dasharray="5,2" d="M139.89,-91.5C152.51,-91.5 134.49,-47.39 133.47,-27.75"/>
<polygon fill="black" stroke="black" points="136.74,-29.03 137.89,-18.5 130.42,-26.01 136.74,-29.03"/>
</g>
<!-- d -->
<g id="node4" class="node">
<title>d</title>
<polygon fill="none" stroke="black" points="244.89,-0.5 244.89,-36.5 372.89,-36.5 372.89,-0.5 244.89,-0.5"/>
<text text-anchor="middle" x="308.89" y="-14.8" font-family="Times New Roman,serif" font-size="14.00">&lt;stl_uninitialized.h&gt;</text>
</g>
<!-- a&#45;&gt;d -->
<g id="edge3" class="edge">
<title>a:e&#45;&gt;d:w</title>
<path fill="none" stroke="black" stroke-dasharray="5,2" d="M139.89,-91.5C188.95,-91.5 203.13,-73.52 235.89,-37 238.42,-34.19 238.64,-30.46 238.73,-27.08"/>
<polygon fill="black" stroke="black" points="241.73,-28.87 243.89,-18.5 235.74,-25.26 241.73,-28.87"/>
</g>
</g>
</svg>
