<?xml version="1.0" encoding="UTF-8" standalone="no"?>
<!DOCTYPE svg PUBLIC "-//W3C//DTD SVG 1.1//EN"
 "http://www.w3.org/Graphics/SVG/1.1/DTD/svg11.dtd">
<!-- Generated by graphviz version 2.47.1 (20210417.1919)
 -->
<!-- Title: test Pages: 1 -->
<svg width="510pt" height="452pt"
 viewBox="0.00 0.00 510.00 452.00" xmlns="http://www.w3.org/2000/svg" xmlns:xlink="http://www.w3.org/1999/xlink">
<g id="graph0" class="graph" transform="scale(1 1) rotate(0) translate(4 448)">
<title>test</title>
<g id="clust1" class="cluster">
<title>cluster_0</title>
<polygon fill="transparent" stroke="black" points="8,-8 8,-436 494,-436 494,-8 8,-8"/>
</g>
<!-- l1 -->
<g id="node1" class="node">
<title>l1</title>
<polygon fill="none" stroke="black" points="243,-391.5 243,-427.5 309,-427.5 309,-391.5 243,-391.5"/>
<text text-anchor="middle" x="276" y="-405.8" font-family="Times New Roman,serif" font-size="14.00">ios_base</text>
</g>
<!-- l2 -->
<g id="node2" class="node">
<title>l2</title>
<polygon fill="none" stroke="black" points="221.5,-316.5 221.5,-354.5 330.5,-354.5 330.5,-316.5 221.5,-316.5"/>
<text text-anchor="middle" x="276" y="-339.3" font-family="Times New Roman,serif" font-size="14.00">basic_ios</text>
<text text-anchor="middle" x="276" y="-324.3" font-family="Times New Roman,serif" font-size="14.00">&lt;CharT, Traits&gt;</text>
</g>
<!-- l1&#45;&gt;l2 -->
<g id="edge1" class="edge">
<title>l1&#45;&gt;l2</title>
<path fill="none" stroke="black" d="M276,-381.16C276,-372.31 276,-362.72 276,-354.7"/>
<polygon fill="none" stroke="black" points="272.5,-381.44 276,-391.44 279.5,-381.44 272.5,-381.44"/>
</g>
<!-- l31 -->
<g id="node3" class="node">
<title>l31</title>
<polygon fill="none" stroke="black" points="148.5,-241.5 148.5,-279.5 257.5,-279.5 257.5,-241.5 148.5,-241.5"/>
<text text-anchor="middle" x="203" y="-264.3" font-family="Times New Roman,serif" font-size="14.00">basic_ostream</text>
<text text-anchor="middle" x="203" y="-249.3" font-family="Times New Roman,serif" font-size="14.00">&lt;CharT, Traits&gt;</text>
</g>
<!-- l2&#45;&gt;l31 -->
<g id="edge2" class="edge">
<title>l2&#45;&gt;l31</title>
<path fill="none" stroke="black" d="M250.77,-309.27C241.01,-299.51 230.05,-288.55 221.09,-279.59"/>
<polygon fill="none" stroke="black" points="248.41,-311.86 257.96,-316.46 253.36,-306.91 248.41,-311.86"/>
</g>
<!-- l32 -->
<g id="node4" class="node">
<title>l32</title>
<polygon fill="none" stroke="black" points="294.5,-241.5 294.5,-279.5 403.5,-279.5 403.5,-241.5 294.5,-241.5"/>
<text text-anchor="middle" x="349" y="-264.3" font-family="Times New Roman,serif" font-size="14.00">basic_istream</text>
<text text-anchor="middle" x="349" y="-249.3" font-family="Times New Roman,serif" font-size="14.00">&lt;CharT, Traits&gt;</text>
</g>
<!-- l2&#45;&gt;l32 -->
<g id="edge3" class="edge">
<title>l2&#45;&gt;l32</title>
<path fill="none" stroke="black" d="M301.23,-309.27C310.99,-299.51 321.95,-288.55 330.91,-279.59"/>
<polygon fill="none" stroke="black" points="298.64,-306.91 294.04,-316.46 303.59,-311.86 298.64,-306.91"/>
</g>
<!-- l4 -->
<g id="node5" class="node">
<title>l4</title>
<polygon fill="none" stroke="black" points="213.5,-166.5 213.5,-204.5 322.5,-204.5 322.5,-166.5 213.5,-166.5"/>
<text text-anchor="middle" x="268" y="-189.3" font-family="Times New Roman,serif" font-size="14.00">basic_iostream</text>
<text text-anchor="middle" x="268" y="-174.3" font-family="Times New Roman,serif" font-size="14.00">&lt;CharT, Traits&gt;</text>
</g>
<!-- l31&#45;&gt;l4 -->
<g id="edge4" class="edge">
<title>l31&#45;&gt;l4</title>
<path fill="none" stroke="black" d="M225.72,-233.99C234.35,-224.29 244,-213.46 251.89,-204.59"/>
<polygon fill="none" stroke="black" points="223.1,-231.66 219.07,-241.46 228.33,-236.31 223.1,-231.66"/>
</g>
<!-- l51 -->
<g id="node6" class="node">
<title>l51</title>
<polygon fill="none" stroke="black" points="16,-91.5 16,-129.5 144,-129.5 144,-91.5 16,-91.5"/>
<text text-anchor="middle" x="80" y="-114.3" font-family="Times New Roman,serif" font-size="14.00">basic_ostringstream</text>
<text text-anchor="middle" x="80" y="-99.3" font-family="Times New Roman,serif" font-size="14.00">&lt;CharT, Traits&gt;</text>
</g>
<!-- l31&#45;&gt;l51 -->
<g id="edge6" class="edge">
<title>l31&#45;&gt;l51</title>
<path fill="none" stroke="black" d="M181.38,-233.48C156.66,-203.75 116.85,-155.84 95.21,-129.8"/>
<polygon fill="none" stroke="black" points="178.83,-235.9 187.92,-241.35 184.22,-231.42 178.83,-235.9"/>
</g>
<!-- l61 -->
<g id="node9" class="node">
<title>l61</title>
<polygon fill="none" stroke="black" points="26.5,-16.5 26.5,-54.5 153.5,-54.5 153.5,-16.5 26.5,-16.5"/>
<text text-anchor="middle" x="90" y="-39.3" font-family="Times New Roman,serif" font-size="14.00">basic_oftringstream</text>
<text text-anchor="middle" x="90" y="-24.3" font-family="Times New Roman,serif" font-size="14.00">&lt;CharT, Traits&gt;</text>
</g>
<!-- l31&#45;&gt;l61 -->
<g id="edge7" class="edge">
<title>l31&#45;&gt;l61:ne</title>
<path fill="none" stroke="black" d="M196.68,-231.48C184.17,-176.21 157.16,-58.16 154,-55"/>
<polygon fill="none" stroke="black" points="193.29,-232.36 198.91,-241.34 200.12,-230.81 193.29,-232.36"/>
</g>
<!-- l32&#45;&gt;l4 -->
<g id="edge5" class="edge">
<title>l32&#45;&gt;l4</title>
<path fill="none" stroke="black" d="M321.33,-234.56C310.41,-224.72 298.11,-213.63 288.07,-204.59"/>
<polygon fill="none" stroke="black" points="319.21,-237.36 328.98,-241.46 323.89,-232.16 319.21,-237.36"/>
</g>
<!-- l53 -->
<g id="node8" class="node">
<title>l53</title>
<polygon fill="none" stroke="black" points="342,-91.5 342,-129.5 466,-129.5 466,-91.5 342,-91.5"/>
<text text-anchor="middle" x="404" y="-114.3" font-family="Times New Roman,serif" font-size="14.00">basic_istringstream</text>
<text text-anchor="middle" x="404" y="-99.3" font-family="Times New Roman,serif" font-size="14.00">&lt;CharT, Traits&gt;</text>
</g>
<!-- l32&#45;&gt;l53 -->
<g id="edge10" class="edge">
<title>l32&#45;&gt;l53</title>
<path fill="none" stroke="black" d="M359.24,-231.94C370.33,-202.12 387.69,-155.4 397.2,-129.8"/>
<polygon fill="none" stroke="black" points="355.95,-230.76 355.74,-241.35 362.51,-233.2 355.95,-230.76"/>
</g>
<!-- l63 -->
<g id="node11" class="node">
<title>l63</title>
<polygon fill="none" stroke="black" points="362.5,-16.5 362.5,-54.5 471.5,-54.5 471.5,-16.5 362.5,-16.5"/>
<text text-anchor="middle" x="417" y="-39.3" font-family="Times New Roman,serif" font-size="14.00">basic_ifstream</text>
<text text-anchor="middle" x="417" y="-24.3" font-family="Times New Roman,serif" font-size="14.00">&lt;CharT, Traits&gt;</text>
</g>
<!-- l32&#45;&gt;l63 -->
<g id="edge11" class="edge">
<title>l32&#45;&gt;l63</title>
<path fill="none" stroke="black" d="M384.67,-235.33C415.15,-212.31 456.87,-174.63 475,-130 481.52,-113.94 481.88,-106.91 475,-91 468.69,-76.42 456.35,-63.94 444.66,-54.61"/>
<polygon fill="none" stroke="black" points="382.37,-232.67 376.4,-241.42 386.53,-238.31 382.37,-232.67"/>
</g>
<!-- l4&#45;&gt;l51 -->
<g id="edge12" class="edge">
<title>l4&#45;&gt;l51</title>
<path fill="none" stroke="transparent" d="M212.12,-162.8C184.88,-152.22 152.48,-139.64 126.59,-129.59"/>
<polygon fill="none" stroke="transparent" points="210.94,-166.1 221.53,-166.46 213.47,-159.57 210.94,-166.1"/>
</g>
<!-- l52 -->
<g id="node7" class="node">
<title>l52</title>
<polygon fill="none" stroke="black" points="182.5,-91.5 182.5,-129.5 303.5,-129.5 303.5,-91.5 182.5,-91.5"/>
<text text-anchor="middle" x="243" y="-114.3" font-family="Times New Roman,serif" font-size="14.00">basic_stringstream</text>
<text text-anchor="middle" x="243" y="-99.3" font-family="Times New Roman,serif" font-size="14.00">&lt;CharT, Traits&gt;</text>
</g>
<!-- l4&#45;&gt;l52 -->
<g id="edge8" class="edge">
<title>l4&#45;&gt;l52</title>
<path fill="none" stroke="black" d="M258.57,-156.95C255.43,-147.8 252.02,-137.84 249.2,-129.59"/>
<polygon fill="none" stroke="black" points="255.27,-158.13 261.82,-166.46 261.89,-155.86 255.27,-158.13"/>
</g>
<!-- l4&#45;&gt;l53 -->
<g id="edge13" class="edge">
<title>l4&#45;&gt;l53</title>
<path fill="none" stroke="transparent" d="M310.5,-161.69C329.76,-151.35 352.22,-139.29 370.3,-129.59"/>
<polygon fill="none" stroke="transparent" points="308.77,-158.64 301.62,-166.46 312.08,-164.81 308.77,-158.64"/>
</g>
<!-- l62 -->
<g id="node10" class="node">
<title>l62</title>
<polygon fill="none" stroke="black" points="200.5,-16.5 200.5,-54.5 309.5,-54.5 309.5,-16.5 200.5,-16.5"/>
<text text-anchor="middle" x="255" y="-39.3" font-family="Times New Roman,serif" font-size="14.00">basic_fstream</text>
<text text-anchor="middle" x="255" y="-24.3" font-family="Times New Roman,serif" font-size="14.00">&lt;CharT, Traits&gt;</text>
</g>
<!-- l4&#45;&gt;l62 -->
<g id="edge9" class="edge">
<title>l4&#45;&gt;l62:ne</title>
<path fill="none" stroke="black" d="M295.29,-158.84C302.45,-150.42 309.23,-140.5 313,-130 324.29,-98.61 333.59,-78.59 310,-55"/>
<polygon fill="none" stroke="black" points="292.53,-156.68 288.39,-166.43 297.71,-161.39 292.53,-156.68"/>
</g>
<!-- l51&#45;&gt;l61 -->
<g id="edge14" class="edge">
<title>l51&#45;&gt;l61</title>
<path fill="none" stroke="transparent" d="M83.85,-81.37C85.09,-72.38 86.42,-62.67 87.52,-54.59"/>
<polygon fill="none" stroke="transparent" points="80.36,-81.07 82.47,-91.46 87.3,-82.02 80.36,-81.07"/>
</g>
<!-- l52&#45;&gt;l62 -->
<g id="edge15" class="edge">
<title>l52&#45;&gt;l62</title>
<path fill="none" stroke="transparent" d="M247.62,-81.37C249.1,-72.38 250.7,-62.67 252.03,-54.59"/>
<polygon fill="none" stroke="transparent" points="244.13,-81.02 245.97,-91.46 251.04,-82.16 244.13,-81.02"/>
</g>
<!-- l53&#45;&gt;l63 -->
<g id="edge16" class="edge">
<title>l53&#45;&gt;l63</title>
<path fill="none" stroke="transparent" d="M409.01,-81.37C410.61,-72.38 412.34,-62.67 413.78,-54.59"/>
<polygon fill="none" stroke="transparent" points="405.52,-81 407.21,-91.46 412.41,-82.22 405.52,-81"/>
</g>
</g>
</svg>
