<?xml version="1.0" encoding="UTF-8" standalone="no"?>
<!DOCTYPE svg PUBLIC "-//W3C//DTD SVG 1.1//EN"
 "http://www.w3.org/Graphics/SVG/1.1/DTD/svg11.dtd">
<!-- Generated by graphviz version 2.47.1 (20210417.1919)
 -->
<!-- Title: test Pages: 1 -->
<svg width="1038pt" height="46pt"
 viewBox="0.00 0.00 1038.00 46.00" xmlns="http://www.w3.org/2000/svg" xmlns:xlink="http://www.w3.org/1999/xlink">
<g id="graph0" class="graph" transform="scale(1 1) rotate(0) translate(4 42)">
<title>test</title>
<!-- a0 -->
<g id="node1" class="node">
<title>a0</title>
<text text-anchor="middle" x="67" y="-22.8" font-family="Times New Roman,serif" font-size="14.00">序列式容器</text>
<text text-anchor="middle" x="67" y="-7.8" font-family="Times New Roman,serif" font-size="14.00">Sequence Containers</text>
</g>
<!-- b0 -->
<g id="node2" class="node">
<title>b0</title>
<text text-anchor="middle" x="225" y="-22.8" font-family="Times New Roman,serif" font-size="14.00">关联式容器</text>
<text text-anchor="middle" x="225" y="-7.8" font-family="Times New Roman,serif" font-size="14.00">Associative Containers</text>
</g>
<!-- a1 -->
<g id="node3" class="node">
<title>a1</title>
<polygon fill="none" stroke="black" points="410.5,-37 315.5,-37 315.5,-1 410.5,-1 410.5,-37"/>
<text text-anchor="middle" x="363" y="-15.3" font-family="Times New Roman,serif" font-size="14.00">Array(built&#45;in)</text>
</g>
<!-- a2 -->
<g id="node4" class="node">
<title>a2</title>
<polygon fill="none" stroke="black" points="483.5,-37 428.5,-37 428.5,-1 483.5,-1 483.5,-37"/>
<text text-anchor="middle" x="456" y="-15.3" font-family="Times New Roman,serif" font-size="14.00">Vector</text>
</g>
<!-- a3 -->
<g id="node5" class="node">
<title>a3</title>
<polygon fill="none" stroke="black" points="556,-37 502,-37 502,-1 556,-1 556,-37"/>
<text text-anchor="middle" x="529" y="-15.3" font-family="Times New Roman,serif" font-size="14.00">heap</text>
</g>
<!-- a4 -->
<g id="node6" class="node">
<title>a4</title>
<polygon fill="none" stroke="black" points="669.5,-37 574.5,-37 574.5,-1 669.5,-1 669.5,-37"/>
<text text-anchor="middle" x="622" y="-15.3" font-family="Times New Roman,serif" font-size="14.00">priority&#45;queue</text>
</g>
<!-- a5 -->
<g id="node7" class="node">
<title>a5</title>
<polygon fill="none" stroke="black" points="742,-37 688,-37 688,-1 742,-1 742,-37"/>
<text text-anchor="middle" x="715" y="-15.3" font-family="Times New Roman,serif" font-size="14.00">list</text>
</g>
<!-- a6 -->
<g id="node8" class="node">
<title>a6</title>
<polygon fill="none" stroke="black" points="814,-37 760,-37 760,-1 814,-1 814,-37"/>
<text text-anchor="middle" x="787" y="-15.3" font-family="Times New Roman,serif" font-size="14.00">slist</text>
</g>
<!-- a7 -->
<g id="node9" class="node">
<title>a7</title>
<polygon fill="none" stroke="black" points="886,-37 832,-37 832,-1 886,-1 886,-37"/>
<text text-anchor="middle" x="859" y="-15.3" font-family="Times New Roman,serif" font-size="14.00">deque</text>
</g>
<!-- a8 -->
<g id="node10" class="node">
<title>a8</title>
<polygon fill="none" stroke="black" points="958,-37 904,-37 904,-1 958,-1 958,-37"/>
<text text-anchor="middle" x="931" y="-15.3" font-family="Times New Roman,serif" font-size="14.00">stack</text>
</g>
<!-- a9 -->
<g id="node11" class="node">
<title>a9</title>
<polygon fill="none" stroke="black" points="1030,-37 976,-37 976,-1 1030,-1 1030,-37"/>
<text text-anchor="middle" x="1003" y="-15.3" font-family="Times New Roman,serif" font-size="14.00">queue</text>
</g>
</g>
</svg>
