<?xml version="1.0" encoding="UTF-8" standalone="no"?>
<!DOCTYPE svg PUBLIC "-//W3C//DTD SVG 1.1//EN"
 "http://www.w3.org/Graphics/SVG/1.1/DTD/svg11.dtd">
<!-- Generated by graphviz version 2.47.1 (20210417.1919)
 -->
<!-- Title: G Pages: 1 -->
<svg width="206pt" height="116pt"
 viewBox="0.00 0.00 206.00 116.00" xmlns="http://www.w3.org/2000/svg" xmlns:xlink="http://www.w3.org/1999/xlink">
<g id="graph0" class="graph" transform="scale(1 1) rotate(0) translate(4 112)">
<title>G</title>
<polygon fill="white" stroke="transparent" points="-4,4 -4,-112 202,-112 202,4 -4,4"/>
<!-- b -->
<g id="node1" class="node">
<title>b</title>
<ellipse fill="none" stroke="black" cx="72" cy="-90" rx="27" ry="18"/>
<text text-anchor="middle" x="72" y="-86.3" font-family="Times New Roman,serif" font-size="14.00">a very long label</text>
</g>
<!-- d -->
<g id="node2" class="node">
<title>d</title>
<ellipse fill="none" stroke="black" cx="63" cy="-18" rx="27" ry="18"/>
<text text-anchor="middle" x="63" y="-14.3" font-family="Times New Roman,serif" font-size="14.00">an even longer label</text>
</g>
<!-- b&#45;&gt;d -->
<g id="edge3" class="edge">
<title>b&#45;&gt;d</title>
<path fill="none" stroke="black" d="M69.82,-72.05C68.83,-64.35 67.63,-55.03 66.52,-46.36"/>
<polygon fill="black" stroke="black" points="69.97,-45.75 65.22,-36.28 63.02,-46.64 69.97,-45.75"/>
</g>
<!-- c -->
<g id="node4" class="node">
<title>c</title>
<ellipse fill="none" stroke="black" cx="171" cy="-18" rx="27" ry="18"/>
<text text-anchor="middle" x="171" y="-14.3" font-family="Times New Roman,serif" font-size="14.00">c</text>
</g>
<!-- b&#45;&gt;c -->
<g id="edge4" class="edge">
<title>b&#45;&gt;c</title>
<path fill="none" stroke="black" d="M90.16,-76.16C105.37,-65.41 127.29,-49.91 144.47,-37.76"/>
<polygon fill="black" stroke="black" points="146.81,-40.39 152.96,-31.76 142.77,-34.67 146.81,-40.39"/>
</g>
<!-- a -->
<g id="node3" class="node">
<title>a</title>
<ellipse fill="none" stroke="black" cx="162" cy="-90" rx="27" ry="18"/>
<text text-anchor="middle" x="162" y="-86.3" font-family="Times New Roman,serif" font-size="14.00">a</text>
</g>
<!-- a&#45;&gt;d -->
<g id="edge1" class="edge">
<title>a&#45;&gt;d</title>
<path fill="none" stroke="black" d="M143.84,-76.16C128.63,-65.41 106.71,-49.91 89.53,-37.76"/>
<polygon fill="black" stroke="black" points="91.23,-34.67 81.04,-31.76 87.19,-40.39 91.23,-34.67"/>
</g>
<!-- a&#45;&gt;c -->
<g id="edge2" class="edge">
<title>a&#45;&gt;c</title>
<path fill="none" stroke="black" d="M164.18,-72.05C165.17,-64.35 166.37,-55.03 167.48,-46.36"/>
<polygon fill="black" stroke="black" points="170.98,-46.64 168.78,-36.28 164.03,-45.75 170.98,-46.64"/>
</g>
</g>
</svg>
