<?xml version="1.0" encoding="UTF-8" standalone="no"?>
<!DOCTYPE svg PUBLIC "-//W3C//DTD SVG 1.1//EN"
 "http://www.w3.org/Graphics/SVG/1.1/DTD/svg11.dtd">
<!-- Generated by graphviz version 2.47.1 (20210417.1919)
 -->
<!-- Title: test Pages: 1 -->
<svg width="971pt" height="694pt"
 viewBox="0.00 0.00 970.50 694.00" xmlns="http://www.w3.org/2000/svg" xmlns:xlink="http://www.w3.org/1999/xlink">
<g id="graph0" class="graph" transform="scale(1 1) rotate(0) translate(4 690)">
<title>test</title>
<!-- a0 -->
<g id="node1" class="node">
<title>a0</title>
<text text-anchor="middle" x="67" y="-670.8" font-family="Times New Roman,serif" font-size="14.00">序列式容器</text>
<text text-anchor="middle" x="67" y="-655.8" font-family="Times New Roman,serif" font-size="14.00">Sequence Containers</text>
</g>
<!-- a1 -->
<g id="node3" class="node">
<title>a1</title>
<polygon fill="none" stroke="black" points="114.5,-612 19.5,-612 19.5,-576 114.5,-576 114.5,-612"/>
<text text-anchor="middle" x="67" y="-590.3" font-family="Times New Roman,serif" font-size="14.00">Array(built&#45;in)</text>
</g>
<!-- a0&#45;&gt;a1 -->
<!-- b0 -->
<g id="node2" class="node">
<title>b0</title>
<text text-anchor="middle" x="225" y="-670.8" font-family="Times New Roman,serif" font-size="14.00">关联式容器</text>
<text text-anchor="middle" x="225" y="-655.8" font-family="Times New Roman,serif" font-size="14.00">Associative Containers</text>
</g>
<!-- ba1 -->
<g id="node22" class="node">
<title>ba1</title>
<polygon fill="none" stroke="black" points="252,-612 198,-612 198,-576 252,-576 252,-612"/>
<text text-anchor="middle" x="225" y="-590.3" font-family="Times New Roman,serif" font-size="14.00">ba1</text>
</g>
<!-- b0&#45;&gt;ba1 -->
<!-- a2 -->
<g id="node4" class="node">
<title>a2</title>
<polygon fill="none" stroke="black" points="94.5,-540 39.5,-540 39.5,-504 94.5,-504 94.5,-540"/>
<text text-anchor="middle" x="67" y="-518.3" font-family="Times New Roman,serif" font-size="14.00">Vector</text>
</g>
<!-- a1&#45;&gt;a2 -->
<!-- a3 -->
<g id="node5" class="node">
<title>a3</title>
<polygon fill="none" stroke="black" points="94,-468 40,-468 40,-432 94,-432 94,-468"/>
<text text-anchor="middle" x="67" y="-446.3" font-family="Times New Roman,serif" font-size="14.00">heap</text>
</g>
<!-- a2&#45;&gt;a3 -->
<!-- a4 -->
<g id="node6" class="node">
<title>a4</title>
<polygon fill="none" stroke="black" points="114.5,-396 19.5,-396 19.5,-360 114.5,-360 114.5,-396"/>
<text text-anchor="middle" x="67" y="-374.3" font-family="Times New Roman,serif" font-size="14.00">priority&#45;queue</text>
</g>
<!-- a3&#45;&gt;a4 -->
<!-- a5 -->
<g id="node7" class="node">
<title>a5</title>
<polygon fill="none" stroke="black" points="94,-324 40,-324 40,-288 94,-288 94,-324"/>
<text text-anchor="middle" x="67" y="-302.3" font-family="Times New Roman,serif" font-size="14.00">list</text>
</g>
<!-- a4&#45;&gt;a5 -->
<!-- a6 -->
<g id="node8" class="node">
<title>a6</title>
<polygon fill="none" stroke="black" points="94,-252 40,-252 40,-216 94,-216 94,-252"/>
<text text-anchor="middle" x="67" y="-230.3" font-family="Times New Roman,serif" font-size="14.00">slist</text>
</g>
<!-- a5&#45;&gt;a6 -->
<!-- a7 -->
<g id="node9" class="node">
<title>a7</title>
<polygon fill="none" stroke="black" points="94,-180 40,-180 40,-144 94,-144 94,-180"/>
<text text-anchor="middle" x="67" y="-158.3" font-family="Times New Roman,serif" font-size="14.00">deque</text>
</g>
<!-- a6&#45;&gt;a7 -->
<!-- a8 -->
<g id="node10" class="node">
<title>a8</title>
<polygon fill="none" stroke="black" points="94,-108 40,-108 40,-72 94,-72 94,-108"/>
<text text-anchor="middle" x="67" y="-86.3" font-family="Times New Roman,serif" font-size="14.00">stack</text>
</g>
<!-- a7&#45;&gt;a8 -->
<!-- a9 -->
<g id="node11" class="node">
<title>a9</title>
<polygon fill="none" stroke="black" points="94,-36 40,-36 40,0 94,0 94,-36"/>
<text text-anchor="middle" x="67" y="-14.3" font-family="Times New Roman,serif" font-size="14.00">queue</text>
</g>
<!-- a8&#45;&gt;a9 -->
<!-- b1 -->
<g id="node12" class="node">
<title>b1</title>
<polygon fill="none" stroke="black" points="376,-685 316,-685 316,-649 376,-649 376,-685"/>
<text text-anchor="middle" x="346" y="-663.3" font-family="Times New Roman,serif" font-size="14.00">RB&#45;tree</text>
</g>
<!-- ba2 -->
<g id="node23" class="node">
<title>ba2</title>
<polygon fill="none" stroke="black" points="373,-612 319,-612 319,-576 373,-576 373,-612"/>
<text text-anchor="middle" x="346" y="-590.3" font-family="Times New Roman,serif" font-size="14.00">ba2</text>
</g>
<!-- b1&#45;&gt;ba2 -->
<!-- b2 -->
<g id="node13" class="node">
<title>b2</title>
<polygon fill="none" stroke="black" points="448,-685 394,-685 394,-649 448,-649 448,-685"/>
<text text-anchor="middle" x="421" y="-663.3" font-family="Times New Roman,serif" font-size="14.00">set</text>
</g>
<!-- ba3 -->
<g id="node24" class="node">
<title>ba3</title>
<polygon fill="none" stroke="black" points="448,-612 394,-612 394,-576 448,-576 448,-612"/>
<text text-anchor="middle" x="421" y="-590.3" font-family="Times New Roman,serif" font-size="14.00">ba3</text>
</g>
<!-- b2&#45;&gt;ba3 -->
<!-- b3 -->
<g id="node14" class="node">
<title>b3</title>
<polygon fill="none" stroke="black" points="520,-685 466,-685 466,-649 520,-649 520,-685"/>
<text text-anchor="middle" x="493" y="-663.3" font-family="Times New Roman,serif" font-size="14.00">map</text>
</g>
<!-- ba4 -->
<g id="node25" class="node">
<title>ba4</title>
<polygon fill="none" stroke="black" points="520,-612 466,-612 466,-576 520,-576 520,-612"/>
<text text-anchor="middle" x="493" y="-590.3" font-family="Times New Roman,serif" font-size="14.00">ba4</text>
</g>
<!-- b3&#45;&gt;ba4 -->
<!-- b4 -->
<g id="node15" class="node">
<title>b4</title>
<polygon fill="none" stroke="black" points="597.5,-685 538.5,-685 538.5,-649 597.5,-649 597.5,-685"/>
<text text-anchor="middle" x="568" y="-663.3" font-family="Times New Roman,serif" font-size="14.00">multiset</text>
</g>
<!-- ba5 -->
<g id="node26" class="node">
<title>ba5</title>
<polygon fill="none" stroke="black" points="595,-612 541,-612 541,-576 595,-576 595,-612"/>
<text text-anchor="middle" x="568" y="-590.3" font-family="Times New Roman,serif" font-size="14.00">ba5</text>
</g>
<!-- b4&#45;&gt;ba5 -->
<!-- b5 -->
<g id="node16" class="node">
<title>b5</title>
<polygon fill="none" stroke="black" points="684,-685 616,-685 616,-649 684,-649 684,-685"/>
<text text-anchor="middle" x="650" y="-663.3" font-family="Times New Roman,serif" font-size="14.00">multimap</text>
</g>
<!-- ba6 -->
<g id="node27" class="node">
<title>ba6</title>
<polygon fill="none" stroke="black" points="677,-612 623,-612 623,-576 677,-576 677,-612"/>
<text text-anchor="middle" x="650" y="-590.3" font-family="Times New Roman,serif" font-size="14.00">ba6</text>
</g>
<!-- b5&#45;&gt;ba6 -->
<!-- b6 -->
<g id="node17" class="node">
<title>b6</title>
<polygon fill="none" stroke="black" points="770,-685 702,-685 702,-649 770,-649 770,-685"/>
<text text-anchor="middle" x="736" y="-663.3" font-family="Times New Roman,serif" font-size="14.00">hashtable</text>
</g>
<!-- ba7 -->
<g id="node28" class="node">
<title>ba7</title>
<polygon fill="none" stroke="black" points="763,-612 709,-612 709,-576 763,-576 763,-612"/>
<text text-anchor="middle" x="736" y="-590.3" font-family="Times New Roman,serif" font-size="14.00">ba7</text>
</g>
<!-- b6&#45;&gt;ba7 -->
<!-- b7 -->
<g id="node18" class="node">
<title>b7</title>
<polygon fill="none" stroke="black" points="853.5,-685 788.5,-685 788.5,-649 853.5,-649 853.5,-685"/>
<text text-anchor="middle" x="821" y="-663.3" font-family="Times New Roman,serif" font-size="14.00">hash_set</text>
</g>
<!-- ba8 -->
<g id="node29" class="node">
<title>ba8</title>
<polygon fill="none" stroke="black" points="848,-612 794,-612 794,-576 848,-576 848,-612"/>
<text text-anchor="middle" x="821" y="-590.3" font-family="Times New Roman,serif" font-size="14.00">ba8</text>
</g>
<!-- b7&#45;&gt;ba8 -->
<!-- b8 -->
<g id="node19" class="node">
<title>b8</title>
<polygon fill="none" stroke="black" points="949,-685 875,-685 875,-649 949,-649 949,-685"/>
<text text-anchor="middle" x="912" y="-663.3" font-family="Times New Roman,serif" font-size="14.00">hash_map</text>
</g>
<!-- b9 -->
<g id="node20" class="node">
<title>b9</title>
<polygon fill="none" stroke="black" points="958,-612 866,-612 866,-576 958,-576 958,-612"/>
<text text-anchor="middle" x="912" y="-590.3" font-family="Times New Roman,serif" font-size="14.00">hash_multiset</text>
</g>
<!-- b8&#45;&gt;b9 -->
<!-- b10 -->
<g id="node21" class="node">
<title>b10</title>
<polygon fill="none" stroke="black" points="962.5,-540 861.5,-540 861.5,-504 962.5,-504 962.5,-540"/>
<text text-anchor="middle" x="912" y="-518.3" font-family="Times New Roman,serif" font-size="14.00">hash_multimap</text>
</g>
<!-- b9&#45;&gt;b10 -->
</g>
</svg>
