<?xml version="1.0" encoding="UTF-8" standalone="no"?>
<!DOCTYPE svg PUBLIC "-//W3C//DTD SVG 1.1//EN"
 "http://www.w3.org/Graphics/SVG/1.1/DTD/svg11.dtd">
<!-- Generated by graphviz version 2.47.1 (20210417.1919)
 -->
<!-- Title: test Pages: 1 -->
<svg width="365pt" height="196pt"
 viewBox="0.00 0.00 365.00 196.00" xmlns="http://www.w3.org/2000/svg" xmlns:xlink="http://www.w3.org/1999/xlink">
<g id="graph0" class="graph" transform="scale(1 1) rotate(0) translate(4 192)">
<title>test</title>
<polygon fill="white" stroke="transparent" points="-4,4 -4,-192 361,-192 361,4 -4,4"/>
<!-- abc -->
<g id="node1" class="node">
<title>abc</title>
<polygon fill="lightgray" stroke="transparent" points="1.5,-156 1.5,-187 183.5,-187 183.5,-156 1.5,-156"/>
<text text-anchor="start" x="76.5" y="-167.8" font-family="Times New Roman,serif" font-size="14.00">类型</text>
<polygon fill="lightgray" stroke="transparent" points="183.5,-156 183.5,-187 356.5,-187 356.5,-156 183.5,-156"/>
<text text-anchor="start" x="254" y="-167.8" font-family="Times New Roman,serif" font-size="14.00">定义</text>
<text text-anchor="start" x="65" y="-136.8" font-family="Times New Roman,serif" font-size="14.00">std::string</text>
<text text-anchor="start" x="204" y="-136.8" font-family="Times New Roman,serif" font-size="14.00">std::basic_string&lt;char&gt;</text>
<text text-anchor="start" x="60.5" y="-105.8" font-family="Times New Roman,serif" font-size="14.00">std::wstring</text>
<text text-anchor="start" x="193.5" y="-105.8" font-family="Times New Roman,serif" font-size="14.00">std::basic_string&lt;wchar_t&gt;</text>
<text text-anchor="start" x="13" y="-74.8" font-family="Times New Roman,serif" font-size="14.00">std::u8string（C++20 起）</text>
<text text-anchor="start" x="195" y="-74.8" font-family="Times New Roman,serif" font-size="14.00">std::basic_string&lt;char8_t&gt;</text>
<text text-anchor="start" x="9.5" y="-43.8" font-family="Times New Roman,serif" font-size="14.00">std::u16string（C++11 起）</text>
<text text-anchor="start" x="191.5" y="-43.8" font-family="Times New Roman,serif" font-size="14.00">std::basic_string&lt;char16_t&gt;</text>
<text text-anchor="start" x="9.5" y="-12.8" font-family="Times New Roman,serif" font-size="14.00">std::u32string（C++11 起）</text>
<text text-anchor="start" x="191.5" y="-12.8" font-family="Times New Roman,serif" font-size="14.00">std::basic_string&lt;char32_t&gt;</text>
<polygon fill="none" stroke="black" points="0,0 0,-188 357,-188 357,0 0,0"/>
</g>
</g>
</svg>
