<?xml version="1.0" encoding="UTF-8" standalone="no"?>
<!DOCTYPE svg PUBLIC "-//W3C//DTD SVG 1.1//EN"
 "http://www.w3.org/Graphics/SVG/1.1/DTD/svg11.dtd">
<!-- Generated by graphviz version 2.47.1 (20210417.1919)
 -->
<!-- Title: test Pages: 1 -->
<svg width="306pt" height="596pt"
 viewBox="0.00 0.00 305.50 596.00" xmlns="http://www.w3.org/2000/svg" xmlns:xlink="http://www.w3.org/1999/xlink">
<g id="graph0" class="graph" transform="scale(1 1) rotate(0) translate(4 592)">
<title>test</title>
<!-- a0 -->
<g id="node1" class="node">
<title>a0</title>
<text text-anchor="middle" x="67" y="-572.8" font-family="Times New Roman,serif" font-size="14.00">序列式容器</text>
<text text-anchor="middle" x="67" y="-557.8" font-family="Times New Roman,serif" font-size="14.00">Sequence Containers</text>
</g>
<!-- a1 -->
<g id="node3" class="node">
<title>a1</title>
<polygon fill="none" stroke="black" points="104,-514 30,-514 30,-495 104,-495 104,-514"/>
<text text-anchor="middle" x="67" y="-502" font-family="Times New Roman,serif" font-size="10.00">Array(built&#45;in)</text>
</g>
<!-- a0&#45;&gt;a1 -->
<!-- b0 -->
<g id="node2" class="node">
<title>b0</title>
<text text-anchor="middle" x="225" y="-572.8" font-family="Times New Roman,serif" font-size="14.00">关联式容器</text>
<text text-anchor="middle" x="225" y="-557.8" font-family="Times New Roman,serif" font-size="14.00">Associative Containers</text>
</g>
<!-- b1 -->
<g id="node12" class="node">
<title>b1</title>
<polygon fill="none" stroke="black" points="248.5,-514 201.5,-514 201.5,-495 248.5,-495 248.5,-514"/>
<text text-anchor="middle" x="225" y="-502" font-family="Times New Roman,serif" font-size="10.00">RB&#45;tree</text>
</g>
<!-- b0&#45;&gt;b1 -->
<!-- a2 -->
<g id="node4" class="node">
<title>a2</title>
<polygon fill="none" stroke="black" points="88.5,-459 45.5,-459 45.5,-440 88.5,-440 88.5,-459"/>
<text text-anchor="middle" x="67" y="-447" font-family="Times New Roman,serif" font-size="10.00">Vector</text>
</g>
<!-- a1&#45;&gt;a2 -->
<!-- a3 -->
<g id="node5" class="node">
<title>a3</title>
<polygon fill="none" stroke="black" points="85,-404 49,-404 49,-385 85,-385 85,-404"/>
<text text-anchor="middle" x="67" y="-392" font-family="Times New Roman,serif" font-size="10.00">heap</text>
</g>
<!-- a2&#45;&gt;a3 -->
<!-- a4 -->
<g id="node6" class="node">
<title>a4</title>
<polygon fill="none" stroke="black" points="104,-349 30,-349 30,-330 104,-330 104,-349"/>
<text text-anchor="middle" x="67" y="-337" font-family="Times New Roman,serif" font-size="10.00">priority&#45;queue</text>
</g>
<!-- a3&#45;&gt;a4 -->
<!-- a5 -->
<g id="node7" class="node">
<title>a5</title>
<polygon fill="none" stroke="black" points="81.5,-294 52.5,-294 52.5,-275 81.5,-275 81.5,-294"/>
<text text-anchor="middle" x="67" y="-282" font-family="Times New Roman,serif" font-size="10.00">list</text>
</g>
<!-- a4&#45;&gt;a5 -->
<!-- a6 -->
<g id="node8" class="node">
<title>a6</title>
<polygon fill="none" stroke="black" points="83.5,-239 50.5,-239 50.5,-220 83.5,-220 83.5,-239"/>
<text text-anchor="middle" x="67" y="-227" font-family="Times New Roman,serif" font-size="10.00">slist</text>
</g>
<!-- a5&#45;&gt;a6 -->
<!-- a7 -->
<g id="node9" class="node">
<title>a7</title>
<polygon fill="none" stroke="black" points="87.5,-184 46.5,-184 46.5,-165 87.5,-165 87.5,-184"/>
<text text-anchor="middle" x="67" y="-172" font-family="Times New Roman,serif" font-size="10.00">deque</text>
</g>
<!-- a6&#45;&gt;a7 -->
<!-- a8 -->
<g id="node10" class="node">
<title>a8</title>
<polygon fill="none" stroke="black" points="86,-129 48,-129 48,-110 86,-110 86,-129"/>
<text text-anchor="middle" x="67" y="-117" font-family="Times New Roman,serif" font-size="10.00">stack</text>
</g>
<!-- a7&#45;&gt;a8 -->
<!-- a9 -->
<g id="node11" class="node">
<title>a9</title>
<polygon fill="none" stroke="black" points="87.5,-74 46.5,-74 46.5,-55 87.5,-55 87.5,-74"/>
<text text-anchor="middle" x="67" y="-62" font-family="Times New Roman,serif" font-size="10.00">queue</text>
</g>
<!-- a8&#45;&gt;a9 -->
<!-- b2 -->
<g id="node13" class="node">
<title>b2</title>
<polygon fill="none" stroke="black" points="239.5,-459 210.5,-459 210.5,-440 239.5,-440 239.5,-459"/>
<text text-anchor="middle" x="225" y="-447" font-family="Times New Roman,serif" font-size="10.00">set</text>
</g>
<!-- b1&#45;&gt;b2 -->
<!-- b3 -->
<g id="node14" class="node">
<title>b3</title>
<polygon fill="none" stroke="black" points="241.5,-404 208.5,-404 208.5,-385 241.5,-385 241.5,-404"/>
<text text-anchor="middle" x="225" y="-392" font-family="Times New Roman,serif" font-size="10.00">map</text>
</g>
<!-- b2&#45;&gt;b3 -->
<!-- b4 -->
<g id="node15" class="node">
<title>b4</title>
<polygon fill="none" stroke="black" points="249,-349 201,-349 201,-330 249,-330 249,-349"/>
<text text-anchor="middle" x="225" y="-337" font-family="Times New Roman,serif" font-size="10.00">multiset</text>
</g>
<!-- b3&#45;&gt;b4 -->
<!-- b5 -->
<g id="node16" class="node">
<title>b5</title>
<polygon fill="none" stroke="black" points="251.5,-294 198.5,-294 198.5,-275 251.5,-275 251.5,-294"/>
<text text-anchor="middle" x="225" y="-282" font-family="Times New Roman,serif" font-size="10.00">multimap</text>
</g>
<!-- b4&#45;&gt;b5 -->
<!-- b6 -->
<g id="node17" class="node">
<title>b6</title>
<polygon fill="none" stroke="black" points="253,-239 197,-239 197,-220 253,-220 253,-239"/>
<text text-anchor="middle" x="225" y="-227" font-family="Times New Roman,serif" font-size="10.00">hashtable</text>
</g>
<!-- b5&#45;&gt;b6 -->
<!-- b7 -->
<g id="node18" class="node">
<title>b7</title>
<polygon fill="none" stroke="black" points="251.5,-184 198.5,-184 198.5,-165 251.5,-165 251.5,-184"/>
<text text-anchor="middle" x="225" y="-172" font-family="Times New Roman,serif" font-size="10.00">hash_set</text>
</g>
<!-- b6&#45;&gt;b7 -->
<!-- b8 -->
<g id="node19" class="node">
<title>b8</title>
<polygon fill="none" stroke="black" points="254,-129 196,-129 196,-110 254,-110 254,-129"/>
<text text-anchor="middle" x="225" y="-117" font-family="Times New Roman,serif" font-size="10.00">hash_map</text>
</g>
<!-- b7&#45;&gt;b8 -->
<!-- b9 -->
<g id="node20" class="node">
<title>b9</title>
<polygon fill="none" stroke="black" points="261.5,-74 188.5,-74 188.5,-55 261.5,-55 261.5,-74"/>
<text text-anchor="middle" x="225" y="-62" font-family="Times New Roman,serif" font-size="10.00">hash_multiset</text>
</g>
<!-- b8&#45;&gt;b9 -->
<!-- b10 -->
<g id="node21" class="node">
<title>b10</title>
<polygon fill="none" stroke="black" points="263.5,-19 186.5,-19 186.5,0 263.5,0 263.5,-19"/>
<text text-anchor="middle" x="225" y="-7" font-family="Times New Roman,serif" font-size="10.00">hash_multimap</text>
</g>
<!-- b9&#45;&gt;b10 -->
</g>
</svg>
