<?xml version="1.0" encoding="UTF-8" standalone="no"?>
<!DOCTYPE svg PUBLIC "-//W3C//DTD SVG 1.1//EN"
 "http://www.w3.org/Graphics/SVG/1.1/DTD/svg11.dtd">
<!-- Generated by graphviz version 2.47.1 (20210417.1919)
 -->
<!-- Title: test Pages: 1 -->
<svg width="408pt" height="196pt"
 viewBox="0.00 0.00 408.00 196.00" xmlns="http://www.w3.org/2000/svg" xmlns:xlink="http://www.w3.org/1999/xlink">
<g id="graph0" class="graph" transform="scale(1 1) rotate(0) translate(4 192)">
<title>test</title>
<polygon fill="white" stroke="transparent" points="-4,4 -4,-192 404,-192 404,4 -4,4"/>
<!-- abc -->
<g id="node1" class="node">
<title>abc</title>
<polygon fill="lightgray" stroke="transparent" points="1,-156 1,-187 66,-187 66,-156 1,-156"/>
<text text-anchor="start" x="16" y="-167.8" font-family="Times New Roman,serif" font-size="14.00">类型</text>
<polygon fill="lightgray" stroke="transparent" points="66,-156 66,-187 168,-187 168,-156 66,-156"/>
<text text-anchor="start" x="99.5" y="-167.8" font-family="Times New Roman,serif" font-size="14.00">含义</text>
<polygon fill="lightgray" stroke="transparent" points="168,-156 168,-187 254,-187 254,-156 168,-156"/>
<text text-anchor="start" x="176" y="-167.8" font-family="Times New Roman,serif" font-size="14.00">最小尺寸</text>
<text text-anchor="start" x="20.5" y="-136.8" font-family="Times New Roman,serif" font-size="14.00">bool</text>
<text text-anchor="start" x="82" y="-136.8" font-family="Times New Roman,serif" font-size="14.00">布尔类型</text>
<text text-anchor="start" x="185" y="-136.8" font-family="Times New Roman,serif" font-size="14.00">未定义</text>
<text text-anchor="start" x="21" y="-105.8" font-family="Times New Roman,serif" font-size="14.00">char</text>
<text text-anchor="start" x="99.5" y="-105.8" font-family="Times New Roman,serif" font-size="14.00">字符</text>
<text text-anchor="start" x="197" y="-105.8" font-family="Times New Roman,serif" font-size="14.00">8 位</text>
<text text-anchor="start" x="10.5" y="-74.8" font-family="Times New Roman,serif" font-size="14.00">wchar_t</text>
<text text-anchor="start" x="91" y="-74.8" font-family="Times New Roman,serif" font-size="14.00">宽字符</text>
<text text-anchor="start" x="193.5" y="-74.8" font-family="Times New Roman,serif" font-size="14.00">16 位</text>
<text text-anchor="start" x="9" y="-43.8" font-family="Times New Roman,serif" font-size="14.00">char16_t</text>
<text text-anchor="start" x="74" y="-43.8" font-family="Times New Roman,serif" font-size="14.00">Unicode 字符</text>
<text text-anchor="start" x="193.5" y="-43.8" font-family="Times New Roman,serif" font-size="14.00">16 位</text>
<text text-anchor="start" x="9" y="-12.8" font-family="Times New Roman,serif" font-size="14.00">char32_t</text>
<text text-anchor="start" x="74" y="-12.8" font-family="Times New Roman,serif" font-size="14.00">Unicode 字符</text>
<text text-anchor="start" x="193.5" y="-12.8" font-family="Times New Roman,serif" font-size="14.00">32 位</text>
<polygon fill="none" stroke="black" points="0,0 0,-188 400,-188 400,0 0,0"/>
</g>
</g>
</svg>
