<?xml version="1.0" encoding="UTF-8" standalone="no"?>
<!DOCTYPE svg PUBLIC "-//W3C//DTD SVG 1.1//EN"
 "http://www.w3.org/Graphics/SVG/1.1/DTD/svg11.dtd">
<!-- Generated by graphviz version 2.47.1 (20210417.1919)
 -->
<!-- Title: test Pages: 1 -->
<svg width="306pt" height="766pt"
 viewBox="0.00 0.00 305.50 766.00" xmlns="http://www.w3.org/2000/svg" xmlns:xlink="http://www.w3.org/1999/xlink">
<g id="graph0" class="graph" transform="scale(1 1) rotate(0) translate(4 762)">
<title>test</title>
<!-- a0 -->
<g id="node1" class="node">
<title>a0</title>
<text text-anchor="middle" x="67" y="-742.8" font-family="Times New Roman,serif" font-size="14.00">序列式容器</text>
<text text-anchor="middle" x="67" y="-727.8" font-family="Times New Roman,serif" font-size="14.00">Sequence Containers</text>
</g>
<!-- a1 -->
<g id="node3" class="node">
<title>a1</title>
<polygon fill="none" stroke="black" points="114.5,-684 19.5,-684 19.5,-648 114.5,-648 114.5,-684"/>
<text text-anchor="middle" x="67" y="-662.3" font-family="Times New Roman,serif" font-size="14.00">Array(built&#45;in)</text>
</g>
<!-- a0&#45;&gt;a1 -->
<!-- b0 -->
<g id="node2" class="node">
<title>b0</title>
<text text-anchor="middle" x="225" y="-742.8" font-family="Times New Roman,serif" font-size="14.00">关联式容器</text>
<text text-anchor="middle" x="225" y="-727.8" font-family="Times New Roman,serif" font-size="14.00">Associative Containers</text>
</g>
<!-- b1 -->
<g id="node12" class="node">
<title>b1</title>
<polygon fill="none" stroke="black" points="255,-684 195,-684 195,-648 255,-648 255,-684"/>
<text text-anchor="middle" x="225" y="-662.3" font-family="Times New Roman,serif" font-size="14.00">RB&#45;tree</text>
</g>
<!-- b0&#45;&gt;b1 -->
<!-- a2 -->
<g id="node4" class="node">
<title>a2</title>
<polygon fill="none" stroke="black" points="94.5,-612 39.5,-612 39.5,-576 94.5,-576 94.5,-612"/>
<text text-anchor="middle" x="67" y="-590.3" font-family="Times New Roman,serif" font-size="14.00">Vector</text>
</g>
<!-- a1&#45;&gt;a2 -->
<!-- a3 -->
<g id="node5" class="node">
<title>a3</title>
<polygon fill="none" stroke="black" points="94,-540 40,-540 40,-504 94,-504 94,-540"/>
<text text-anchor="middle" x="67" y="-518.3" font-family="Times New Roman,serif" font-size="14.00">heap</text>
</g>
<!-- a2&#45;&gt;a3 -->
<!-- a4 -->
<g id="node6" class="node">
<title>a4</title>
<polygon fill="none" stroke="black" points="114.5,-468 19.5,-468 19.5,-432 114.5,-432 114.5,-468"/>
<text text-anchor="middle" x="67" y="-446.3" font-family="Times New Roman,serif" font-size="14.00">priority&#45;queue</text>
</g>
<!-- a3&#45;&gt;a4 -->
<!-- a5 -->
<g id="node7" class="node">
<title>a5</title>
<polygon fill="none" stroke="black" points="94,-396 40,-396 40,-360 94,-360 94,-396"/>
<text text-anchor="middle" x="67" y="-374.3" font-family="Times New Roman,serif" font-size="14.00">list</text>
</g>
<!-- a4&#45;&gt;a5 -->
<!-- a6 -->
<g id="node8" class="node">
<title>a6</title>
<polygon fill="none" stroke="black" points="94,-324 40,-324 40,-288 94,-288 94,-324"/>
<text text-anchor="middle" x="67" y="-302.3" font-family="Times New Roman,serif" font-size="14.00">slist</text>
</g>
<!-- a5&#45;&gt;a6 -->
<!-- a7 -->
<g id="node9" class="node">
<title>a7</title>
<polygon fill="none" stroke="black" points="94,-252 40,-252 40,-216 94,-216 94,-252"/>
<text text-anchor="middle" x="67" y="-230.3" font-family="Times New Roman,serif" font-size="14.00">deque</text>
</g>
<!-- a6&#45;&gt;a7 -->
<!-- a8 -->
<g id="node10" class="node">
<title>a8</title>
<polygon fill="none" stroke="black" points="94,-180 40,-180 40,-144 94,-144 94,-180"/>
<text text-anchor="middle" x="67" y="-158.3" font-family="Times New Roman,serif" font-size="14.00">stack</text>
</g>
<!-- a7&#45;&gt;a8 -->
<!-- a9 -->
<g id="node11" class="node">
<title>a9</title>
<polygon fill="none" stroke="black" points="94,-108 40,-108 40,-72 94,-72 94,-108"/>
<text text-anchor="middle" x="67" y="-86.3" font-family="Times New Roman,serif" font-size="14.00">queue</text>
</g>
<!-- a8&#45;&gt;a9 -->
<!-- b2 -->
<g id="node13" class="node">
<title>b2</title>
<polygon fill="none" stroke="black" points="252,-612 198,-612 198,-576 252,-576 252,-612"/>
<text text-anchor="middle" x="225" y="-590.3" font-family="Times New Roman,serif" font-size="14.00">set</text>
</g>
<!-- b1&#45;&gt;b2 -->
<!-- b3 -->
<g id="node14" class="node">
<title>b3</title>
<polygon fill="none" stroke="black" points="252,-540 198,-540 198,-504 252,-504 252,-540"/>
<text text-anchor="middle" x="225" y="-518.3" font-family="Times New Roman,serif" font-size="14.00">map</text>
</g>
<!-- b2&#45;&gt;b3 -->
<!-- b4 -->
<g id="node15" class="node">
<title>b4</title>
<polygon fill="none" stroke="black" points="254.5,-468 195.5,-468 195.5,-432 254.5,-432 254.5,-468"/>
<text text-anchor="middle" x="225" y="-446.3" font-family="Times New Roman,serif" font-size="14.00">multiset</text>
</g>
<!-- b3&#45;&gt;b4 -->
<!-- b5 -->
<g id="node16" class="node">
<title>b5</title>
<polygon fill="none" stroke="black" points="259,-396 191,-396 191,-360 259,-360 259,-396"/>
<text text-anchor="middle" x="225" y="-374.3" font-family="Times New Roman,serif" font-size="14.00">multimap</text>
</g>
<!-- b4&#45;&gt;b5 -->
<!-- b6 -->
<g id="node17" class="node">
<title>b6</title>
<polygon fill="none" stroke="black" points="259,-324 191,-324 191,-288 259,-288 259,-324"/>
<text text-anchor="middle" x="225" y="-302.3" font-family="Times New Roman,serif" font-size="14.00">hashtable</text>
</g>
<!-- b5&#45;&gt;b6 -->
<!-- b7 -->
<g id="node18" class="node">
<title>b7</title>
<polygon fill="none" stroke="black" points="257.5,-252 192.5,-252 192.5,-216 257.5,-216 257.5,-252"/>
<text text-anchor="middle" x="225" y="-230.3" font-family="Times New Roman,serif" font-size="14.00">hash_set</text>
</g>
<!-- b6&#45;&gt;b7 -->
<!-- b8 -->
<g id="node19" class="node">
<title>b8</title>
<polygon fill="none" stroke="black" points="262,-180 188,-180 188,-144 262,-144 262,-180"/>
<text text-anchor="middle" x="225" y="-158.3" font-family="Times New Roman,serif" font-size="14.00">hash_map</text>
</g>
<!-- b7&#45;&gt;b8 -->
<!-- b9 -->
<g id="node20" class="node">
<title>b9</title>
<polygon fill="none" stroke="black" points="271,-108 179,-108 179,-72 271,-72 271,-108"/>
<text text-anchor="middle" x="225" y="-86.3" font-family="Times New Roman,serif" font-size="14.00">hash_multiset</text>
</g>
<!-- b8&#45;&gt;b9 -->
<!-- b10 -->
<g id="node21" class="node">
<title>b10</title>
<polygon fill="none" stroke="black" points="275.5,-36 174.5,-36 174.5,0 275.5,0 275.5,-36"/>
<text text-anchor="middle" x="225" y="-14.3" font-family="Times New Roman,serif" font-size="14.00">hash_multimap</text>
</g>
<!-- b9&#45;&gt;b10 -->
</g>
</svg>
