<?xml version="1.0" encoding="UTF-8" standalone="no"?>
<!DOCTYPE svg PUBLIC "-//W3C//DTD SVG 1.1//EN"
 "http://www.w3.org/Graphics/SVG/1.1/DTD/svg11.dtd">
<!-- Generated by graphviz version 2.47.1 (20210417.1919)
 -->
<!-- Title: test Pages: 1 -->
<svg width="269pt" height="241pt"
 viewBox="0.00 0.00 269.00 241.00" xmlns="http://www.w3.org/2000/svg" xmlns:xlink="http://www.w3.org/1999/xlink">
<g id="graph0" class="graph" transform="scale(1 1) rotate(0) translate(4 237)">
<title>test</title>
<polygon fill="white" stroke="transparent" points="-4,4 -4,-237 265,-237 265,4 -4,4"/>
<!-- abc -->
<g id="node1" class="node">
<title>abc</title>
<polygon fill="lightgray" stroke="transparent" points="1.5,-198.5 1.5,-231.5 260.5,-231.5 260.5,-198.5 1.5,-198.5"/>
<polygon fill="none" stroke="black" points="1.5,-198.5 1.5,-231.5 260.5,-231.5 260.5,-198.5 1.5,-198.5"/>
<text text-anchor="start" x="81" y="-211.3" font-family="Times New Roman,serif" font-size="14.00">C++ 算术类型</text>
<polygon fill="none" stroke="black" points="1.5,-165.5 1.5,-198.5 68.5,-198.5 68.5,-165.5 1.5,-165.5"/>
<text text-anchor="start" x="17.5" y="-178.3" font-family="Times New Roman,serif" font-size="14.00">类型</text>
<polygon fill="none" stroke="black" points="68.5,-165.5 68.5,-198.5 172.5,-198.5 172.5,-165.5 68.5,-165.5"/>
<text text-anchor="start" x="103" y="-178.3" font-family="Times New Roman,serif" font-size="14.00">含义</text>
<polygon fill="none" stroke="black" points="172.5,-165.5 172.5,-198.5 260.5,-198.5 260.5,-165.5 172.5,-165.5"/>
<text text-anchor="start" x="181.5" y="-178.3" font-family="Times New Roman,serif" font-size="14.00">最小尺寸</text>
<polygon fill="none" stroke="black" points="1.5,-132.5 1.5,-165.5 68.5,-165.5 68.5,-132.5 1.5,-132.5"/>
<text text-anchor="start" x="22" y="-145.3" font-family="Times New Roman,serif" font-size="14.00">bool</text>
<polygon fill="none" stroke="black" points="68.5,-132.5 68.5,-165.5 172.5,-165.5 172.5,-132.5 68.5,-132.5"/>
<text text-anchor="start" x="85.5" y="-145.3" font-family="Times New Roman,serif" font-size="14.00">布尔类型</text>
<polygon fill="none" stroke="black" points="172.5,-132.5 172.5,-165.5 260.5,-165.5 260.5,-132.5 172.5,-132.5"/>
<text text-anchor="start" x="190.5" y="-145.3" font-family="Times New Roman,serif" font-size="14.00">未定义</text>
<polygon fill="none" stroke="black" points="1.5,-99.5 1.5,-132.5 68.5,-132.5 68.5,-99.5 1.5,-99.5"/>
<text text-anchor="start" x="22.5" y="-112.3" font-family="Times New Roman,serif" font-size="14.00">char</text>
<polygon fill="none" stroke="black" points="68.5,-99.5 68.5,-132.5 172.5,-132.5 172.5,-99.5 68.5,-99.5"/>
<text text-anchor="start" x="103" y="-112.3" font-family="Times New Roman,serif" font-size="14.00">字符</text>
<polygon fill="none" stroke="black" points="172.5,-99.5 172.5,-132.5 260.5,-132.5 260.5,-99.5 172.5,-99.5"/>
<text text-anchor="start" x="202.5" y="-112.3" font-family="Times New Roman,serif" font-size="14.00">8 位</text>
<polygon fill="none" stroke="black" points="1.5,-66.5 1.5,-99.5 68.5,-99.5 68.5,-66.5 1.5,-66.5"/>
<text text-anchor="start" x="12" y="-79.3" font-family="Times New Roman,serif" font-size="14.00">wchar_t</text>
<polygon fill="none" stroke="black" points="68.5,-66.5 68.5,-99.5 172.5,-99.5 172.5,-66.5 68.5,-66.5"/>
<text text-anchor="start" x="94.5" y="-79.3" font-family="Times New Roman,serif" font-size="14.00">宽字符</text>
<polygon fill="none" stroke="black" points="172.5,-66.5 172.5,-99.5 260.5,-99.5 260.5,-66.5 172.5,-66.5"/>
<text text-anchor="start" x="199" y="-79.3" font-family="Times New Roman,serif" font-size="14.00">16 位</text>
<polygon fill="none" stroke="black" points="1.5,-33.5 1.5,-66.5 68.5,-66.5 68.5,-33.5 1.5,-33.5"/>
<text text-anchor="start" x="10.5" y="-46.3" font-family="Times New Roman,serif" font-size="14.00">char16_t</text>
<polygon fill="none" stroke="black" points="68.5,-33.5 68.5,-66.5 172.5,-66.5 172.5,-33.5 68.5,-33.5"/>
<text text-anchor="start" x="77.5" y="-46.3" font-family="Times New Roman,serif" font-size="14.00">Unicode 字符</text>
<polygon fill="none" stroke="black" points="172.5,-33.5 172.5,-66.5 260.5,-66.5 260.5,-33.5 172.5,-33.5"/>
<text text-anchor="start" x="199" y="-46.3" font-family="Times New Roman,serif" font-size="14.00">16 位</text>
<polygon fill="none" stroke="black" points="1.5,-0.5 1.5,-33.5 68.5,-33.5 68.5,-0.5 1.5,-0.5"/>
<text text-anchor="start" x="10.5" y="-13.3" font-family="Times New Roman,serif" font-size="14.00">char32_t</text>
<polygon fill="none" stroke="black" points="68.5,-0.5 68.5,-33.5 172.5,-33.5 172.5,-0.5 68.5,-0.5"/>
<text text-anchor="start" x="77.5" y="-13.3" font-family="Times New Roman,serif" font-size="14.00">Unicode 字符</text>
<polygon fill="none" stroke="black" points="172.5,-0.5 172.5,-33.5 260.5,-33.5 260.5,-0.5 172.5,-0.5"/>
<text text-anchor="start" x="199" y="-13.3" font-family="Times New Roman,serif" font-size="14.00">32 位</text>
<polygon fill="none" stroke="black" points="0,0 0,-233 261,-233 261,0 0,0"/>
</g>
</g>
</svg>
