<?xml version="1.0" encoding="UTF-8" standalone="no"?>
<!DOCTYPE svg PUBLIC "-//W3C//DTD SVG 1.1//EN"
 "http://www.w3.org/Graphics/SVG/1.1/DTD/svg11.dtd">
<!-- Generated by graphviz version 2.47.1 (20210417.1919)
 -->
<!-- Title: test Pages: 1 -->
<svg width="251pt" height="155pt"
 viewBox="0.00 0.00 251.00 155.00" xmlns="http://www.w3.org/2000/svg" xmlns:xlink="http://www.w3.org/1999/xlink">
<g id="graph0" class="graph" transform="scale(1 1) rotate(0) translate(4 151)">
<title>test</title>
<!-- a -->
<g id="node1" class="node">
<title>a</title>
<polygon fill="none" stroke="black" points="0,-27.5 0,-63.5 79,-63.5 79,-27.5 0,-27.5"/>
<text text-anchor="middle" x="39.5" y="-41.8" font-family="Times New Roman,serif" font-size="14.00">&lt;memory&gt;</text>
</g>
<!-- b -->
<g id="node2" class="node">
<title>b</title>
<polygon fill="none" stroke="black" points="121,-55.5 121,-91.5 237,-91.5 237,-55.5 121,-55.5"/>
<text text-anchor="middle" x="179" y="-69.8" font-family="Times New Roman,serif" font-size="14.00">&lt;stl_construct.h&gt;</text>
</g>
<!-- a&#45;&gt;b -->
<g id="edge1" class="edge">
<title>a:e&#45;&gt;b:w</title>
<path fill="none" stroke="black" stroke-dasharray="5,2" d="M79,-45.5C97.1,-45.5 98.25,-64.34 110.25,-71.11"/>
<polygon fill="black" stroke="black" points="109.45,-74.52 120,-73.5 111.12,-67.72 109.45,-74.52"/>
</g>
<!-- d -->
<g id="node4" class="node">
<title>d</title>
<polygon fill="none" stroke="black" points="115,-0.5 115,-36.5 243,-36.5 243,-0.5 115,-0.5"/>
<text text-anchor="middle" x="179" y="-14.8" font-family="Times New Roman,serif" font-size="14.00">&lt;stl_uninitialized.h&gt;</text>
</g>
<!-- a&#45;&gt;d -->
<g id="edge3" class="edge">
<title>a:e&#45;&gt;d:w</title>
<path fill="none" stroke="black" stroke-dasharray="5,2" d="M79,-45.5C94.94,-45.5 95.63,-28.35 105.38,-21.39"/>
<polygon fill="black" stroke="black" points="106.43,-24.73 115,-18.5 104.42,-18.02 106.43,-24.73"/>
</g>
<!-- c -->
<g id="node3" class="node">
<title>c</title>
<polygon fill="none" stroke="black" points="135.5,-110.5 135.5,-146.5 222.5,-146.5 222.5,-110.5 135.5,-110.5"/>
<text text-anchor="middle" x="179" y="-124.8" font-family="Times New Roman,serif" font-size="14.00">&lt;stl_aloc.h&gt;</text>
</g>
<!-- e -->
<g id="node5" class="node">
<title>e</title>
<polygon fill="none" stroke="black" points="12.5,-110.5 12.5,-146.5 66.5,-146.5 66.5,-110.5 12.5,-110.5"/>
<text text-anchor="middle" x="39.5" y="-124.8" font-family="Times New Roman,serif" font-size="14.00">e</text>
</g>
<!-- e&#45;&gt;c -->
<g id="edge2" class="edge">
<title>e&#45;&gt;c:w</title>
<path fill="none" stroke="black" stroke-dasharray="5,2" d="M66.7,-128.5C82.73,-128.5 103.96,-128.5 123.98,-128.5"/>
<polygon fill="black" stroke="black" points="124,-132 134,-128.5 124,-125 124,-132"/>
</g>
</g>
</svg>
