<?xml version="1.0" encoding="UTF-8" standalone="no"?>
<!DOCTYPE svg PUBLIC "-//W3C//DTD SVG 1.1//EN"
 "http://www.w3.org/Graphics/SVG/1.1/DTD/svg11.dtd">
<!-- Generated by graphviz version 2.47.1 (20210417.1919)
 -->
<!-- Title: test Pages: 1 -->
<svg width="408pt" height="124pt"
 viewBox="0.00 0.00 408.00 124.00" xmlns="http://www.w3.org/2000/svg" xmlns:xlink="http://www.w3.org/1999/xlink">
<g id="graph0" class="graph" transform="scale(1 1) rotate(0) translate(4 120)">
<title>test</title>
<polygon fill="white" stroke="transparent" points="-4,4 -4,-120 404,-120 404,4 -4,4"/>
<!-- abc -->
<g id="node1" class="node">
<title>abc</title>
<polygon fill="lightgray" stroke="transparent" points="1,-96 1,-115 54,-115 54,-96 1,-96"/>
<text text-anchor="start" x="10" y="-101.8" font-family="Times New Roman,serif" font-size="14.00">类型</text>
<polygon fill="lightgray" stroke="transparent" points="54,-96 54,-115 144,-115 144,-96 54,-96"/>
<text text-anchor="start" x="81.5" y="-101.8" font-family="Times New Roman,serif" font-size="14.00">含义</text>
<polygon fill="lightgray" stroke="transparent" points="144,-96 144,-115 218,-115 218,-96 144,-96"/>
<text text-anchor="start" x="146" y="-101.8" font-family="Times New Roman,serif" font-size="14.00">最小尺寸</text>
<text text-anchor="start" x="14.5" y="-82.8" font-family="Times New Roman,serif" font-size="14.00">bool</text>
<text text-anchor="start" x="64" y="-82.8" font-family="Times New Roman,serif" font-size="14.00">布尔类型</text>
<text text-anchor="start" x="155" y="-82.8" font-family="Times New Roman,serif" font-size="14.00">未定义</text>
<text text-anchor="start" x="15" y="-63.8" font-family="Times New Roman,serif" font-size="14.00">char</text>
<text text-anchor="start" x="81.5" y="-63.8" font-family="Times New Roman,serif" font-size="14.00">字符</text>
<text text-anchor="start" x="167" y="-63.8" font-family="Times New Roman,serif" font-size="14.00">8 位</text>
<text text-anchor="start" x="4.5" y="-44.8" font-family="Times New Roman,serif" font-size="14.00">wchar_t</text>
<text text-anchor="start" x="73" y="-44.8" font-family="Times New Roman,serif" font-size="14.00">宽字符</text>
<text text-anchor="start" x="163.5" y="-44.8" font-family="Times New Roman,serif" font-size="14.00">16 位</text>
<text text-anchor="start" x="3" y="-25.8" font-family="Times New Roman,serif" font-size="14.00">char16_t</text>
<text text-anchor="start" x="56" y="-25.8" font-family="Times New Roman,serif" font-size="14.00">Unicode 字符</text>
<text text-anchor="start" x="163.5" y="-25.8" font-family="Times New Roman,serif" font-size="14.00">16 位</text>
<text text-anchor="start" x="3" y="-6.8" font-family="Times New Roman,serif" font-size="14.00">char32_t</text>
<text text-anchor="start" x="56" y="-6.8" font-family="Times New Roman,serif" font-size="14.00">Unicode 字符</text>
<text text-anchor="start" x="163.5" y="-6.8" font-family="Times New Roman,serif" font-size="14.00">32 位</text>
<polygon fill="none" stroke="black" points="0,0 0,-116 400,-116 400,0 0,0"/>
</g>
</g>
</svg>
