<?xml version="1.0" encoding="UTF-8" standalone="no"?>
<!DOCTYPE svg PUBLIC "-//W3C//DTD SVG 1.1//EN"
 "http://www.w3.org/Graphics/SVG/1.1/DTD/svg11.dtd">
<!-- Generated by graphviz version 2.47.1 (20210417.1919)
 -->
<!-- Title: test Pages: 1 -->
<svg width="250pt" height="163pt"
 viewBox="0.00 0.00 250.21 163.00" xmlns="http://www.w3.org/2000/svg" xmlns:xlink="http://www.w3.org/1999/xlink">
<g id="graph0" class="graph" transform="scale(1 1) rotate(0) translate(4 159)">
<title>test</title>
<!-- a -->
<g id="node1" class="node">
<title>a</title>
<polygon fill="none" stroke="black" points="0.21,-118.5 0.21,-154.5 62.21,-154.5 62.21,-118.5 0.21,-118.5"/>
<text text-anchor="middle" x="31.21" y="-132.8" font-family="Times New Roman,serif" font-size="14.00">memory</text>
</g>
<!-- c -->
<g id="node3" class="node">
<title>c</title>
<polygon fill="none" stroke="black" points="98.21,-55.5 98.21,-91.5 152.21,-91.5 152.21,-55.5 98.21,-55.5"/>
<text text-anchor="middle" x="125.21" y="-69.8" font-family="Times New Roman,serif" font-size="14.00">c</text>
</g>
<!-- a&#45;&gt;c -->
<g id="edge1" class="edge">
<title>a:sw&#45;&gt;c:nw</title>
<path fill="none" stroke="black" stroke-dasharray="5,2" d="M1.21,-118.5C-3.63,-113.66 55.68,-111.56 62.21,-109.5 75.54,-105.3 82.3,-104.4 90.64,-98.17"/>
<polygon fill="black" stroke="black" points="93.02,-100.74 98.21,-91.5 88.4,-95.49 93.02,-100.74"/>
</g>
<!-- b -->
<g id="node2" class="node">
<title>b</title>
<polygon fill="none" stroke="black" points="4.21,-63.5 4.21,-99.5 58.21,-99.5 58.21,-63.5 4.21,-63.5"/>
<text text-anchor="middle" x="31.21" y="-77.8" font-family="Times New Roman,serif" font-size="14.00">b</text>
</g>
<!-- b&#45;&gt;c -->
<g id="edge2" class="edge">
<title>b:se&#45;&gt;c:ne</title>
<path fill="none" stroke="black" stroke-dasharray="5,2" d="M59.21,-63.5C64.88,-57.83 118.04,-80.67 141.09,-89.25"/>
<polygon fill="black" stroke="black" points="140.69,-92.75 151.21,-91.5 142.21,-85.91 140.69,-92.75"/>
</g>
<!-- e -->
<g id="node5" class="node">
<title>e</title>
<polygon fill="none" stroke="black" points="188.21,-27.5 188.21,-63.5 242.21,-63.5 242.21,-27.5 188.21,-27.5"/>
<text text-anchor="middle" x="215.21" y="-41.8" font-family="Times New Roman,serif" font-size="14.00">e</text>
</g>
<!-- c&#45;&gt;e -->
<g id="edge3" class="edge">
<title>c&#45;&gt;e</title>
<path fill="none" stroke="black" stroke-dasharray="5,2" d="M152.61,-65.1C160.78,-62.5 169.91,-59.59 178.6,-56.83"/>
<polygon fill="black" stroke="black" points="179.66,-60.17 188.13,-53.8 177.54,-53.5 179.66,-60.17"/>
</g>
<!-- d -->
<g id="node4" class="node">
<title>d</title>
<polygon fill="none" stroke="black" points="98.21,-0.5 98.21,-36.5 152.21,-36.5 152.21,-0.5 98.21,-0.5"/>
<text text-anchor="middle" x="125.21" y="-14.8" font-family="Times New Roman,serif" font-size="14.00">d</text>
</g>
<!-- d&#45;&gt;e -->
<g id="edge4" class="edge">
<title>d&#45;&gt;e</title>
<path fill="none" stroke="red" stroke-dasharray="5,2" d="M152.61,-26.6C160.69,-29.08 169.72,-31.85 178.32,-34.49"/>
<polygon fill="red" stroke="red" points="177.54,-37.91 188.13,-37.5 179.6,-31.22 177.54,-37.91"/>
</g>
</g>
</svg>
