<?xml version="1.0" encoding="UTF-8" standalone="no"?>
<!DOCTYPE svg PUBLIC "-//W3C//DTD SVG 1.1//EN"
 "http://www.w3.org/Graphics/SVG/1.1/DTD/svg11.dtd">
<!-- Generated by graphviz version 2.47.1 (20210417.1919)
 -->
<!-- Title: test Pages: 1 -->
<svg width="170pt" height="191pt"
 viewBox="0.00 0.00 170.00 191.00" xmlns="http://www.w3.org/2000/svg" xmlns:xlink="http://www.w3.org/1999/xlink">
<g id="graph0" class="graph" transform="scale(1 1) rotate(0) translate(4 187)">
<title>test</title>
<polygon fill="white" stroke="transparent" points="-4,4 -4,-187 166,-187 166,4 -4,4"/>
<!-- a -->
<g id="node1" class="node">
<title>a</title>
<polygon fill="skyblue" stroke="black" points="0,-146.5 0,-182.5 54,-182.5 54,-146.5 0,-146.5"/>
<text text-anchor="middle" x="27" y="-160.8" font-family="Times New Roman,serif" font-size="14.00">a</text>
</g>
<!-- c -->
<g id="node3" class="node">
<title>c</title>
<polygon fill="none" stroke="black" points="36,-73.5 36,-109.5 90,-109.5 90,-73.5 36,-73.5"/>
<text text-anchor="middle" x="63" y="-87.8" font-family="Times New Roman,serif" font-size="14.00">c</text>
</g>
<!-- a&#45;&gt;c -->
<g id="edge1" class="edge">
<title>a&#45;&gt;c</title>
<path fill="none" stroke="black" stroke-dasharray="5,2" d="M35.71,-146.31C39.92,-138.03 45.05,-127.91 49.72,-118.69"/>
<polygon fill="black" stroke="black" points="52.96,-120.03 54.37,-109.53 46.72,-116.87 52.96,-120.03"/>
</g>
<!-- b -->
<g id="node2" class="node">
<title>b</title>
<polygon fill="none" stroke="black" points="72,-146.5 72,-182.5 126,-182.5 126,-146.5 72,-146.5"/>
<text text-anchor="middle" x="99" y="-160.8" font-family="Times New Roman,serif" font-size="14.00">b</text>
</g>
<!-- b&#45;&gt;c -->
<g id="edge2" class="edge">
<title>b&#45;&gt;c</title>
<path fill="none" stroke="black" stroke-dasharray="5,2" d="M90.29,-146.31C86.08,-138.03 80.95,-127.91 76.28,-118.69"/>
<polygon fill="black" stroke="black" points="79.28,-116.87 71.63,-109.53 73.04,-120.03 79.28,-116.87"/>
</g>
<!-- e -->
<g id="node5" class="node">
<title>e</title>
<polygon fill="none" stroke="black" points="72,-0.5 72,-36.5 126,-36.5 126,-0.5 72,-0.5"/>
<text text-anchor="middle" x="99" y="-14.8" font-family="Times New Roman,serif" font-size="14.00">e</text>
</g>
<!-- c&#45;&gt;e -->
<g id="edge3" class="edge">
<title>c&#45;&gt;e</title>
<path fill="none" stroke="black" stroke-dasharray="5,2" d="M71.71,-73.31C75.92,-65.03 81.05,-54.91 85.72,-45.69"/>
<polygon fill="black" stroke="black" points="88.96,-47.03 90.37,-36.53 82.72,-43.87 88.96,-47.03"/>
</g>
<!-- d -->
<g id="node4" class="node">
<title>d</title>
<polygon fill="none" stroke="black" points="108,-73.5 108,-109.5 162,-109.5 162,-73.5 108,-73.5"/>
<text text-anchor="middle" x="135" y="-87.8" font-family="Times New Roman,serif" font-size="14.00">d</text>
</g>
<!-- d&#45;&gt;e -->
<g id="edge4" class="edge">
<title>d&#45;&gt;e</title>
<path fill="none" stroke="red" stroke-dasharray="5,2" d="M126.29,-73.31C122.08,-65.03 116.95,-54.91 112.28,-45.69"/>
<polygon fill="red" stroke="red" points="115.28,-43.87 107.63,-36.53 109.04,-47.03 115.28,-43.87"/>
</g>
</g>
</svg>
