<?xml version="1.0" encoding="UTF-8" standalone="no"?>
<!DOCTYPE svg PUBLIC "-//W3C//DTD SVG 1.1//EN"
 "http://www.w3.org/Graphics/SVG/1.1/DTD/svg11.dtd">
<!-- Generated by graphviz version 2.47.1 (20210417.1919)
 -->
<!-- Title: test Pages: 1 -->
<svg width="180pt" height="134pt"
 viewBox="0.00 0.00 180.00 134.00" xmlns="http://www.w3.org/2000/svg" xmlns:xlink="http://www.w3.org/1999/xlink">
<g id="graph0" class="graph" transform="scale(1 1) rotate(0) translate(4 130)">
<title>test</title>
<polygon fill="white" stroke="transparent" points="-4,4 -4,-130 176,-130 176,4 -4,4"/>
<!-- abc -->
<g id="node1" class="node">
<title>abc</title>
<polygon fill="lightgray" stroke="transparent" points="1,-94 1,-125 60,-125 60,-94 1,-94"/>
<text text-anchor="start" x="14.5" y="-105.8" font-family="Times New Roman,serif" font-size="14.00">后缀</text>
<polygon fill="lightgray" stroke="transparent" points="60,-94 60,-125 171,-125 171,-94 60,-94"/>
<text text-anchor="start" x="68" y="-105.8" font-family="Times New Roman,serif" font-size="14.00">最小匹配类型</text>
<text text-anchor="start" x="12" y="-74.8" font-family="Times New Roman,serif" font-size="14.00">u or U</text>
<text text-anchor="start" x="90.5" y="-74.8" font-family="Times New Roman,serif" font-size="14.00">unsigned</text>
<text text-anchor="start" x="15" y="-43.8" font-family="Times New Roman,serif" font-size="14.00">l or L</text>
<text text-anchor="start" x="103" y="-43.8" font-family="Times New Roman,serif" font-size="14.00">long</text>
<text text-anchor="start" x="9" y="-12.8" font-family="Times New Roman,serif" font-size="14.00">ll or LL</text>
<text text-anchor="start" x="89.5" y="-12.8" font-family="Times New Roman,serif" font-size="14.00">long long</text>
<polygon fill="none" stroke="black" points="0,0 0,-126 172,-126 172,0 0,0"/>
</g>
</g>
</svg>
