<?xml version="1.0" encoding="UTF-8" standalone="no"?>
<!DOCTYPE svg PUBLIC "-//W3C//DTD SVG 1.1//EN"
 "http://www.w3.org/Graphics/SVG/1.1/DTD/svg11.dtd">
<!-- Generated by graphviz version 2.47.1 (20210417.1919)
 -->
<!-- Title: example Pages: 1 -->
<svg width="318pt" height="152pt"
 viewBox="0.00 0.00 317.88 152.00" xmlns="http://www.w3.org/2000/svg" xmlns:xlink="http://www.w3.org/1999/xlink">
<g id="graph0" class="graph" transform="scale(1 1) rotate(0) translate(4 148)">
<title>example</title>
<!-- a1 -->
<g id="node1" class="node">
<title>a1</title>
<ellipse fill="none" stroke="black" cx="35.75" cy="-126" rx="36" ry="18"/>
<text text-anchor="middle" x="35.75" y="-122.3" font-family="Times New Roman,serif" font-size="14.00">a1.cpp</text>
</g>
<!-- b1 -->
<g id="node4" class="node">
<title>b1</title>
<ellipse fill="none" stroke="black" cx="141.94" cy="-126" rx="34.39" ry="18"/>
<text text-anchor="middle" x="141.94" y="-122.3" font-family="Times New Roman,serif" font-size="14.00">b1.obj</text>
</g>
<!-- a1&#45;&gt;b1 -->
<g id="edge1" class="edge">
<title>a1&#45;&gt;b1</title>
<path fill="none" stroke="black" d="M71.73,-126C79.89,-126 88.67,-126 97.15,-126"/>
<polygon fill="black" stroke="black" points="97.28,-129.5 107.28,-126 97.28,-122.5 97.28,-129.5"/>
</g>
<!-- a2 -->
<g id="node2" class="node">
<title>a2</title>
<ellipse fill="none" stroke="black" cx="35.75" cy="-72" rx="36" ry="18"/>
<text text-anchor="middle" x="35.75" y="-68.3" font-family="Times New Roman,serif" font-size="14.00">a2.cpp</text>
</g>
<!-- b2 -->
<g id="node5" class="node">
<title>b2</title>
<ellipse fill="none" stroke="black" cx="141.94" cy="-72" rx="34.39" ry="18"/>
<text text-anchor="middle" x="141.94" y="-68.3" font-family="Times New Roman,serif" font-size="14.00">b2.obj</text>
</g>
<!-- a2&#45;&gt;b2 -->
<g id="edge2" class="edge">
<title>a2&#45;&gt;b2</title>
<path fill="none" stroke="black" d="M71.73,-72C79.89,-72 88.67,-72 97.15,-72"/>
<polygon fill="black" stroke="black" points="97.28,-75.5 107.28,-72 97.28,-68.5 97.28,-75.5"/>
</g>
<!-- an -->
<g id="node3" class="node">
<title>an</title>
<ellipse fill="none" stroke="black" cx="35.75" cy="-18" rx="36" ry="18"/>
<text text-anchor="middle" x="35.75" y="-14.3" font-family="Times New Roman,serif" font-size="14.00">an.cpp</text>
</g>
<!-- bn -->
<g id="node6" class="node">
<title>bn</title>
<ellipse fill="none" stroke="black" cx="141.94" cy="-18" rx="34.39" ry="18"/>
<text text-anchor="middle" x="141.94" y="-14.3" font-family="Times New Roman,serif" font-size="14.00">bn.obj</text>
</g>
<!-- an&#45;&gt;bn -->
<g id="edge3" class="edge">
<title>an&#45;&gt;bn</title>
<path fill="none" stroke="black" d="M71.73,-18C79.89,-18 88.67,-18 97.15,-18"/>
<polygon fill="black" stroke="black" points="97.28,-21.5 107.28,-18 97.28,-14.5 97.28,-21.5"/>
</g>
<!-- c -->
<g id="node7" class="node">
<title>c</title>
<ellipse fill="none" stroke="black" cx="261.13" cy="-72" rx="48.99" ry="18"/>
<text text-anchor="middle" x="261.13" y="-68.3" font-family="Times New Roman,serif" font-size="14.00">output.exe</text>
</g>
<!-- b1&#45;&gt;c -->
<g id="edge4" class="edge">
<title>b1&#45;&gt;c</title>
<path fill="none" stroke="black" d="M168.37,-114.28C183.59,-107.27 203.27,-98.2 220.49,-90.27"/>
<polygon fill="black" stroke="black" points="222.15,-93.36 229.77,-85.99 219.22,-87 222.15,-93.36"/>
</g>
<!-- b2&#45;&gt;c -->
<g id="edge5" class="edge">
<title>b2&#45;&gt;c</title>
<path fill="none" stroke="black" d="M176.52,-72C184.5,-72 193.23,-72 201.95,-72"/>
<polygon fill="black" stroke="black" points="202.14,-75.5 212.14,-72 202.14,-68.5 202.14,-75.5"/>
</g>
<!-- bn&#45;&gt;c -->
<g id="edge6" class="edge">
<title>bn&#45;&gt;c</title>
<path fill="none" stroke="black" d="M168.37,-29.72C183.59,-36.73 203.27,-45.8 220.49,-53.73"/>
<polygon fill="black" stroke="black" points="219.22,-57 229.77,-58.01 222.15,-50.64 219.22,-57"/>
</g>
</g>
</svg>
