<?xml version="1.0" encoding="UTF-8" standalone="no"?>
<!DOCTYPE svg PUBLIC "-//W3C//DTD SVG 1.1//EN"
 "http://www.w3.org/Graphics/SVG/1.1/DTD/svg11.dtd">
<!-- Generated by graphviz version 2.47.1 (20210417.1919)
 -->
<!-- Title: test Pages: 1 -->
<svg width="266pt" height="320pt"
 viewBox="0.00 0.00 266.00 320.00" xmlns="http://www.w3.org/2000/svg" xmlns:xlink="http://www.w3.org/1999/xlink">
<g id="graph0" class="graph" transform="scale(1 1) rotate(0) translate(4 316)">
<title>test</title>
<polygon fill="white" stroke="transparent" points="-4,4 -4,-316 262,-316 262,4 -4,4"/>
<!-- abc -->
<g id="node1" class="node">
<title>abc</title>
<polygon fill="lightgray" stroke="transparent" points="1,-280 1,-311 69,-311 69,-280 1,-280"/>
<text text-anchor="start" x="17.5" y="-291.8" font-family="Times New Roman,serif" font-size="14.00">类型</text>
<polygon fill="lightgray" stroke="transparent" points="69,-280 69,-311 171,-311 171,-280 69,-280"/>
<text text-anchor="start" x="102.5" y="-291.8" font-family="Times New Roman,serif" font-size="14.00">含义</text>
<polygon fill="lightgray" stroke="transparent" points="171,-280 171,-311 257,-311 257,-280 171,-280"/>
<text text-anchor="start" x="179" y="-291.8" font-family="Times New Roman,serif" font-size="14.00">最小尺寸</text>
<text text-anchor="start" x="22" y="-260.8" font-family="Times New Roman,serif" font-size="14.00">bool</text>
<text text-anchor="start" x="85" y="-260.8" font-family="Times New Roman,serif" font-size="14.00">布尔类型</text>
<text text-anchor="start" x="188" y="-260.8" font-family="Times New Roman,serif" font-size="14.00">未定义</text>
<text text-anchor="start" x="22.5" y="-229.8" font-family="Times New Roman,serif" font-size="14.00">char</text>
<text text-anchor="start" x="102.5" y="-229.8" font-family="Times New Roman,serif" font-size="14.00">字符</text>
<text text-anchor="start" x="200" y="-229.8" font-family="Times New Roman,serif" font-size="14.00">8 位</text>
<text text-anchor="start" x="12" y="-198.8" font-family="Times New Roman,serif" font-size="14.00">wchar_t</text>
<text text-anchor="start" x="94" y="-198.8" font-family="Times New Roman,serif" font-size="14.00">宽字符</text>
<text text-anchor="start" x="196.5" y="-198.8" font-family="Times New Roman,serif" font-size="14.00">16 位</text>
<text text-anchor="start" x="10.5" y="-167.8" font-family="Times New Roman,serif" font-size="14.00">char16_t</text>
<text text-anchor="start" x="77" y="-167.8" font-family="Times New Roman,serif" font-size="14.00">Unicode 字符</text>
<text text-anchor="start" x="196.5" y="-167.8" font-family="Times New Roman,serif" font-size="14.00">16 位</text>
<text text-anchor="start" x="10.5" y="-136.8" font-family="Times New Roman,serif" font-size="14.00">char32_t</text>
<text text-anchor="start" x="77" y="-136.8" font-family="Times New Roman,serif" font-size="14.00">Unicode 字符</text>
<text text-anchor="start" x="196.5" y="-136.8" font-family="Times New Roman,serif" font-size="14.00">32 位</text>
<text text-anchor="start" x="20.5" y="-105.8" font-family="Times New Roman,serif" font-size="14.00">short</text>
<text text-anchor="start" x="94" y="-105.8" font-family="Times New Roman,serif" font-size="14.00">短整型</text>
<text text-anchor="start" x="196.5" y="-105.8" font-family="Times New Roman,serif" font-size="14.00">16 位</text>
<text text-anchor="start" x="28" y="-74.8" font-family="Times New Roman,serif" font-size="14.00">int</text>
<text text-anchor="start" x="102.5" y="-74.8" font-family="Times New Roman,serif" font-size="14.00">整型</text>
<text text-anchor="start" x="196.5" y="-74.8" font-family="Times New Roman,serif" font-size="14.00">16 位</text>
<text text-anchor="start" x="22.5" y="-43.8" font-family="Times New Roman,serif" font-size="14.00">long</text>
<text text-anchor="start" x="94" y="-43.8" font-family="Times New Roman,serif" font-size="14.00">长整型</text>
<text text-anchor="start" x="196.5" y="-43.8" font-family="Times New Roman,serif" font-size="14.00">32 位</text>
<text text-anchor="start" x="9" y="-12.8" font-family="Times New Roman,serif" font-size="14.00">long long</text>
<text text-anchor="start" x="94" y="-12.8" font-family="Times New Roman,serif" font-size="14.00">长整型</text>
<text text-anchor="start" x="196.5" y="-12.8" font-family="Times New Roman,serif" font-size="14.00">64 位</text>
<polygon fill="none" stroke="black" points="0,0 0,-312 258,-312 258,0 0,0"/>
</g>
</g>
</svg>
