<?xml version="1.0" encoding="UTF-8" standalone="no"?>
<!DOCTYPE svg PUBLIC "-//W3C//DTD SVG 1.1//EN"
 "http://www.w3.org/Graphics/SVG/1.1/DTD/svg11.dtd">
<!-- Generated by graphviz version 2.47.1 (20210417.1919)
 -->
<!-- Title: test Pages: 1 -->
<svg width="178pt" height="58pt"
 viewBox="0.00 0.00 178.00 58.00" xmlns="http://www.w3.org/2000/svg" xmlns:xlink="http://www.w3.org/1999/xlink">
<g id="graph0" class="graph" transform="scale(1 1) rotate(0) translate(4 54)">
<title>test</title>
<polygon fill="white" stroke="transparent" points="-4,4 -4,-54 174,-54 174,4 -4,4"/>
<!-- abc -->
<g id="node1" class="node">
<title>abc</title>
<polygon fill="#000000" stroke="transparent" points="0,-25 0,-50 170,-50 170,-25 0,-25"/>
<polygon fill="none" stroke="black" points="0,-25 0,-50 170,-50 170,-25 0,-25"/>
<text text-anchor="start" x="35" y="-33.8" font-family="Times New Roman,serif" font-size="14.00">C++ 算术类型</text>
<polygon fill="none" stroke="black" points="0,0 0,-25 45,-25 45,0 0,0"/>
<text text-anchor="start" x="5" y="-8.8" font-family="Times New Roman,serif" font-size="14.00">类型</text>
<polygon fill="none" stroke="black" points="45,0 45,-25 90,-25 90,0 45,0"/>
<text text-anchor="start" x="50" y="-8.8" font-family="Times New Roman,serif" font-size="14.00">含义</text>
<polygon fill="none" stroke="black" points="90,0 90,-25 170,-25 170,0 90,0"/>
<text text-anchor="start" x="95" y="-8.8" font-family="Times New Roman,serif" font-size="14.00">最小尺寸</text>
</g>
</g>
</svg>
