<?xml version="1.0" encoding="UTF-8" standalone="no"?>
<!DOCTYPE svg PUBLIC "-//W3C//DTD SVG 1.1//EN"
 "http://www.w3.org/Graphics/SVG/1.1/DTD/svg11.dtd">
<!-- Generated by graphviz version 2.47.1 (20210417.1919)
 -->
<!-- Title: test Pages: 1 -->
<svg width="174pt" height="191pt"
 viewBox="0.00 0.00 174.46 191.00" xmlns="http://www.w3.org/2000/svg" xmlns:xlink="http://www.w3.org/1999/xlink">
<g id="graph0" class="graph" transform="scale(1 1) rotate(0) translate(4 187)">
<title>test</title>
<polygon fill="white" stroke="transparent" points="-4,4 -4,-187 170.46,-187 170.46,4 -4,4"/>
<!-- a -->
<g id="node1" class="node">
<title>a</title>
<polygon fill="skyblue" stroke="black" points="4.46,-146.5 4.46,-182.5 58.46,-182.5 58.46,-146.5 4.46,-146.5"/>
<text text-anchor="middle" x="31.46" y="-160.8" font-family="Times New Roman,serif" font-size="14.00">a</text>
</g>
<!-- c -->
<g id="node3" class="node">
<title>c</title>
<polygon fill="none" stroke="black" points="40.46,-73.5 40.46,-109.5 94.46,-109.5 94.46,-73.5 40.46,-73.5"/>
<text text-anchor="middle" x="67.46" y="-87.8" font-family="Times New Roman,serif" font-size="14.00">c</text>
</g>
<!-- a&#45;&gt;c -->
<g id="edge1" class="edge">
<title>a:sw&#45;&gt;c:nw</title>
<path fill="none" stroke="black" stroke-dasharray="5,2" d="M4.46,-146C-9.17,-132.38 14.91,-127.45 32.24,-116.41"/>
<polygon fill="black" stroke="black" points="34.73,-118.91 40.46,-110 30.42,-113.39 34.73,-118.91"/>
</g>
<!-- b -->
<g id="node2" class="node">
<title>b</title>
<polygon fill="none" stroke="black" points="76.46,-146.5 76.46,-182.5 130.46,-182.5 130.46,-146.5 76.46,-146.5"/>
<text text-anchor="middle" x="103.46" y="-160.8" font-family="Times New Roman,serif" font-size="14.00">b</text>
</g>
<!-- b&#45;&gt;c -->
<g id="edge2" class="edge">
<title>b:se&#45;&gt;c:ne</title>
<path fill="none" stroke="black" stroke-dasharray="5,2" d="M130.46,-146C144.08,-132.38 120,-127.45 102.67,-116.41"/>
<polygon fill="black" stroke="black" points="104.49,-113.39 94.46,-110 100.18,-118.91 104.49,-113.39"/>
</g>
<!-- e -->
<g id="node5" class="node">
<title>e</title>
<polygon fill="none" stroke="black" points="76.46,-0.5 76.46,-36.5 130.46,-36.5 130.46,-0.5 76.46,-0.5"/>
<text text-anchor="middle" x="103.46" y="-14.8" font-family="Times New Roman,serif" font-size="14.00">e</text>
</g>
<!-- c&#45;&gt;e -->
<g id="edge3" class="edge">
<title>c&#45;&gt;e</title>
<path fill="none" stroke="black" stroke-dasharray="5,2" d="M76.17,-73.31C80.37,-65.03 85.5,-54.91 90.17,-45.69"/>
<polygon fill="black" stroke="black" points="93.42,-47.03 94.82,-36.53 87.18,-43.87 93.42,-47.03"/>
</g>
<!-- d -->
<g id="node4" class="node">
<title>d</title>
<polygon fill="none" stroke="black" points="112.46,-73.5 112.46,-109.5 166.46,-109.5 166.46,-73.5 112.46,-73.5"/>
<text text-anchor="middle" x="139.46" y="-87.8" font-family="Times New Roman,serif" font-size="14.00">d</text>
</g>
<!-- d&#45;&gt;e -->
<g id="edge4" class="edge">
<title>d&#45;&gt;e</title>
<path fill="none" stroke="red" stroke-dasharray="5,2" d="M130.74,-73.31C126.54,-65.03 121.41,-54.91 116.74,-45.69"/>
<polygon fill="red" stroke="red" points="119.73,-43.87 112.09,-36.53 113.49,-47.03 119.73,-43.87"/>
</g>
</g>
</svg>
