<?xml version="1.0" encoding="UTF-8" standalone="no"?>
<!DOCTYPE svg PUBLIC "-//W3C//DTD SVG 1.1//EN"
 "http://www.w3.org/Graphics/SVG/1.1/DTD/svg11.dtd">
<!-- Generated by graphviz version 2.47.1 (20210417.1919)
 -->
<!-- Title: test Pages: 1 -->
<svg width="251pt" height="155pt"
 viewBox="0.00 0.00 251.00 155.00" xmlns="http://www.w3.org/2000/svg" xmlns:xlink="http://www.w3.org/1999/xlink">
<g id="graph0" class="graph" transform="scale(1 1) rotate(0) translate(4 151)">
<title>test</title>
<!-- a -->
<g id="node1" class="node">
<title>a</title>
<polygon fill="none" stroke="black" points="0,-55.5 0,-91.5 79,-91.5 79,-55.5 0,-55.5"/>
<text text-anchor="middle" x="39.5" y="-69.8" font-family="Times New Roman,serif" font-size="14.00">&lt;memory&gt;</text>
</g>
<!-- b -->
<g id="node2" class="node">
<title>b</title>
<polygon fill="none" stroke="black" points="121,-110.5 121,-146.5 237,-146.5 237,-110.5 121,-110.5"/>
<text text-anchor="middle" x="179" y="-124.8" font-family="Times New Roman,serif" font-size="14.00">&lt;stl_construct.h&gt;</text>
</g>
<!-- a&#45;&gt;b -->
<g id="edge1" class="edge">
<title>a&#45;&gt;b</title>
<path fill="none" stroke="black" stroke-dasharray="5,2" d="M79.17,-88.97C92.85,-94.44 108.51,-100.71 123.28,-106.61"/>
<polygon fill="black" stroke="black" points="122.23,-109.96 132.82,-110.43 124.83,-103.46 122.23,-109.96"/>
</g>
<!-- c -->
<g id="node3" class="node">
<title>c</title>
<polygon fill="none" stroke="black" points="135.5,-55.5 135.5,-91.5 222.5,-91.5 222.5,-55.5 135.5,-55.5"/>
<text text-anchor="middle" x="179" y="-69.8" font-family="Times New Roman,serif" font-size="14.00">&lt;stl_aloc.h&gt;</text>
</g>
<!-- a&#45;&gt;c -->
<g id="edge2" class="edge">
<title>a&#45;&gt;c</title>
<path fill="none" stroke="black" stroke-dasharray="5,2" d="M79.17,-73.5C93.37,-73.5 109.7,-73.5 124.94,-73.5"/>
<polygon fill="black" stroke="black" points="125.28,-77 135.28,-73.5 125.28,-70 125.28,-77"/>
</g>
<!-- d -->
<g id="node4" class="node">
<title>d</title>
<polygon fill="none" stroke="black" points="115,-0.5 115,-36.5 243,-36.5 243,-0.5 115,-0.5"/>
<text text-anchor="middle" x="179" y="-14.8" font-family="Times New Roman,serif" font-size="14.00">&lt;stl_uninitialized.h&gt;</text>
</g>
<!-- a&#45;&gt;d -->
<g id="edge3" class="edge">
<title>a&#45;&gt;d</title>
<path fill="none" stroke="black" stroke-dasharray="5,2" d="M79.17,-58.03C92.85,-52.56 108.51,-46.29 123.28,-40.39"/>
<polygon fill="black" stroke="black" points="124.83,-43.54 132.82,-36.57 122.23,-37.04 124.83,-43.54"/>
</g>
</g>
</svg>
