<?xml version="1.0" encoding="UTF-8" standalone="no"?>
<!DOCTYPE svg PUBLIC "-//W3C//DTD SVG 1.1//EN"
 "http://www.w3.org/Graphics/SVG/1.1/DTD/svg11.dtd">
<!-- Generated by graphviz version 2.47.1 (20210417.1919)
 -->
<!-- Title: test Pages: 1 -->
<svg width="216pt" height="260pt"
 viewBox="0.00 0.00 216.00 260.00" xmlns="http://www.w3.org/2000/svg" xmlns:xlink="http://www.w3.org/1999/xlink">
<g id="graph0" class="graph" transform="scale(1 1) rotate(0) translate(4 256)">
<title>test</title>
<!-- a -->
<g id="node1" class="node">
<title>a</title>
<text text-anchor="middle" x="45" y="-230.3" font-family="Times New Roman,serif" font-size="14.00">Input Iterator</text>
</g>
<!-- c -->
<g id="node3" class="node">
<title>c</title>
<text text-anchor="middle" x="101" y="-158.3" font-family="Times New Roman,serif" font-size="14.00">Forward Iterator</text>
</g>
<!-- a&#45;&gt;c -->
<g id="edge1" class="edge">
<title>a:s&#45;&gt;c:n</title>
<path fill="none" stroke="black" d="M45,-216C45,-190.57 86.36,-204.11 97.99,-189.65"/>
<polygon fill="black" stroke="black" points="101.36,-190.59 101,-180 94.68,-188.5 101.36,-190.59"/>
</g>
<!-- b -->
<g id="node2" class="node">
<title>b</title>
<text text-anchor="middle" x="158" y="-230.3" font-family="Times New Roman,serif" font-size="14.00">Output Iterator</text>
</g>
<!-- b&#45;&gt;c -->
<g id="edge2" class="edge">
<title>b:s&#45;&gt;c:n</title>
<path fill="none" stroke="black" d="M158,-216C158,-190.25 115.9,-204.3 104.06,-189.74"/>
<polygon fill="black" stroke="black" points="107.34,-188.49 101,-180 100.66,-190.59 107.34,-188.49"/>
</g>
<!-- d -->
<g id="node4" class="node">
<title>d</title>
<text text-anchor="middle" x="101" y="-86.3" font-family="Times New Roman,serif" font-size="14.00">Bidirectional Iterator</text>
</g>
<!-- c&#45;&gt;d -->
<g id="edge3" class="edge">
<title>c:s&#45;&gt;d:n</title>
<path fill="none" stroke="black" d="M101,-144C101,-132 101,-126.75 101,-118.12"/>
<polygon fill="black" stroke="black" points="104.5,-118 101,-108 97.5,-118 104.5,-118"/>
</g>
<!-- e -->
<g id="node5" class="node">
<title>e</title>
<text text-anchor="middle" x="101" y="-14.3" font-family="Times New Roman,serif" font-size="14.00">Random Access Iterator</text>
</g>
<!-- d&#45;&gt;e -->
<g id="edge4" class="edge">
<title>d:s&#45;&gt;e:n</title>
<path fill="none" stroke="black" d="M101,-72C101,-60 101,-54.75 101,-46.12"/>
<polygon fill="black" stroke="black" points="104.5,-46 101,-36 97.5,-46 104.5,-46"/>
</g>
</g>
</svg>
