<?xml version="1.0" encoding="UTF-8" standalone="no"?>
<!DOCTYPE svg PUBLIC "-//W3C//DTD SVG 1.1//EN"
 "http://www.w3.org/Graphics/SVG/1.1/DTD/svg11.dtd">
<!-- Generated by graphviz version 2.47.1 (20210417.1919)
 -->
<!-- Title: test Pages: 1 -->
<svg width="381pt" height="116pt"
 viewBox="0.00 0.00 380.65 116.00" xmlns="http://www.w3.org/2000/svg" xmlns:xlink="http://www.w3.org/1999/xlink">
<g id="graph0" class="graph" transform="scale(1 1) rotate(0) translate(4 112)">
<title>test</title>
<!-- a -->
<g id="node1" class="node">
<title>a</title>
<text text-anchor="middle" x="98.65" y="-86.3" font-family="Times New Roman,serif" font-size="14.00">&lt;memory&gt;</text>
</g>
<!-- b -->
<g id="node2" class="node">
<title>b</title>
<text text-anchor="middle" x="62.65" y="-14.3" font-family="Times New Roman,serif" font-size="14.00">&lt;stl_construct.h&gt;</text>
</g>
<!-- a&#45;&gt;b -->
<g id="edge1" class="edge">
<title>a:e&#45;&gt;b:w</title>
<path fill="none" stroke="black" stroke-dasharray="5,2" d="M139.65,-90C147.66,-90 143.7,-78.22 138.65,-72 99.78,-24.12 43.52,-83.88 4.65,-36 2.75,-33.67 1.01,-30.55 0,-27.57"/>
<polygon fill="black" stroke="black" points="3.36,-28.59 3.65,-18 -3.18,-26.1 3.36,-28.59"/>
</g>
<!-- c -->
<g id="node3" class="node">
<title>c</title>
<text text-anchor="middle" x="182.65" y="-14.3" font-family="Times New Roman,serif" font-size="14.00">&lt;stl_aloc.h&gt;</text>
</g>
<!-- a&#45;&gt;c -->
<g id="edge2" class="edge">
<title>a:e&#45;&gt;c:w</title>
<path fill="none" stroke="black" stroke-dasharray="5,2" d="M139.65,-90C152.09,-90 134.31,-46.49 133.29,-27.12"/>
<polygon fill="black" stroke="black" points="136.5,-28.53 137.65,-18 130.18,-25.51 136.5,-28.53"/>
</g>
<!-- d -->
<g id="node4" class="node">
<title>d</title>
<text text-anchor="middle" x="308.65" y="-14.3" font-family="Times New Roman,serif" font-size="14.00">&lt;stl_uninitialized.h&gt;</text>
</g>
<!-- a&#45;&gt;d -->
<g id="edge3" class="edge">
<title>a:e&#45;&gt;d:w</title>
<path fill="none" stroke="black" stroke-dasharray="5,2" d="M139.65,-90C188.6,-90 202.7,-72.21 235.65,-36 238.04,-33.37 238.37,-29.91 238.49,-26.72"/>
<polygon fill="black" stroke="black" points="241.57,-28.39 243.65,-18 235.55,-24.83 241.57,-28.39"/>
</g>
</g>
</svg>
